<?xml version="1.0" encoding="utf-8" standalone="no"?>
<!DOCTYPE svg PUBLIC "-//W3C//DTD SVG 1.1//EN"
  "http://www.w3.org/Graphics/SVG/1.1/DTD/svg11.dtd">
<svg xmlns:xlink="http://www.w3.org/1999/xlink" width="720pt" height="720pt" viewBox="0 0 720 720" xmlns="http://www.w3.org/2000/svg" version="1.1">
 <metadata>
  <rdf:RDF xmlns:dc="http://purl.org/dc/elements/1.1/" xmlns:cc="http://creativecommons.org/ns#" xmlns:rdf="http://www.w3.org/1999/02/22-rdf-syntax-ns#">
   <cc:Work>
    <dc:type rdf:resource="http://purl.org/dc/dcmitype/StillImage"/>
    <dc:date>2023-01-03T13:25:13.533918</dc:date>
    <dc:format>image/svg+xml</dc:format>
    <dc:creator>
     <cc:Agent>
      <dc:title>Matplotlib v3.5.3, https://matplotlib.org/</dc:title>
     </cc:Agent>
    </dc:creator>
   </cc:Work>
  </rdf:RDF>
 </metadata>
 <defs>
  <style type="text/css">*{stroke-linejoin: round; stroke-linecap: butt}</style>
 </defs>
 <g id="figure_1">
  <g id="patch_1">
   <path d="M 0 720 
L 720 720 
L 720 0 
L 0 0 
L 0 720 
z
" style="fill: none"/>
  </g>
  <g id="axes_1">
   <g id="patch_2">
    <path d="M 90 628.09864 
L 648 628.09864 
L 648 99.10136 
L 90 99.10136 
L 90 628.09864 
z
" style="fill: none"/>
   </g>
   <g id="PatchCollection_1">
    <path d="M 295.090521 426.599439 
L 293.184469 425.200864 
L 289.591385 426.677362 
L 279.445427 422.167449 
L 277.713726 423.701039 
L 276.961158 427.172487 
L 272.326794 426.280304 
L 270.368606 427.85687 
L 269.433206 426.538745 
L 266.980845 428.551159 
L 265.469491 427.978718 
L 260.175236 437.50201 
L 259.349822 442.816657 
L 256.881067 445.390268 
L 255.781362 449.157905 
L 257.400433 451.012077 
L 252.532703 452.604939 
L 245.718149 461.987406 
L 241.272314 460.559976 
L 240.698659 461.494036 
L 238.599156 458.545188 
L 236.992324 459.318844 
L 233.14196 457.393474 
L 231.183675 453.969516 
L 223.57141 451.734964 
L 222.859333 449.918921 
L 221.186108 449.886842 
L 221.834394 447.587927 
L 221.052834 448.191951 
L 210.933587 445.086823 
L 206.367954 441.641402 
L 204.91892 437.826728 
L 198.22375 434.562647 
L 192.252305 428.507311 
L 190.828106 422.651771 
L 187.218566 417.927546 
L 186.634252 411.224002 
L 187.66088 407.131903 
L 186.742417 403.053626 
L 182.608294 397.822744 
L 182.951625 396.665581 
L 181.166242 395.873779 
L 180.051114 387.779757 
L 176.444406 384.425043 
L 176.118921 382.469635 
L 173.673517 382.198556 
L 167.953348 376.326789 
L 166.218296 376.895723 
L 165.149117 375.296883 
L 164.098225 375.943236 
L 161.204675 374.152248 
L 160.585366 371.891166 
L 155.160835 367.298903 
L 153.46851 363.235017 
L 147.215763 359.105103 
L 138.912437 348.593547 
L 130.848244 344.340526 
L 124.945738 332.460272 
L 119.087769 329.748967 
L 116.271707 328.156927 
L 116.300685 326.943414 
L 115.363636 324.607686 
L 115.811445 323.781178 
L 116.012731 321.168136 
L 115.365047 320.762803 
L 116.435303 319.889562 
L 125.840536 320.459653 
L 140.233916 321.226754 
L 181.719471 323.158897 
L 184.451511 323.330362 
L 216.389731 324.4278 
L 217.843366 324.543152 
L 227.516957 324.871578 
L 242.755029 325.447122 
L 253.280183 325.853836 
L 253.490414 322.111618 
L 253.860525 302.70473 
L 254.814637 282.963632 
L 255.579129 263.838941 
L 255.977889 255.362066 
L 256.507701 243.621272 
L 257.240687 221.885585 
L 258.043778 202.135084 
L 258.218874 192.21844 
L 258.448757 182.615319 
L 259.144691 162.437931 
L 259.279985 157.069774 
L 259.616089 142.87334 
L 260.038067 123.152108 
L 261.131949 123.146691 
L 291.549009 123.955111 
L 296.343522 123.921884 
L 311.482647 124.215653 
L 330.892511 124.634437 
L 335.750001 124.607567 
L 350.657848 124.716548 
L 370.507307 124.56577 
L 370.716638 124.627304 
L 370.863302 144.327078 
L 370.842501 152.192464 
L 370.758868 164.183281 
L 370.967975 172.96959 
L 370.863564 183.930673 
L 370.905176 190.765562 
L 370.800974 203.592564 
L 370.905102 211.945043 
L 371.801922 211.965576 
L 372.824089 211.16518 
L 373.303641 211.185755 
L 375.222461 212.58155 
L 375.972794 213.915513 
L 377.119697 214.675038 
L 379.078981 217.281757 
L 382.559763 220.279074 
L 385.686759 220.670373 
L 386.291787 219.931901 
L 386.563618 218.844327 
L 387.460481 218.557686 
L 389.399152 219.051295 
L 390.25332 219.975369 
L 391.795325 220.817745 
L 392.858734 220.613359 
L 393.443664 219.361863 
L 393.486774 217.904943 
L 394.551259 216.941226 
L 396.092482 218.625348 
L 398.19778 219.263379 
L 398.696301 220.6183 
L 400.528904 222.241452 
L 400.881931 223.452507 
L 400.587225 225.689164 
L 401.127099 227.12634 
L 401.668297 227.619344 
L 403.481042 228.113945 
L 405.336328 227.787728 
L 406.961359 228.200028 
L 408.42131 227.709447 
L 410.066749 228.368428 
L 412.377247 229.86975 
L 415.397914 230.510472 
L 416.626268 231.128058 
L 419.377123 231.153012 
L 420.233331 230.272063 
L 421.004276 230.396464 
L 422.33921 229.865312 
L 423.046892 230.174278 
L 424.212954 230.586972 
L 424.938637 232.230104 
L 427.143226 233.958282 
L 429.079631 234.475152 
L 430.081168 233.943659 
L 430.604123 233.18543 
L 431.208909 232.960981 
L 431.441673 231.668334 
L 432.69518 230.460257 
L 433.820153 230.56526 
L 435.46454 231.287238 
L 439.381309 231.563098 
L 440.714915 230.499222 
L 441.532575 230.008639 
L 442.322552 230.646801 
L 441.750696 233.580121 
L 442.721043 236.476353 
L 443.885654 237.156558 
L 445.093758 237.262219 
L 446.616601 236.588868 
L 447.862137 237.92623 
L 447.964681 238.439536 
L 447.400534 238.951245 
L 447.8773 239.670863 
L 446.936853 240.612323 
L 446.935278 241.043479 
L 447.765874 241.88714 
L 449.493268 242.28175 
L 450.989933 243.106915 
L 451.636091 243.006035 
L 453.953441 241.452812 
L 455.189221 239.54758 
L 456.211364 239.201794 
L 457.112516 237.726684 
L 458.344714 236.930145 
L 461.02892 237.738604 
L 461.374067 240.059028 
L 462.017165 240.738275 
L 462.80917 240.658784 
L 464.165466 240.047464 
L 465.705311 240.421837 
L 466.266698 240.649442 
L 466.493617 241.183905 
L 466.712911 243.627078 
L 468.334413 244.289349 
L 470.086126 243.782108 
L 470.862882 242.368559 
L 471.864426 241.961559 
L 471.869221 240.812289 
L 473.468731 241.82368 
L 473.7993 242.440632 
L 474.28111 241.785605 
L 474.431209 240.821492 
L 475.725241 240.271844 
L 476.619582 240.542005 
L 477.549487 242.146472 
L 477.400669 242.84365 
L 476.419133 243.394107 
L 475.936882 244.151866 
L 476.735367 247.151481 
L 478.146425 248.203536 
L 479.541344 248.290807 
L 480.479496 248.007121 
L 480.731893 247.515407 
L 480.495816 244.579397 
L 481.894726 243.825293 
L 480.814628 243.20546 
L 480.650806 242.609625 
L 481.068652 242.344465 
L 482.794023 243.028374 
L 483.525364 242.559149 
L 484.176571 241.371362 
L 484.08732 238.312747 
L 484.83597 238.603048 
L 486.025866 238.094675 
L 486.258034 237.459367 
L 487.442986 237.956706 
L 488.062235 239.088071 
L 488.2613 240.915532 
L 488.964495 241.903756 
L 489.609428 242.050058 
L 490.716915 241.397861 
L 491.341353 241.461961 
L 493.227909 243.132509 
L 494.623943 242.994844 
L 495.293905 242.341012 
L 495.807531 239.777461 
L 496.226435 239.348395 
L 499.326414 240.039441 
L 498.255662 241.573952 
L 498.771631 242.458812 
L 500.267068 243.204482 
L 502.222619 243.582776 
L 502.632213 244.816107 
L 503.15038 245.24947 
L 505.694051 244.707214 
L 507.59777 246.809771 
L 508.525481 248.35379 
L 509.711688 248.482677 
L 510.277139 247.910577 
L 510.623267 245.736444 
L 511.043094 245.204923 
L 513.537867 245.874156 
L 514.4966 245.755681 
L 515.165953 245.245936 
L 515.403182 243.933565 
L 516.117756 242.910829 
L 515.618768 242.764556 
L 514.656178 243.498579 
L 514.554176 243.169738 
L 515.057851 242.556455 
L 515.809561 242.231851 
L 517.307573 242.46533 
L 517.957854 241.750346 
L 519.602593 241.840808 
L 520.377669 241.146965 
L 520.874217 241.662726 
L 521.315441 241.069836 
L 521.257588 240.330604 
L 521.570731 240.229461 
L 522.232205 240.992562 
L 522.92174 240.647175 
L 523.470998 239.500679 
L 523.846121 239.4617 
L 527.185424 241.573056 
L 527.956904 241.454143 
L 529.067587 240.433972 
L 530.10526 240.993839 
L 530.217949 239.742476 
L 530.326694 239.086163 
L 530.829756 238.616975 
L 532.618762 238.934843 
L 535.064627 237.696551 
L 535.835666 237.659913 
L 535.736712 236.920471 
L 536.051922 236.552684 
L 537.69521 236.870035 
L 538.372373 238.290386 
L 539.373439 238.131934 
L 539.120417 238.541047 
L 538.347989 238.782762 
L 538.491518 239.112023 
L 539.641454 238.523494 
L 540.198721 239.224514 
L 541.346153 238.964487 
L 542.006014 239.871673 
L 546.570386 239.447518 
L 546.287618 238.275834 
L 547.596839 238.694282 
L 548.180338 238.656799 
L 548.461914 237.242316 
L 549.017343 238.128468 
L 549.478234 237.782339 
L 549.406012 236.365563 
L 549.999154 235.055715 
L 553.263325 235.876692 
L 554.033573 235.963756 
L 554.129326 237.031611 
L 554.419325 237.238582 
L 555.297775 236.772257 
L 555.796649 236.898476 
L 555.559904 237.882329 
L 555.806745 238.253339 
L 556.504849 236.903208 
L 556.559775 237.847692 
L 557.347297 238.365906 
L 557.590728 239.168103 
L 558.508704 238.968789 
L 559.420644 239.549426 
L 560.174213 239.061736 
L 560.542541 239.864621 
L 561.310861 240.157151 
L 561.343381 241.28617 
L 562.176843 241.230264 
L 562.568039 241.78695 
L 562.396146 242.422186 
L 563.640742 243.025863 
L 564.589323 244.140478 
L 566.047604 244.068431 
L 566.668804 244.483081 
L 567.382283 243.83123 
L 568.111353 243.815644 
L 567.461485 244.324295 
L 567.437298 244.714157 
L 568.688527 244.517386 
L 568.243416 245.438211 
L 569.015031 245.299781 
L 568.573241 245.830387 
L 569.070497 246.100599 
L 571.003669 246.504039 
L 571.839149 246.181348 
L 572.337491 246.349076 
L 572.78991 246.988723 
L 571.912792 247.311023 
L 571.869047 247.557056 
L 572.284542 247.641923 
L 573.016095 247.318701 
L 573.250694 246.683944 
L 574.451622 247.451867 
L 575.019076 246.819644 
L 575.286681 247.19109 
L 575.953838 247.093056 
L 575.804515 247.502601 
L 575.054368 247.579346 
L 574.947492 247.886609 
L 575.404366 248.012923 
L 576.553673 247.528515 
L 576.71496 248.124923 
L 575.962995 248.40688 
L 575.980934 248.73559 
L 576.438083 248.841439 
L 577.629345 248.316229 
L 577.412184 249.32066 
L 577.93691 248.852219 
L 578.329528 249.183455 
L 579.219173 248.735932 
L 580.738937 248.457113 
L 580.767698 249.34141 
L 580.222011 249.933659 
L 580.550052 250.271559 
L 581.109238 250.214545 
L 581.989306 251.238941 
L 582.482218 251.147358 
L 582.97975 250.29197 
L 583.307347 250.423678 
L 583.284015 251.210278 
L 582.446133 251.811499 
L 583.399935 252.333141 
L 584.926328 251.104723 
L 585.958902 251.783619 
L 586.039936 250.743692 
L 586.766131 250.27766 
L 587.037661 250.477162 
L 586.998225 251.512719 
L 588.333697 250.056366 
L 588.8851 250.330416 
L 588.476995 251.444786 
L 589.40921 251.556266 
L 589.554042 250.324272 
L 591.262125 249.841229 
L 591.489925 251.035307 
L 593.60606 250.655344 
L 594.034061 250.137244 
L 595.001866 250.389874 
L 596.01595 251.297879 
L 596.690245 264.167446 
L 597.207153 275.300999 
L 597.441928 281.65535 
L 597.951777 290.098718 
L 598.885266 303.849682 
L 599.365274 312.393738 
L 599.85292 321.62111 
L 600.832092 321.810892 
L 601.070265 322.303314 
L 602.191581 323.677273 
L 602.525545 324.697316 
L 603.874801 325.242293 
L 604.558011 325.193556 
L 604.387749 325.97547 
L 605.312614 325.840351 
L 605.632167 326.923929 
L 606.061401 326.838989 
L 606.262962 327.789896 
L 606.828635 329.241339 
L 608.039192 329.862638 
L 608.579586 331.06871 
L 608.28365 332.049606 
L 609.155929 333.036012 
L 609.010596 333.856995 
L 609.260493 334.059057 
L 609.885831 333.850963 
L 609.22555 335.551022 
L 609.486671 336.47552 
L 609.181706 336.754527 
L 609.069949 338.109707 
L 608.46129 338.274852 
L 608.638281 339.393982 
L 609.299191 339.947226 
L 609.568532 340.746976 
L 610.804072 341.821033 
L 611.460297 341.919956 
L 612.05013 341.570741 
L 612.703015 342.248919 
L 613.703578 342.251011 
L 613.25921 343.412649 
L 612.058995 343.699672 
L 612.040703 343.929012 
L 613.05081 345.046785 
L 614.14011 344.895108 
L 614.043816 345.587263 
L 614.640576 345.919762 
L 614.315206 346.407741 
L 614.410696 346.935722 
L 614.704208 347.361079 
L 615.630607 347.660187 
L 615.811413 348.820805 
L 616.819987 348.698031 
L 615.308388 350.836775 
L 615.173233 351.553728 
L 616.224354 352.667723 
L 616.622268 352.48264 
L 617.235376 353.185942 
L 617.786045 353.068234 
L 617.978043 353.317723 
L 618.084593 354.568857 
L 618.90823 355.085505 
L 618.509629 356.491272 
L 618.906357 357.320164 
L 619.585199 357.644545 
L 620.555432 356.739507 
L 621.407314 356.922392 
L 621.504697 357.26428 
L 621.11902 357.365276 
L 621.490656 357.948425 
L 620.886789 358.15435 
L 621.215948 359.341854 
L 621.597615 359.613673 
L 621.352771 360.072954 
L 620.5345 360.424694 
L 620.429739 360.828448 
L 621.097919 361.050587 
L 621.092429 361.609855 
L 622.16272 361.894835 
L 621.87081 362.710793 
L 622.636364 363.481817 
L 621.155449 364.687073 
L 620.45436 364.550973 
L 620.353418 364.788872 
L 620.280056 365.49996 
L 620.678335 365.728718 
L 620.272988 366.4528 
L 621.210865 366.668376 
L 621.685594 367.24138 
L 621.875164 367.056552 
L 622.195743 368.16261 
L 622.049825 368.570708 
L 621.293462 368.709238 
L 621.465424 369.581941 
L 620.777457 369.775792 
L 620.662643 370.491283 
L 620.997369 371.119901 
L 621.340036 371.623509 
L 620.850187 372.335506 
L 621.277043 372.437265 
L 621.506452 373.055907 
L 620.364117 374.310275 
L 620.313959 375.661255 
L 619.089512 376.924135 
L 619.545402 377.51988 
L 619.149818 377.518506 
L 619.416869 378.506285 
L 619.276158 379.576761 
L 617.663845 380.299317 
L 617.049929 381.832104 
L 616.468891 381.849619 
L 616.834472 382.578971 
L 616.538466 382.940385 
L 617.406603 383.701726 
L 616.553927 383.705278 
L 615.63372 384.275026 
L 615.680364 385.140443 
L 615.059636 386.197799 
L 616.280507 387.151371 
L 615.968439 387.97033 
L 616.278156 388.353294 
L 616.002428 388.712713 
L 616.708034 389.511404 
L 616.515045 389.8626 
L 616.833333 390.742032 
L 615.884615 391.231993 
L 615.126305 392.365775 
L 614.712208 393.609871 
L 615.026385 394.241221 
L 614.611174 394.863686 
L 614.651259 395.460703 
L 615.8912 397.013774 
L 617.104139 397.284551 
L 616.934991 399.913727 
L 616.691425 400.788475 
L 617.202534 402.54037 
L 617.536283 402.755378 
L 617.463595 403.882384 
L 618.116323 403.961387 
L 618.024193 404.281785 
L 617.528235 404.311365 
L 617.655327 405.355996 
L 617.21513 405.525136 
L 616.971491 406.400162 
L 617.193982 407.974538 
L 615.464522 410.536147 
L 611.699845 411.438817 
L 611.802284 412.609395 
L 608.422897 419.399021 
L 613.370025 425.617537 
L 604.311348 426.136939 
L 593.109277 431.879549 
L 592.339655 432.276887 
L 580.568873 438.23562 
L 577.403163 441.497799 
L 576.624315 440.664943 
L 580.50096 436.333711 
L 584.676719 433.514757 
L 587.523923 434.074728 
L 588.675452 432.244993 
L 587.08667 432.8495 
L 586.165674 432.496349 
L 584.89984 431.429732 
L 576.18177 433.676081 
L 579.138734 428.120719 
L 579.172431 423.783721 
L 577.696975 422.120417 
L 574.086744 423.786361 
L 572.008207 428.004683 
L 570.193165 427.471466 
L 563.826165 422.263966 
L 565.893534 426.34139 
L 567.966469 427.68637 
L 567.236772 433.154958 
L 571.413996 435.624 
L 568.672132 437.546273 
L 570.203081 437.288854 
L 569.941535 439.126432 
L 571.490486 439.241304 
L 571.293048 437.999688 
L 572.413597 440.136941 
L 575.462807 441.276235 
L 572.411821 440.384971 
L 572.300451 444.2294 
L 570.19845 443.552143 
L 565.911611 449.616064 
L 562.181463 449.59379 
L 562.176052 453.317101 
L 560.911962 453.928665 
L 559.137557 459.730516 
L 548.435301 468.084052 
L 542.359064 471.769587 
L 542.778858 470.591819 
L 538.233371 471.391112 
L 532.316786 473.798264 
L 531.680019 476.881055 
L 541.61343 472.158304 
L 521.926484 483.288723 
L 530.31097 478.115801 
L 530.532119 475.548095 
L 520.563927 479.591984 
L 520.466907 478.431058 
L 523.689896 477.682991 
L 520.352176 476.731522 
L 523.706769 470.847473 
L 521.396837 474.355214 
L 518.500986 475.581729 
L 519.049091 473.430529 
L 516.944563 476.881055 
L 515.456916 477.657278 
L 514.281118 475.336846 
L 514.161005 472.82363 
L 512.816206 473.499853 
L 511.855936 471.58936 
L 512.632132 474.172119 
L 513.746751 473.132041 
L 513.253434 476.795871 
L 515.021513 478.027813 
L 510.490102 480.572761 
L 512.583353 478.698323 
L 511.812462 476.063036 
L 510.746905 478.709191 
L 509.593385 478.288806 
L 509.540817 476.423871 
L 507.226281 477.095519 
L 507.142048 474.590184 
L 506.913331 469.347727 
L 506.907984 474.649442 
L 506.27393 473.46552 
L 504.091721 473.677585 
L 503.603123 475.274818 
L 505.799512 477.709716 
L 505.744323 480.630998 
L 507.460367 479.893862 
L 510.746967 482.853818 
L 507.746747 484.599961 
L 509.540094 484.940942 
L 511.158133 483.146141 
L 514.671254 485.984271 
L 504.06008 492.086759 
L 502.375742 490.605743 
L 502.242899 488.096179 
L 500.759059 487.798494 
L 498.814611 484.51352 
L 497.385204 485.812541 
L 498.806067 485.924211 
L 500.018144 487.483896 
L 499.395293 488.372381 
L 496.262136 487.859558 
L 498.933394 490.153301 
L 499.063637 491.93741 
L 498.83602 493.816614 
L 499.506417 495.693904 
L 498.500908 496.531248 
L 492.739938 501.076983 
L 494.087373 494.609904 
L 491.644902 496.755969 
L 493.042699 497.799792 
L 491.771182 501.072484 
L 489.40397 500.127783 
L 489.729817 497.302467 
L 485.484644 500.546058 
L 485.304797 499.13416 
L 484.005162 499.273766 
L 484.492314 501.205727 
L 480.421538 503.640409 
L 481.202027 504.346414 
L 480.064259 505.400313 
L 481.412142 504.708274 
L 485.924479 503.97244 
L 489.728307 501.457331 
L 489.938856 505.402113 
L 486.426647 510.228822 
L 483.305025 514.967019 
L 481.225045 514.563414 
L 482.566312 514.132854 
L 479.708104 512.396665 
L 476.631776 513.879491 
L 477.214483 512.365581 
L 471.872851 513.403534 
L 471.154915 512.403833 
L 470.163806 512.96084 
L 471.073449 513.860532 
L 471.888172 514.878563 
L 475.537984 514.290519 
L 475.280834 517.031957 
L 478.50671 519.601155 
L 477.229565 519.491914 
L 478.441207 520.577654 
L 477.155503 522.858882 
L 475.320667 523.246348 
L 477.401159 523.275685 
L 478.856228 519.789605 
L 481.264093 520.589547 
L 478.121531 526.379494 
L 475.126799 537.34884 
L 471.572693 537.492061 
L 471.16429 532.101871 
L 470.421034 536.414408 
L 467.572334 538.463153 
L 461.413627 533.194265 
L 464.355315 538.792213 
L 460.136571 539.179395 
L 469.73809 541.574176 
L 474.582685 539.886207 
L 471.692358 548.246486 
L 472.770689 552.063949 
L 469.165489 552.987531 
L 469.722681 558.931256 
L 472.307823 561.235618 
L 474.287792 569.904732 
L 475.424671 573.619766 
L 473.481562 575.537341 
L 475.755094 579.633115 
L 477.919839 580.757678 
L 478.735683 588.725627 
L 482.952967 593.785488 
L 482.079227 596.794935 
L 484.65502 596.423316 
L 486.388159 598.8451 
L 480.860721 598.505771 
L 481.000685 599.699624 
L 477.893669 600.753758 
L 477.780155 603.999095 
L 475.786856 604.053309 
L 469.325541 600.215527 
L 469.924336 599.254946 
L 468.363575 598.93473 
L 466.871427 596.186989 
L 457.872609 594.709811 
L 450.821843 594.874261 
L 449.359577 596.020379 
L 449.054595 594.617483 
L 444.264054 595.167708 
L 440.50653 593.294773 
L 441.33116 592.251136 
L 440.468847 591.725755 
L 439.027835 592.704929 
L 438.209808 590.590099 
L 436.688231 590.732445 
L 433.836634 587.839227 
L 432.416149 588.734713 
L 427.836342 586.131245 
L 424.668635 587.002254 
L 418.817941 581.054551 
L 415.19781 581.758309 
L 413.945646 580.189087 
L 407.119275 579.154643 
L 407.307878 576.042661 
L 404.554742 573.470363 
L 404.659364 571.925628 
L 399.713716 559.422053 
L 395.436623 555.414738 
L 395.335497 553.205385 
L 392.805074 551.723489 
L 393.49018 544.016803 
L 392.339337 540.830238 
L 389.169765 538.642136 
L 391.275465 530.861915 
L 389.813344 530.257612 
L 388.889749 525.370173 
L 382.236151 523.183464 
L 378.158037 517.840903 
L 375.788212 517.050819 
L 373.089367 508.514223 
L 371.027977 507.766677 
L 366.883533 500.959159 
L 362.202367 498.802397 
L 361.830536 497.018413 
L 358.860135 495.256435 
L 359.065738 493.451979 
L 356.733557 490.114635 
L 355.741171 486.30069 
L 356.978718 485.305083 
L 354.047821 483.338002 
L 354.706925 481.286094 
L 350.949477 478.056637 
L 347.350041 467.519238 
L 345.077838 466.237963 
L 344.265997 459.120154 
L 340.338031 455.193924 
L 339.239416 451.762094 
L 330.90643 445.798081 
L 328.647474 441.254398 
L 321.018183 438.787859 
L 321.340423 434.180074 
L 319.174301 436.311972 
L 319.333307 433.089079 
L 316.873271 432.846048 
L 315.046098 428.843085 
L 315.643273 427.747378 
L 313.783352 428.14357 
L 312.933248 426.865189 
L 310.247957 427.986129 
L 310.057081 425.859778 
L 308.552342 427.866033 
L 306.258468 428.201856 
L 301.582696 426.767933 
L 299.764189 427.061772 
L 299.243191 425.514511 
L 295.090521 426.599439 
" clip-path="url(#p6a919ad8de)" style="fill: #ffffff; stroke: #000000"/>
    <path d="M 481.916394 575.24143 
L 481.388836 572.493861 
L 480.403509 569.757598 
L 477.97838 565.041702 
L 476.910708 559.926844 
L 476.23587 555.350786 
L 475.807787 546.810256 
L 476.201024 542.71589 
L 476.611996 542.579741 
L 476.38786 547.428292 
L 476.772777 554.116422 
L 477.874502 560.704349 
L 480.618964 569.768275 
L 483.414355 577.951572 
L 485.107282 585.094914 
L 486.262879 593.276402 
L 485.961803 593.54651 
L 484.549743 585.502515 
L 483.72936 581.090643 
L 482.634116 577.918547 
L 481.916394 575.24143 
" clip-path="url(#p6a919ad8de)" style="fill: #ffffff; stroke: #000000"/>
    <path d="M 488.127399 514.884551 
L 486.603788 514.566076 
L 488.976008 513.99512 
L 482.442061 525.745113 
L 477.310178 538.982221 
L 476.571365 542.309459 
L 476.624425 538.956798 
L 478.091345 531.867457 
L 481.430359 525.448655 
L 480.94862 522.271859 
L 483.20828 524.007164 
L 484.440671 519.668063 
L 488.127399 514.884551 
" clip-path="url(#p6a919ad8de)" style="fill: #ffffff; stroke: #000000"/>
    <path d="M 493.263103 504.151207 
L 495.857058 500.2201 
L 497.294668 501.513681 
L 496.706919 503.897738 
L 489.122189 513.518002 
L 490.042618 510.178178 
L 492.962593 506.931697 
L 491.996728 506.221219 
L 493.263103 504.151207 
" clip-path="url(#p6a919ad8de)" style="fill: #ffffff; stroke: #000000"/>
    <path d="M 498.546138 498.303276 
L 501.126356 497.71436 
L 509.198808 491.38742 
L 511.944791 490.957764 
L 513.464855 487.947318 
L 514.515836 489.971169 
L 497.452626 503.11257 
L 498.546138 498.303276 
" clip-path="url(#p6a919ad8de)" style="fill: #ffffff; stroke: #000000"/>
    <path d="M 571.828815 446.562433 
L 577.416393 442.469569 
L 578.214451 443.468104 
L 564.565814 454.141108 
L 571.828815 446.562433 
" clip-path="url(#p6a919ad8de)" style="fill: #ffffff; stroke: #000000"/>
   </g>
   <g id="LineCollection_1">
    <path d="M 526.471355 358.188766 
L 526.121544 358.124638 
L 524.63279 352.819954 
L 522.419552 349.579555 
L 527.297639 345.395316 
L 531.02111 343.209103 
L 532.471908 340.584074 
L 534.089001 340.021863 
L 535.90572 337.550931 
L 537.910161 336.040923 
L 538.473205 334.740326 
L 539.056512 334.554735 
L 540.824344 330.433518 
L 542.005469 328.70443 
L 542.718673 322.823159 
L 543.293312 321.873852 
L 544.145394 317.745991 
L 544.948915 317.032848 
L 547.970062 311.597231 
L 550.233358 308.77886 
L 550.640876 308.816898 
L 550.603177 307.905096 
" clip-path="url(#p6a919ad8de)" style="fill: none; stroke: #808080; stroke-width: 1.5"/>
    <path d="M 345.6905 392.101068 
L 346.585519 379.954756 
L 348.017157 378.01106 
L 348.472704 373.275858 
L 350.899642 369.910747 
L 350.953101 364.838816 
L 353.638836 358.215533 
L 354.017297 354.999658 
L 356.319864 355.202554 
L 355.85138 351.102508 
L 356.538999 346.727063 
L 359.773869 339.31781 
L 360.148758 326.893414 
L 362.777202 324.383591 
L 365.899455 323.188411 
L 368.931515 317.628807 
L 373.733263 314.688078 
L 374.969601 312.289066 
L 380.414127 307.430584 
" clip-path="url(#p6a919ad8de)" style="fill: none; stroke: #808080; stroke-width: 1.5"/>
    <path d="M 299.777792 256.442788 
L 300.67501 256.467042 
L 301.477633 253.543156 
L 301.115988 234.660956 
L 305.062966 230.979626 
L 305.132072 227.93752 
L 306.6986 226.142872 
L 304.253914 219.492075 
L 303.760684 210.609026 
L 301.85889 204.186831 
L 301.96917 194.167213 
L 299.430787 190.460663 
L 299.871417 186.221114 
L 302.422181 183.539431 
L 302.722758 182.234982 
" clip-path="url(#p6a919ad8de)" style="fill: none; stroke: #808080; stroke-width: 1.5"/>
    <path d="M 568.322233 425.159852 
L 568.172088 424.946085 
L 568.320106 424.716172 
L 568.312859 424.524197 
L 569.031866 424.427756 
L 569.657994 424.211161 
L 570.156623 424.10563 
L 570.345537 423.963756 
L 570.461561 423.715198 
L 570.710444 423.397148 
L 570.844587 422.574567 
L 571.054889 422.097515 
L 571.361941 420.478112 
L 571.318016 419.967766 
L 571.499874 419.941699 
" clip-path="url(#p6a919ad8de)" style="fill: none; stroke: #808080; stroke-width: 1.5"/>
    <path d="M 391.025597 529.388933 
L 391.44768 523.887615 
L 393.979366 517.335524 
L 403.266336 477.325357 
L 404.97545 474.119612 
L 406.240222 468.997975 
L 405.86026 467.424901 
L 408.436959 461.405608 
L 414.153048 457.111707 
L 419.202516 451.701455 
L 428.855238 446.526448 
L 430.164998 443.273803 
" clip-path="url(#p6a919ad8de)" style="fill: none; stroke: #808080; stroke-width: 1.5"/>
    <path d="M 299.777792 256.442788 
L 301.042128 256.47365 
L 301.01613 261.289951 
L 302.370381 265.186958 
L 302.091379 281.617689 
L 296.404951 293.083727 
L 297.294859 295.037428 
L 296.053428 295.767919 
L 293.017254 303.221521 
L 287.593012 311.945825 
L 290.936655 326.937216 
" clip-path="url(#p6a919ad8de)" style="fill: none; stroke: #808080; stroke-width: 1.5"/>
    <path d="M 514.752612 388.479975 
L 515.1357 388.076948 
L 515.43034 388.117654 
L 515.358017 387.696703 
L 512.614334 383.970041 
L 514.181121 381.871007 
L 516.112083 380.043773 
L 517.665168 378.092082 
L 518.287979 376.602531 
L 519.052414 375.703221 
L 519.63457 375.083025 
L 522.366049 373.63262 
L 522.956833 373.669692 
L 523.364793 373.427628 
L 526.962841 373.719376 
L 529.578771 371.960782 
L 529.032884 369.024789 
L 528.14889 367.775975 
L 526.81062 364.287947 
L 525.863471 360.443763 
L 526.113878 358.28997 
L 526.471355 358.188766 
" clip-path="url(#p6a919ad8de)" style="fill: none; stroke: #808080; stroke-width: 1.5"/>
    <path d="M 609.558021 405.609906 
L 609.402215 405.70814 
L 609.409801 405.893735 
L 609.460134 406.401817 
L 609.609173 406.399402 
L 609.555152 406.696853 
L 609.772013 408.801611 
L 610.349627 409.314457 
L 611.104846 409.276909 
L 612.041608 409.48023 
L 612.080768 410.039592 
L 611.292851 411.070595 
L 611.023149 412.948799 
L 609.131768 415.737091 
" clip-path="url(#p6a919ad8de)" style="fill: none; stroke: #808080; stroke-width: 1.5"/>
    <path d="M 571.389309 440.38883 
L 570.045704 440.434066 
L 570.326801 442.090663 
L 567.847521 442.25881 
L 567.593786 442.667581 
L 567.018303 442.498647 
L 565.874337 443.96837 
L 564.129725 444.581009 
L 558.606475 450.902926 
L 558.382564 452.385461 
L 559.086909 452.983221 
L 555.312452 456.748845 
L 555.91086 457.59917 
L 555.950881 459.025443 
L 554.783159 461.026433 
" clip-path="url(#p6a919ad8de)" style="fill: none; stroke: #808080; stroke-width: 1.5"/>
    <path d="M 514.752612 388.479975 
L 515.314453 388.534063 
L 523.028884 396.381331 
L 524.120476 396.899649 
L 524.429621 398.035621 
L 526.130744 398.278767 
L 527.302431 398.973499 
L 528.455528 398.822863 
L 530.006771 400.865068 
L 534.068433 401.39084 
L 535.897475 403.269255 
L 537.331637 403.391848 
L 537.647482 404.147699 
L 539.956046 406.305208 
L 542.101794 411.073946 
L 544.953753 415.559353 
L 548.958207 418.657474 
L 550.260842 418.615603 
L 551.060962 419.689482 
L 552.596802 422.485374 
L 552.937092 424.78716 
" clip-path="url(#p6a919ad8de)" style="fill: none; stroke: #808080; stroke-width: 1.5"/>
    <path d="M 558.353096 390.692096 
L 558.727703 392.699066 
L 560.114424 394.251273 
L 561.490959 394.338226 
L 562.658428 397.54837 
L 561.89565 399.816166 
L 557.784986 407.369954 
L 555.442713 416.428453 
L 559.157058 416.91393 
L 559.172651 418.625254 
L 561.642837 424.369839 
L 561.443487 426.547561 
L 562.977332 426.517848 
L 566.261014 427.411202 
L 566.414182 428.417544 
L 566.823609 428.376824 
" clip-path="url(#p6a919ad8de)" style="fill: none; stroke: #808080; stroke-width: 1.5"/>
    <path d="M 546.804334 406.319685 
L 547.653488 405.550749 
L 547.632692 404.908135 
L 548.649232 404.72597 
L 548.482265 401.573308 
L 547.316398 398.443426 
L 547.09259 395.998668 
L 546.704951 394.642674 
L 546.553001 390.05796 
L 546.95202 389.893166 
L 547.583269 390.147081 
L 548.028345 389.94429 
L 550.783671 390.391385 
L 552.855187 390.253609 
L 554.203174 389.345102 
L 556.448688 388.432513 
L 556.632713 389.257703 
L 557.33105 390.013696 
L 557.797348 390.11758 
L 557.887726 390.630281 
L 558.131699 390.508173 
L 558.353096 390.692096 
" clip-path="url(#p6a919ad8de)" style="fill: none; stroke: #808080; stroke-width: 1.5"/>
    <path d="M 505.269718 479.514934 
L 504.203369 478.368382 
L 494.936642 485.235325 
L 492.483943 493.544445 
L 491.242178 495.850098 
L 490.576898 499.828937 
L 489.336501 502.271687 
L 489.203917 503.560374 
L 488.324582 503.496425 
L 484.666877 509.86233 
L 480.360693 509.857943 
L 479.107723 510.52167 
L 478.312598 511.964279 
L 475.698522 514.234128 
L 475.032107 517.387564 
" clip-path="url(#p6a919ad8de)" style="fill: none; stroke: #808080; stroke-width: 1.5"/>
    <path d="M 442.96781 588.481521 
L 442.886422 589.120902 
L 438.74099 588.628821 
L 437.431078 587.283859 
L 431.676116 586.66636 
L 429.564511 585.454996 
L 421.500145 582.320885 
L 419.391792 580.911382 
L 416.604212 581.191911 
L 413.860754 579.668053 
L 410.919309 579.868765 
L 410.243475 577.323291 
L 407.836802 574.33614 
L 407.829716 570.438643 
L 406.142131 562.382838 
L 403.756167 560.20477 
L 401.074655 559.098875 
L 400.511004 557.503844 
L 398.864519 555.566163 
L 397.495243 555.200087 
L 395.544551 552.55867 
L 393.561671 551.209927 
L 394.063079 548.280322 
L 394.097977 540.595548 
L 391.721251 534.658605 
L 392.157509 530.358325 
L 391.93929 529.697515 
L 391.025597 529.388933 
" clip-path="url(#p6a919ad8de)" style="fill: none; stroke: #808080; stroke-width: 1.5"/>
    <path d="M 550.603177 307.905096 
L 550.563118 307.528655 
L 549.371236 307.086968 
L 549.290995 306.355642 
L 547.054281 302.745694 
L 544.269898 302.786821 
L 535.535827 301.140279 
L 527.165537 297.717119 
L 512.930995 293.596416 
L 509.5465 291.926137 
L 506.182225 291.919709 
L 504.342292 290.606677 
L 497.362438 289.60232 
L 494.197306 290.0998 
L 492.816316 290.809868 
" clip-path="url(#p6a919ad8de)" style="fill: none; stroke: #808080; stroke-width: 1.5"/>
    <path d="M 564.165141 435.637017 
L 562.856354 436.043041 
L 561.738988 436.578005 
L 560.938874 436.362625 
L 560.478172 435.724234 
L 559.958849 436.187833 
L 559.351058 436.958574 
L 559.227178 437.45515 
L 558.612435 438.588217 
L 559.089134 439.30836 
L 559.074374 439.879511 
L 558.882925 440.381398 
L 558.369506 440.809561 
L 556.771343 444.22237 
L 554.835992 446.832243 
L 552.933169 449.847372 
L 552.659499 449.783689 
L 551.495654 449.872856 
L 551.051318 450.201391 
L 550.288321 450.233754 
L 549.926212 450.581849 
L 549.392084 450.577976 
L 548.822856 450.991001 
" clip-path="url(#p6a919ad8de)" style="fill: none; stroke: #808080; stroke-width: 1.5"/>
    <path d="M 514.752612 388.479975 
L 515.43034 388.117654 
L 515.365648 387.713676 
L 512.904014 384.289759 
L 511.494184 383.001465 
L 510.362487 382.989046 
L 507.701737 381.090984 
L 505.465137 378.166247 
L 503.753669 376.862052 
L 502.791218 375.127058 
L 498.834537 370.373639 
L 498.161975 365.056382 
L 495.116441 360.886014 
L 492.55187 359.530319 
L 491.784421 358.453059 
L 491.717821 356.896331 
L 490.025318 352.626526 
L 489.301235 348.729528 
L 488.180476 347.728837 
L 486.241278 347.460014 
L 482.658843 345.900535 
L 481.798757 347.302831 
L 480.913129 346.463707 
" clip-path="url(#p6a919ad8de)" style="fill: none; stroke: #808080; stroke-width: 1.5"/>
    <path d="M 609.131768 415.737091 
L 608.02817 414.822703 
L 606.84282 416.505008 
L 604.792947 416.420667 
L 603.098259 417.842626 
L 597.122721 419.659398 
L 589.229762 420.022616 
L 579.783236 419.874498 
L 576.794363 420.107871 
L 574.967178 420.569738 
L 574.214248 419.014261 
L 573.374235 418.947523 
L 571.499874 419.941699 
" clip-path="url(#p6a919ad8de)" style="fill: none; stroke: #808080; stroke-width: 1.5"/>
    <path d="M 526.471355 358.188766 
L 524.63279 352.819954 
L 522.419552 349.579555 
L 531.02111 343.209103 
L 532.471908 340.584074 
L 534.089001 340.021863 
L 539.056512 334.554735 
L 542.005469 328.70443 
L 544.157019 317.71952 
L 549.317177 310.018464 
L 551.967741 309.505438 
L 551.726197 305.828426 
L 554.751504 303.211072 
L 555.909664 298.397543 
L 563.461777 291.065048 
L 566.090026 286.428744 
L 577.945117 282.154304 
L 591.516362 271.644795 
L 592.630901 269.549963 
L 592.234719 261.445573 
L 594.726833 256.302639 
" clip-path="url(#p6a919ad8de)" style="fill: none; stroke: #808080; stroke-width: 1.5"/>
    <path d="M 472.42906 292.387708 
L 471.251697 293.314336 
L 466.776121 293.182279 
L 465.130597 294.014226 
L 463.393894 294.019977 
L 458.447946 292.6011 
L 454.6945 293.938552 
L 451.31359 294.069014 
L 447.044709 295.895991 
L 444.209654 298.589265 
L 440.646543 301.132711 
L 438.418455 301.382417 
L 432.939511 303.963181 
L 426.83723 304.745379 
L 423.44578 305.791838 
L 422.64852 306.560088 
L 415.383772 310.397178 
L 403.503592 310.314071 
L 400.851407 310.766494 
L 382.691832 307.398294 
L 380.414127 307.430584 
" clip-path="url(#p6a919ad8de)" style="fill: none; stroke: #808080; stroke-width: 1.5"/>
    <path d="M 562.853738 423.573702 
L 562.851409 423.53179 
L 562.470432 423.552981 
L 562.466245 423.484977 
L 561.311767 423.863395 
L 560.208164 423.939496 
L 559.503328 423.922437 
L 558.773091 424.010156 
L 558.084052 423.885413 
L 557.455877 423.913267 
L 556.393392 423.766187 
L 555.946234 423.790041 
L 555.518945 423.969858 
L 554.682125 424.015217 
L 554.145726 424.265855 
L 553.579916 424.244164 
L 553.242901 424.390435 
L 553.013934 424.302413 
L 552.929104 424.506011 
L 552.76395 424.649625 
L 552.937092 424.78716 
" clip-path="url(#p6a919ad8de)" style="fill: none; stroke: #808080; stroke-width: 1.5"/>
    <path d="M 472.42906 292.387708 
L 472.960419 291.7383 
L 472.84883 286.313502 
L 468.883292 282.69668 
L 467.929194 280.285162 
L 466.571311 279.064502 
L 466.781785 276.804862 
L 465.639576 274.867471 
L 462.288498 271.681497 
L 458.627198 266.046845 
L 457.758656 265.599146 
L 457.45373 264.472075 
L 454.989066 261.340091 
L 452.848218 257.662483 
L 449.884874 255.358942 
L 444.756867 252.526895 
L 442.915092 250.422451 
L 441.224278 247.239293 
L 438.037429 245.508337 
L 437.743452 244.929907 
L 433.158538 242.842821 
L 428.082271 242.077913 
L 427.172149 241.455744 
" clip-path="url(#p6a919ad8de)" style="fill: none; stroke: #808080; stroke-width: 1.5"/>
    <path d="M 290.936655 326.937216 
L 300.460998 321.861156 
L 301.400797 320.802011 
L 303.287619 320.69758 
L 307.690461 318.913609 
L 310.508896 317.131622 
L 312.232487 316.679607 
L 313.177459 315.432486 
L 317.70063 315.115438 
L 323.922898 313.444732 
L 324.798591 312.667456 
L 332.058429 311.43976 
L 334.04473 310.004563 
L 336.079784 309.710061 
L 337.366305 308.978267 
L 338.126357 308.851942 
L 339.462939 309.548267 
L 343.342247 308.7617 
L 344.710764 309.150674 
L 352.930952 307.089774 
L 355.674912 307.221074 
L 357.059145 305.735726 
L 360.491032 305.183022 
L 363.11004 305.69712 
L 365.96122 305.215765 
L 366.709535 305.677274 
L 370.662394 306.094175 
L 373.570528 306.866356 
L 380.414127 307.430584 
" clip-path="url(#p6a919ad8de)" style="fill: none; stroke: #808080; stroke-width: 1.5"/>
    <path d="M 559.301869 427.568689 
L 559.296077 427.489786 
L 559.243827 427.492416 
L 559.195838 427.583221 
L 558.893307 427.600495 
L 558.847586 427.762951 
L 558.19865 428.531473 
L 557.3514 428.592516 
L 557.226922 428.672775 
L 557.243615 429.14224 
L 557.1811 429.397413 
L 557.23493 430.300542 
L 557.1628 430.575669 
L 556.431259 430.65127 
L 556.514624 433.424027 
" clip-path="url(#p6a919ad8de)" style="fill: none; stroke: #808080; stroke-width: 1.5"/>
    <path d="M 302.722758 182.234982 
L 299.849127 186.248943 
L 299.419125 190.461907 
L 301.957163 194.175149 
L 301.847135 204.189074 
L 306.687135 226.112884 
L 305.046135 230.984688 
L 301.099384 234.709538 
L 302.091379 281.617689 
L 296.404951 293.083727 
L 297.294859 295.037428 
L 287.593012 311.945825 
L 290.936655 326.937216 
" clip-path="url(#p6a919ad8de)" style="fill: none; stroke: #808080; stroke-width: 1.5"/>
    <path d="M 380.414127 307.430584 
L 379.008215 307.142729 
L 380.289659 304.195222 
L 377.970328 300.864426 
L 374.727829 294.356375 
L 374.711411 292.57858 
L 375.764032 290.914721 
L 375.786868 288.537135 
L 377.842621 285.110483 
L 379.516014 280.808989 
L 380.261182 277.174562 
L 381.064866 276.010919 
L 381.177604 274.182347 
L 382.912119 268.966843 
L 382.945348 267.847029 
L 385.176892 262.266777 
L 388.847017 261.487175 
L 397.601783 257.071748 
L 397.966732 256.298919 
L 399.333664 256.019293 
L 399.466186 254.461835 
L 402.985432 252.197359 
L 405.446499 251.378522 
L 409.213802 251.078996 
L 411.639646 249.202449 
L 419.135056 245.722413 
L 421.738876 243.585656 
L 425.635648 242.400524 
L 427.172149 241.455744 
" clip-path="url(#p6a919ad8de)" style="fill: none; stroke: #808080; stroke-width: 1.5"/>
    <path d="M 459.049381 404.618489 
L 459.409034 404.795127 
L 459.405198 405.830669 
L 457.414775 409.474008 
L 454.345824 417.08258 
L 454.021734 419.215724 
L 453.054149 421.41803 
L 448.578724 426.24988 
L 445.717779 430.683156 
L 443.854376 431.450445 
L 434.36868 438.211192 
L 433.33617 441.864503 
L 432.181032 442.56317 
L 430.513793 442.56354 
L 430.164998 443.273803 
" clip-path="url(#p6a919ad8de)" style="fill: none; stroke: #808080; stroke-width: 1.5"/>
    <path d="M 594.726833 256.302639 
L 594.637289 256.789151 
L 594.008095 257.029725 
L 594.042578 258.703369 
L 592.219277 261.477662 
L 592.630901 269.549963 
L 591.490256 271.639305 
L 589.974406 272.34871 
L 584.963036 276.942029 
L 582.279385 278.219152 
L 577.945117 282.154304 
L 574.637503 283.234257 
L 572.157939 284.544808 
L 566.077487 286.438719 
L 565.554361 287.567723 
L 564.01518 289.043751 
L 563.440424 291.048057 
L 555.925037 298.375018 
L 554.751504 303.211072 
L 554.031681 304.453691 
L 551.647118 305.900787 
L 550.603177 307.905096 
" clip-path="url(#p6a919ad8de)" style="fill: none; stroke: #808080; stroke-width: 1.5"/>
    <path d="M 558.353096 390.692096 
L 558.131699 390.508173 
L 557.887726 390.630281 
L 557.797348 390.11758 
L 557.33105 390.013696 
L 556.632713 389.257703 
L 556.448688 388.432513 
L 554.203174 389.345102 
L 552.827154 390.257592 
L 550.783671 390.391385 
L 548.028345 389.94429 
L 547.535532 390.143944 
L 546.468824 389.521998 
L 546.175827 388.62813 
L 545.680214 384.48348 
L 545.282439 383.715468 
L 544.015162 382.99142 
L 542.70247 381.254365 
L 538.97847 378.643788 
L 537.335615 376.835424 
L 536.057433 375.80856 
L 534.388601 373.632278 
L 530.881087 371.454594 
L 528.196619 367.868813 
L 526.799448 364.256147 
L 525.848617 360.37312 
L 526.113878 358.28997 
L 526.471355 358.188766 
" clip-path="url(#p6a919ad8de)" style="fill: none; stroke: #808080; stroke-width: 1.5"/>
    <path d="M 562.634992 426.783554 
L 562.645995 427.024419 
L 561.460636 426.994349 
L 561.392917 429.6719 
L 560.823091 430.367227 
L 559.649251 431.390694 
L 562.854583 434.911791 
L 563.407247 435.875469 
L 564.165141 435.637017 
" clip-path="url(#p6a919ad8de)" style="fill: none; stroke: #808080; stroke-width: 1.5"/>
    <path d="M 558.353096 390.692096 
L 558.501389 391.356531 
L 558.749093 391.532161 
L 558.32183 391.869216 
L 558.727703 392.699066 
L 559.273636 393.550237 
L 560.114424 394.251273 
L 560.657313 394.493368 
L 561.490959 394.338226 
L 562.658428 397.54837 
L 561.89565 399.816166 
L 560.127538 402.726592 
L 557.770566 407.410105 
L 556.705106 412.519812 
L 554.844249 418.27989 
L 554.103572 419.943319 
L 553.97631 424.170491 
L 553.00468 424.306096 
L 552.76395 424.649625 
L 552.937092 424.78716 
" clip-path="url(#p6a919ad8de)" style="fill: none; stroke: #808080; stroke-width: 1.5"/>
    <path d="M 568.322233 425.159852 
L 568.239025 426.104498 
L 567.412372 426.188661 
L 566.80913 426.696919 
L 566.344783 427.271944 
L 566.467616 429.695975 
L 566.317412 430.338199 
L 566.763419 432.999341 
L 566.999659 433.898029 
L 569.178041 437.746183 
L 569.72929 439.726749 
L 570.004267 440.161752 
L 570.045898 440.440015 
L 571.446272 440.466911 
L 571.389309 440.38883 
" clip-path="url(#p6a919ad8de)" style="fill: none; stroke: #808080; stroke-width: 1.5"/>
    <path d="M 571.499874 419.941699 
L 571.318016 419.967766 
L 571.366754 420.442687 
L 571.213258 421.117332 
L 570.447601 421.199386 
L 569.528563 421.68134 
L 566.920686 422.299588 
L 566.292968 422.356421 
L 565.29614 422.812933 
L 565.106551 422.813537 
L 564.676076 422.633295 
L 564.489409 422.64358 
L 563.150706 423.1417 
L 563.207281 423.321915 
L 562.853738 423.573702 
" clip-path="url(#p6a919ad8de)" style="fill: none; stroke: #808080; stroke-width: 1.5"/>
    <path d="M 475.032107 517.387564 
L 473.521626 516.400872 
L 465.748269 516.698529 
L 460.415189 515.537568 
L 453.728257 517.215599 
L 450.208483 517.110363 
L 448.27658 518.564457 
L 445.482394 545.330129 
L 446.293983 558.287818 
L 447.868355 562.760001 
L 447.52784 568.592874 
L 446.145337 585.107065 
L 444.904003 588.246812 
L 442.96781 588.481521 
" clip-path="url(#p6a919ad8de)" style="fill: none; stroke: #808080; stroke-width: 1.5"/>
    <path d="M 594.726833 256.302639 
L 594.361075 256.638659 
L 593.867453 256.09383 
L 587.485449 255.340225 
L 584.859425 255.846874 
L 580.779469 255.712347 
L 577.8361 257.469245 
L 571.01978 264.178072 
L 568.28989 264.839861 
L 564.785463 267.505903 
L 563.542301 269.0135 
L 559.067837 271.088483 
L 545.628719 271.321213 
L 543.343178 272.252333 
L 539.193385 272.555671 
L 537.959816 273.884966 
L 533.17211 273.931278 
L 530.627046 273.486532 
L 519.807567 273.696376 
L 515.136714 278.999471 
L 512.957217 280.630823 
L 510.290739 281.5007 
L 508.210041 283.396582 
L 505.99874 284.219529 
L 497.343665 289.606676 
L 494.197306 290.0998 
L 492.816316 290.809868 
" clip-path="url(#p6a919ad8de)" style="fill: none; stroke: #808080; stroke-width: 1.5"/>
    <path d="M 279.659931 333.552634 
L 273.936983 336.897252 
L 270.200282 338.526215 
L 262.782611 343.326976 
L 261.046068 343.868512 
L 259.753286 345.093392 
L 257.132571 345.202752 
L 242.219921 349.293332 
L 239.426551 351.712411 
L 235.515963 352.664706 
L 233.294757 352.116 
L 226.02351 354.881634 
L 221.562793 357.905885 
L 212.890289 365.960513 
L 211.725927 365.894159 
L 209.417225 366.873761 
L 199.563648 365.904728 
L 186.875102 366.772724 
L 183.304625 366.613475 
" clip-path="url(#p6a919ad8de)" style="fill: none; stroke: #808080; stroke-width: 1.5"/>
    <path d="M 552.937092 424.78716 
L 552.662895 423.893255 
L 549.180111 423.781949 
L 528.711833 424.656651 
L 516.904118 426.509419 
L 506.833144 429.488621 
L 483.283814 429.950302 
L 469.756709 432.402856 
L 462.450372 432.463123 
L 457.290462 434.20574 
L 450.74297 435.076888 
L 447.845654 437.354523 
L 439.54444 440.780335 
L 432.475829 443.439693 
L 430.164998 443.273803 
" clip-path="url(#p6a919ad8de)" style="fill: none; stroke: #808080; stroke-width: 1.5"/>
    <path d="M 505.269718 479.514934 
L 504.302422 478.375164 
L 501.606814 478.149246 
L 489.930141 470.258455 
L 489.350818 468.159675 
L 484.296147 462.997686 
L 482.640583 459.797383 
L 480.80658 458.36601 
L 478.102237 457.273819 
L 477.91664 457.712965 
L 476.417474 457.45223 
L 475.548993 457.812182 
L 471.883203 454.787823 
L 471.033437 452.91194 
L 469.305371 452.571854 
L 466.937505 450.375336 
L 460.812387 449.401607 
L 451.439224 451.854789 
L 448.692798 450.964018 
L 446.894297 449.041459 
L 445.313115 446.211744 
L 438.353502 445.519144 
L 434.40299 444.392423 
L 434.297124 443.249957 
L 430.164998 443.273803 
" clip-path="url(#p6a919ad8de)" style="fill: none; stroke: #808080; stroke-width: 1.5"/>
    <path d="M 505.269718 479.514934 
L 505.217897 479.016696 
L 504.848414 478.522079 
L 505.221769 478.175301 
L 505.026597 477.873306 
L 505.207193 477.341657 
L 506.99039 475.752054 
L 512.279598 472.657287 
L 514.162477 472.21925 
L 515.216322 472.763682 
L 515.995094 471.134583 
L 518.312235 468.512399 
L 519.536821 466.233827 
L 521.238185 466.061252 
L 521.903131 465.503263 
L 523.654991 464.799851 
L 528.83253 460.669339 
L 531.737984 460.625829 
L 533.103768 459.618277 
L 535.630765 456.830416 
L 538.218773 456.337301 
L 538.739326 455.907943 
L 539.759934 455.743393 
L 541.38629 455.095642 
L 541.812508 454.713773 
L 542.157442 453.852109 
L 542.822624 453.20739 
L 543.887568 455.203297 
L 545.969546 456.574794 
L 546.434752 457.785794 
L 548.45778 459.826706 
L 549.637018 459.868405 
L 551.288314 460.462808 
L 552.743058 460.535046 
L 553.691455 461.305459 
L 554.637764 461.55802 
L 554.783159 461.026433 
" clip-path="url(#p6a919ad8de)" style="fill: none; stroke: #808080; stroke-width: 1.5"/>
    <path d="M 546.804334 406.319685 
L 546.62166 406.747258 
L 546.858236 407.658603 
L 546.858408 409.868238 
L 544.980027 410.784788 
L 543.991316 411.923246 
L 542.748174 412.058128 
L 544.888086 415.477669 
L 545.684028 416.168018 
L 545.535936 416.379876 
L 545.677483 417.345389 
L 545.242381 417.773162 
L 545.596924 419.654687 
L 545.03333 420.221306 
L 545.598164 429.502768 
L 543.999452 431.31202 
L 543.938482 431.123629 
L 542.685502 431.472913 
" clip-path="url(#p6a919ad8de)" style="fill: none; stroke: #808080; stroke-width: 1.5"/>
    <path d="M 562.853738 423.573702 
L 562.860313 423.5346 
L 562.800395 423.534636 
L 562.789919 423.366501 
L 563.057596 423.20892 
L 563.72813 422.915446 
L 564.64952 422.636243 
L 565.095646 422.817907 
L 565.41375 422.838117 
L 566.478259 423.290869 
L 567.280983 424.107938 
L 567.783174 424.414114 
L 567.92159 424.672158 
L 567.659355 425.21138 
L 567.7922 425.604941 
L 567.765425 425.778694 
L 567.52281 426.109819 
L 567.022693 426.483724 
L 566.472091 427.039241 
L 566.344783 427.271944 
L 566.414182 428.417544 
L 566.823609 428.376824 
" clip-path="url(#p6a919ad8de)" style="fill: none; stroke: #808080; stroke-width: 1.5"/>
    <path d="M 571.389309 440.38883 
L 566.886797 440.114241 
L 566.297624 440.7262 
L 564.005223 440.916563 
L 563.711106 441.375989 
L 559.093965 439.651018 
L 556.781462 444.205555 
L 551.873133 451.628552 
L 546.551317 452.86159 
L 543.018093 452.905431 
L 541.377303 455.085748 
L 535.597126 456.837327 
L 531.734834 460.62757 
L 528.810352 460.665041 
L 523.654991 464.799851 
L 521.257279 466.008834 
L 519.536821 466.233827 
L 515.216322 472.763682 
L 514.162477 472.21925 
L 512.279598 472.657287 
L 506.812902 475.877694 
L 505.207193 477.341657 
L 504.848414 478.522079 
L 505.269718 479.514934 
" clip-path="url(#p6a919ad8de)" style="fill: none; stroke: #808080; stroke-width: 1.5"/>
    <path d="M 475.032107 517.387564 
L 473.521626 516.400872 
L 465.748269 516.698529 
L 464.927492 516.600834 
L 464.733512 516.021643 
L 460.415189 515.537568 
L 453.728257 517.215599 
L 450.208483 517.110363 
L 448.487174 518.496255 
L 447.517775 518.730845 
L 442.946414 518.360803 
L 434.893991 516.42215 
L 427.565321 512.873973 
L 425.368379 512.90523 
L 421.014015 514.709183 
L 418.980862 516.953178 
L 411.555245 520.627041 
L 404.519147 523.221831 
L 400.470802 526.083162 
L 395.092738 527.72439 
L 393.567405 529.160171 
L 391.190928 529.077594 
L 391.025597 529.388933 
" clip-path="url(#p6a919ad8de)" style="fill: none; stroke: #808080; stroke-width: 1.5"/>
    <path d="M 279.659931 333.552634 
L 281.944813 332.295301 
L 284.342044 325.673568 
L 290.316196 322.458634 
L 287.60281 311.907184 
L 297.294859 295.037428 
L 296.402343 293.09108 
L 302.10367 281.589059 
L 301.108018 234.723683 
L 305.062966 230.979626 
L 306.700247 226.097053 
L 301.85889 204.186831 
L 301.96917 194.167213 
L 299.430787 190.460663 
L 299.871417 186.221114 
L 302.722758 182.234982 
" clip-path="url(#p6a919ad8de)" style="fill: none; stroke: #808080; stroke-width: 1.5"/>
    <path d="M 279.659931 333.552634 
L 280.122937 334.371424 
L 280.572858 334.235615 
L 282.027132 332.797585 
L 283.66493 331.819156 
L 289.303328 328.555936 
L 291.075534 328.099149 
L 290.936782 327.540781 
L 290.936655 326.937216 
" clip-path="url(#p6a919ad8de)" style="fill: none; stroke: #808080; stroke-width: 1.5"/>
    <path d="M 458.887941 366.473382 
L 460.419338 367.408401 
L 463.215127 368.061154 
L 465.648873 369.107182 
L 467.370336 369.06964 
L 469.023965 369.462715 
L 470.275472 368.755661 
L 471.356236 367.67849 
L 473.054215 366.988537 
L 473.464337 365.955054 
L 474.163117 365.562253 
L 475.349619 361.783015 
L 478.126363 356.323885 
L 478.801154 353.199768 
L 481.602484 347.106495 
L 480.913129 346.463707 
" clip-path="url(#p6a919ad8de)" style="fill: none; stroke: #808080; stroke-width: 1.5"/>
    <path d="M 473.492159 601.014232 
L 473.378081 600.350457 
L 472.854195 599.695123 
L 471.74476 597.020302 
L 471.509394 595.743238 
L 470.290994 594.562083 
L 468.656046 592.330573 
L 467.522053 591.734179 
L 463.870432 588.803159 
L 461.525422 588.920289 
L 459.799689 589.901257 
L 456.281959 590.293546 
L 455.035608 590.653412 
L 453.177117 589.729812 
L 451.772522 589.73861 
L 446.512082 588.863141 
L 445.723401 588.434537 
L 444.703686 588.29316 
L 444.031191 588.710363 
L 442.96781 588.481521 
" clip-path="url(#p6a919ad8de)" style="fill: none; stroke: #808080; stroke-width: 1.5"/>
    <path d="M 562.634992 426.783554 
L 562.616213 426.491587 
L 559.980571 426.547332 
L 558.758935 426.737071 
L 558.501718 426.861565 
L 557.900139 426.952575 
L 556.991782 426.841962 
L 556.379812 427.32585 
L 556.167186 427.384983 
L 553.342061 425.49411 
L 552.750293 425.163123 
L 552.686858 425.061683 
L 552.674343 424.84868 
L 552.761485 424.574912 
L 552.96036 424.704643 
L 552.937092 424.78716 
" clip-path="url(#p6a919ad8de)" style="fill: none; stroke: #808080; stroke-width: 1.5"/>
    <path d="M 566.823609 428.376824 
L 566.414182 428.417544 
L 566.467616 429.695975 
L 566.316262 430.317039 
L 566.451925 431.211995 
L 566.572392 431.614881 
L 566.581357 432.044005 
L 566.763419 432.999341 
L 566.955042 433.804902 
L 567.122098 434.126428 
L 566.776048 434.440785 
L 566.136504 434.668114 
L 564.865388 434.908287 
L 564.165141 435.637017 
" clip-path="url(#p6a919ad8de)" style="fill: none; stroke: #808080; stroke-width: 1.5"/>
    <path d="M 472.42906 292.387708 
L 472.918146 292.477598 
L 473.180695 301.471514 
L 473.888935 303.263843 
L 477.564691 308.68073 
L 482.36904 323.595207 
L 482.335804 325.915428 
L 481.47531 327.594942 
L 483.043962 331.616173 
L 482.322464 335.486725 
L 482.790427 342.845576 
L 482.275026 344.851217 
L 480.913129 346.463707 
" clip-path="url(#p6a919ad8de)" style="fill: none; stroke: #808080; stroke-width: 1.5"/>
    <path d="M 554.783159 461.026433 
L 554.220319 460.873219 
L 554.312985 460.287847 
L 553.649474 458.956929 
L 552.960227 458.596619 
L 552.318782 458.600149 
L 551.911417 458.448957 
L 551.459336 457.728824 
L 550.892249 457.282725 
L 550.794751 456.671314 
L 550.92305 456.124083 
L 550.854407 453.760581 
L 550.667836 451.046038 
L 550.755533 450.822399 
L 550.189689 450.309165 
L 549.955357 450.569234 
L 549.392084 450.577976 
L 548.822856 450.991001 
" clip-path="url(#p6a919ad8de)" style="fill: none; stroke: #808080; stroke-width: 1.5"/>
    <path d="M 458.887941 366.473382 
L 453.875216 366.387767 
L 452.216346 367.544793 
L 446.973491 368.486552 
L 445.715439 369.475696 
L 444.534032 369.732497 
L 441.31718 369.197173 
L 441.091067 368.265755 
L 436.198648 365.851728 
L 433.508673 363.448491 
L 429.362521 358.002716 
L 428.359595 356.048627 
L 426.495708 354.18908 
L 425.861915 351.444597 
L 426.043691 350.761195 
L 425.411602 349.18488 
L 422.326956 347.121361 
L 420.807733 344.827415 
L 416.935185 341.56928 
L 411.406176 338.989966 
L 408.655262 339.990028 
L 404.132166 340.21515 
L 396.31382 339.00962 
L 395.508321 337.537665 
L 393.377297 335.440567 
L 392.834247 334.001434 
L 392.071301 333.783685 
L 390.710424 332.428004 
L 388.671673 329.709319 
L 386.565137 327.720425 
L 384.129444 326.634682 
L 380.631058 321.473126 
L 379.999285 317.223869 
L 380.04924 313.736794 
L 380.639779 311.998555 
L 380.640847 310.309149 
L 380.035768 309.428489 
L 380.414127 307.430584 
" clip-path="url(#p6a919ad8de)" style="fill: none; stroke: #808080; stroke-width: 1.5"/>
    <path d="M 122.871289 329.960132 
L 122.922878 329.333321 
L 122.862342 330.383314 
L 124.4309 330.26345 
L 127.231797 332.343196 
L 130.089494 335.793476 
L 134.485426 343.282282 
L 141.736253 349.314181 
L 143.379604 351.756023 
L 146.336878 354.251704 
L 146.770793 356.158111 
L 149.565024 358.901848 
L 151.547325 359.321899 
L 154.19546 358.290635 
L 156.513511 358.584342 
L 158.383562 357.57203 
L 159.571131 358.489827 
L 174.838142 364.15184 
L 180.592377 366.685073 
L 183.224938 366.915905 
L 183.304625 366.613475 
" clip-path="url(#p6a919ad8de)" style="fill: none; stroke: #808080; stroke-width: 1.5"/>
    <path d="M 473.492159 601.014232 
L 471.509394 595.743238 
L 468.656046 592.330573 
L 463.853327 588.796909 
L 455.035608 590.653412 
L 444.839199 588.309927 
L 443.489459 589.205271 
L 438.800725 588.642888 
L 437.431078 587.283859 
L 431.676116 586.66636 
L 419.391792 580.911382 
L 416.604212 581.191911 
L 413.860754 579.668053 
L 410.925883 579.875533 
L 410.243475 577.323291 
L 407.836802 574.33614 
L 406.142131 562.382838 
L 401.074655 559.098875 
L 398.864519 555.566163 
L 397.495243 555.200087 
L 393.561671 551.209927 
L 394.097977 540.595548 
L 391.721251 534.658605 
L 392.157509 530.358325 
L 391.025597 529.388933 
" clip-path="url(#p6a919ad8de)" style="fill: none; stroke: #808080; stroke-width: 1.5"/>
    <path d="M 345.6905 392.101068 
L 345.954414 392.428425 
L 348.189225 391.90975 
L 350.408635 392.304438 
L 360.104191 397.165081 
L 362.551311 397.744065 
L 370.244231 395.357101 
L 373.476653 395.202614 
L 374.718117 394.346753 
L 376.529682 393.938606 
L 379.401446 394.708115 
L 380.892471 395.762132 
L 382.102162 398.090975 
L 384.128741 399.451683 
L 385.443881 399.817235 
L 387.609374 403.360646 
L 388.625043 404.211088 
L 395.049831 408.468607 
L 400.395057 410.216281 
L 401.146094 411.830342 
L 404.664385 414.259091 
L 407.750128 414.531907 
L 408.603876 415.14234 
L 409.569558 415.208088 
L 414.068097 418.574647 
L 414.565448 419.646979 
L 416.886891 421.503379 
L 418.277427 423.459497 
L 419.681266 425.540262 
L 419.965949 426.990458 
L 423.338121 430.149091 
L 425.372524 433.850475 
L 426.561267 437.692431 
L 427.671926 438.745907 
L 428.179078 440.447701 
L 429.274869 441.056656 
L 429.390102 442.456379 
L 430.164998 443.273803 
" clip-path="url(#p6a919ad8de)" style="fill: none; stroke: #808080; stroke-width: 1.5"/>
    <path d="M 609.558021 405.609906 
L 609.522385 405.674544 
L 609.402215 405.70814 
L 609.460134 406.401817 
L 609.611024 406.418669 
L 610.38073 405.961609 
L 610.479428 405.809847 
L 610.358648 405.221206 
L 609.398603 405.240776 
L 606.986671 405.444766 
L 605.714008 405.234598 
L 605.485082 405.249215 
L 605.03221 405.529381 
L 603.255823 407.046337 
L 602.930565 407.193397 
L 601.929006 407.292836 
L 601.882569 407.371435 
L 601.893703 407.673492 
" clip-path="url(#p6a919ad8de)" style="fill: none; stroke: #808080; stroke-width: 1.5"/>
    <path d="M 568.322233 425.159852 
L 568.30628 425.106195 
L 568.044881 424.799057 
L 567.760367 424.371509 
L 567.269304 424.083962 
L 566.513524 423.308954 
L 565.589768 422.904269 
L 565.362703 422.776054 
L 565.094935 422.809951 
L 564.687435 422.636442 
L 564.489409 422.64358 
L 564.090131 422.823865 
L 563.620704 422.940172 
L 563.150706 423.1417 
L 563.156049 423.248824 
L 563.207281 423.321915 
L 562.853738 423.573702 
" clip-path="url(#p6a919ad8de)" style="fill: none; stroke: #808080; stroke-width: 1.5"/>
    <path d="M 473.492159 601.014232 
L 471.523805 595.764405 
L 468.656046 592.330573 
L 464.011621 589.073015 
L 463.648137 586.548406 
L 461.190608 582.847797 
L 461.508943 570.019712 
L 460.005946 553.092082 
L 460.045586 542.052434 
L 457.05289 531.985567 
L 457.71997 528.217819 
L 459.957887 525.421478 
L 462.423891 526.133381 
L 473.182323 525.417229 
L 473.044177 520.808044 
L 474.483564 517.165338 
L 475.032107 517.387564 
" clip-path="url(#p6a919ad8de)" style="fill: none; stroke: #808080; stroke-width: 1.5"/>
    <path d="M 546.804334 406.319685 
L 547.653488 405.550749 
L 547.632692 404.908135 
L 548.649232 404.72597 
L 548.49182 401.639869 
L 547.288749 398.299509 
L 546.685861 394.472961 
L 546.699968 390.723092 
L 545.650032 384.382027 
L 542.728971 381.275815 
L 538.97847 378.643788 
L 534.388601 373.632278 
L 530.967339 371.526071 
L 529.962554 370.433003 
L 528.171097 367.822207 
L 526.799448 364.256147 
L 525.843784 360.305092 
L 526.113878 358.28997 
L 526.471355 358.188766 
" clip-path="url(#p6a919ad8de)" style="fill: none; stroke: #808080; stroke-width: 1.5"/>
    <path d="M 562.634992 426.783554 
L 562.645995 427.024419 
L 561.460636 426.994349 
L 561.484891 427.628877 
L 561.408439 428.033387 
L 561.469288 429.314822 
L 561.38443 429.691407 
L 560.790376 430.398128 
L 560.146933 430.886414 
L 559.438498 431.525988 
L 559.173663 431.631304 
L 556.446126 431.774134 
L 556.514624 433.424027 
" clip-path="url(#p6a919ad8de)" style="fill: none; stroke: #808080; stroke-width: 1.5"/>
    <path d="M 345.6905 392.101068 
L 345.132583 391.345105 
L 341.592768 389.83785 
L 338.219984 389.624457 
L 333.666147 387.727667 
L 326.94109 385.821606 
L 325.449535 385.456092 
L 323.975142 385.643694 
L 324.243468 383.688867 
L 321.427331 382.039914 
L 315.799459 376.412237 
L 314.005741 376.013162 
L 313.910766 363.635205 
L 306.417231 361.730826 
L 297.234056 361.320664 
L 295.890054 361.805537 
L 295.471736 360.793807 
L 295.98149 350.105839 
L 292.742203 337.524561 
L 292.709873 334.709751 
L 290.936655 326.937216 
" clip-path="url(#p6a919ad8de)" style="fill: none; stroke: #808080; stroke-width: 1.5"/>
    <path d="M 546.804334 406.319685 
L 546.858202 406.726613 
L 547.528303 407.121772 
L 549.002657 407.099411 
L 549.612251 409.162363 
L 549.610033 410.37855 
L 550.110327 413.575091 
L 550.86765 416.951697 
L 550.984922 419.538555 
L 552.596802 422.485374 
L 552.998364 424.286958 
L 552.76395 424.649625 
L 552.937092 424.78716 
" clip-path="url(#p6a919ad8de)" style="fill: none; stroke: #808080; stroke-width: 1.5"/>
    <path d="M 568.322233 425.159852 
L 566.513524 423.308954 
L 564.676076 422.633295 
L 561.309389 423.804789 
L 560.777031 421.749813 
L 559.167062 418.582628 
L 559.140641 416.87719 
L 555.490571 416.417207 
L 557.778245 407.417173 
L 561.903093 399.817145 
L 562.690388 397.582369 
L 561.490959 394.338226 
L 560.114424 394.251273 
L 558.727703 392.699066 
L 558.353096 390.692096 
" clip-path="url(#p6a919ad8de)" style="fill: none; stroke: #808080; stroke-width: 1.5"/>
    <path d="M 514.752612 388.479975 
L 513.307814 388.938346 
L 512.557826 388.229002 
L 511.618786 388.689585 
L 508.380912 386.225176 
L 505.611117 386.945419 
L 505.164219 387.95954 
L 501.093453 390.009747 
L 498.676251 392.408102 
L 495.922847 395.896509 
L 494.773129 398.051967 
L 490.152594 402.145424 
L 489.577816 403.759223 
L 488.444607 405.228058 
L 487.623785 405.607733 
L 485.58323 405.718654 
L 482.495882 406.626797 
L 479.512485 405.245456 
L 478.041236 403.152869 
L 476.908097 402.979905 
L 472.797869 400.653423 
L 466.190693 400.956001 
L 463.814651 401.794754 
L 460.498145 402.259881 
L 459.421603 404.753478 
L 459.049381 404.618489 
" clip-path="url(#p6a919ad8de)" style="fill: none; stroke: #808080; stroke-width: 1.5"/>
    <path d="M 472.42906 292.387708 
L 473.180695 301.471514 
L 477.564691 308.68073 
L 482.36715 323.586146 
L 481.47531 327.594942 
L 483.043962 331.616173 
L 482.322464 335.486725 
L 482.782909 342.910355 
L 478.080979 356.420129 
L 473.068049 366.958581 
L 469.005023 369.43578 
L 465.652995 369.095232 
L 458.887941 366.473382 
" clip-path="url(#p6a919ad8de)" style="fill: none; stroke: #808080; stroke-width: 1.5"/>
    <path d="M 542.685502 431.472913 
L 543.931984 431.135665 
L 543.9421 431.267785 
L 544.011121 431.358481 
L 546.487585 428.53053 
L 546.788885 428.070845 
L 548.211059 426.51735 
L 549.067407 426.421649 
L 549.522862 426.230812 
L 550.144765 426.256679 
L 552.194504 426.022732 
L 552.400666 425.749724 
L 552.430219 425.623177 
L 552.973026 424.761554 
L 552.937995 424.73929 
L 552.937092 424.78716 
" clip-path="url(#p6a919ad8de)" style="fill: none; stroke: #808080; stroke-width: 1.5"/>
    <path d="M 514.752612 388.479975 
L 515.43034 388.117654 
L 515.365648 387.713676 
L 512.86877 384.250649 
L 511.494184 383.001465 
L 510.362487 382.989046 
L 507.701737 381.090984 
L 505.491504 378.195366 
L 503.269704 376.165138 
L 502.187914 377.612806 
L 499.916745 378.929538 
L 498.305478 380.487355 
L 496.484984 379.099886 
L 494.404183 379.716049 
L 489.698463 378.59942 
L 487.850504 377.516427 
L 484.405327 377.94437 
L 483.274959 377.619184 
L 477.780899 373.781514 
L 475.043543 370.247856 
L 471.043894 369.603335 
L 469.848097 368.931413 
L 469.014449 369.435428 
L 465.665887 369.098959 
L 460.419338 367.408401 
L 458.887941 366.473382 
" clip-path="url(#p6a919ad8de)" style="fill: none; stroke: #808080; stroke-width: 1.5"/>
    <path d="M 279.659931 333.552634 
L 259.753286 345.093392 
L 242.219921 349.293332 
L 239.426551 351.712411 
L 235.515963 352.664706 
L 233.294757 352.116 
L 226.02351 354.881634 
L 221.562793 357.905885 
L 212.890289 365.960513 
L 209.417225 366.873761 
L 199.563648 365.904728 
L 182.74861 366.912963 
L 180.560447 366.661319 
L 158.394083 357.564068 
L 156.520927 358.572618 
L 149.563778 358.889189 
L 141.772562 349.32033 
L 134.490734 343.250068 
L 127.243672 332.34609 
L 124.41584 330.247763 
L 122.614575 330.78662 
L 122.871289 329.960132 
" clip-path="url(#p6a919ad8de)" style="fill: none; stroke: #808080; stroke-width: 1.5"/>
    <path d="M 556.514624 433.424027 
L 556.446126 431.774134 
L 554.103634 431.89103 
L 553.573963 432.005631 
L 549.830223 432.22813 
L 549.593971 432.166246 
L 547.603565 431.20999 
L 547.287842 430.975237 
L 546.062045 431.537067 
L 545.72316 431.508673 
L 544.791161 431.069339 
L 544.508705 431.003531 
L 542.685502 431.472913 
" clip-path="url(#p6a919ad8de)" style="fill: none; stroke: #808080; stroke-width: 1.5"/>
    <path d="M 559.301869 427.568689 
L 559.252297 426.66594 
L 559.7951 426.596932 
L 559.918712 426.565146 
L 560.034792 426.55309 
L 561.630213 426.53132 
L 562.2335 426.539132 
L 562.612825 426.518318 
L 562.630871 426.79195 
L 562.634992 426.783554 
" clip-path="url(#p6a919ad8de)" style="fill: none; stroke: #808080; stroke-width: 1.5"/>
    <path d="M 353.752918 351.662537 
L 353.996479 356.547952 
L 350.953101 364.838816 
L 350.899642 369.910747 
L 348.507727 373.187731 
L 348.017157 378.01106 
L 346.592994 379.912154 
L 346.571906 383.690582 
L 345.56865 387.387093 
L 345.96326 389.926802 
L 345.343616 391.728623 
L 345.6905 392.101068 
" clip-path="url(#p6a919ad8de)" style="fill: none; stroke: #808080; stroke-width: 1.5"/>
    <path d="M 571.499874 419.941699 
L 571.318016 419.967766 
L 571.361941 420.478112 
L 571.054889 422.097515 
L 570.844587 422.574567 
L 570.710444 423.397148 
L 570.359497 423.900019 
L 570.129782 424.082854 
L 568.856395 424.459106 
L 568.158002 424.522311 
L 567.98365 424.632148 
L 567.659355 425.21138 
L 567.797626 425.635068 
L 567.742607 425.818408 
L 567.52281 426.109819 
L 566.987672 426.516945 
L 566.472091 427.039241 
L 566.359251 427.217857 
L 566.414182 428.417544 
L 566.823609 428.376824 
" clip-path="url(#p6a919ad8de)" style="fill: none; stroke: #808080; stroke-width: 1.5"/>
    <path d="M 548.822856 450.991001 
L 549.629771 450.322675 
L 550.215776 447.966469 
L 550.529739 447.940902 
L 551.506905 445.572047 
L 551.203195 439.105306 
L 552.183352 437.291921 
L 550.718236 436.789585 
L 547.93256 435.288258 
L 546.381935 434.890437 
L 545.229777 433.460778 
L 544.354241 432.834148 
L 542.727212 432.215052 
L 542.685502 431.472913 
" clip-path="url(#p6a919ad8de)" style="fill: none; stroke: #808080; stroke-width: 1.5"/>
    <path d="M 472.42906 292.387708 
L 472.846435 292.21233 
L 473.352255 292.624448 
L 474.458071 292.459674 
L 475.081797 292.110822 
L 475.99506 291.959659 
L 485.415714 291.809961 
L 489.390776 291.280731 
L 490.396063 291.287398 
L 490.95046 291.412508 
L 492.133247 291.079947 
L 492.565771 291.255471 
L 492.8422 290.904374 
L 492.816316 290.809868 
" clip-path="url(#p6a919ad8de)" style="fill: none; stroke: #808080; stroke-width: 1.5"/>
    <path d="M 514.752612 388.479975 
L 513.307814 388.938346 
L 512.557826 388.229002 
L 511.618786 388.689585 
L 508.380912 386.225176 
L 505.772574 386.848665 
L 505.164219 387.95954 
L 501.093453 390.009747 
L 498.676251 392.408102 
L 495.922847 395.896509 
L 494.773129 398.051967 
L 490.099025 402.206162 
L 489.590474 403.738446 
L 488.408331 405.256104 
L 482.684652 406.632688 
L 481.431532 408.2578 
L 476.280198 411.693583 
L 471.22562 411.614636 
L 469.0874 412.678169 
L 466.941217 412.869808 
L 461.412228 415.540249 
L 462.161987 419.374999 
L 461.95884 420.390383 
L 460.650888 421.6237 
L 460.842719 422.931236 
L 459.893602 424.15771 
L 458.226485 425.667938 
L 457.543059 426.926498 
L 454.149993 429.648667 
L 454.663492 431.294977 
L 453.990555 432.471435 
L 454.319999 434.566612 
L 450.713561 435.087079 
L 447.804764 437.374457 
L 432.552468 443.415203 
L 430.164998 443.273803 
" clip-path="url(#p6a919ad8de)" style="fill: none; stroke: #808080; stroke-width: 1.5"/>
    <path d="M 380.414127 307.430584 
L 382.913537 307.448712 
L 383.106941 306.789504 
L 385.020477 307.885881 
L 400.842552 310.775306 
L 415.386163 310.406172 
L 423.454978 305.796684 
L 432.951026 303.971716 
L 438.422036 301.393726 
L 440.643381 301.147017 
L 447.143347 295.865918 
L 451.398954 294.052356 
L 454.710174 293.944374 
L 458.427166 292.61006 
L 465.159295 294.023598 
L 475.943133 291.964117 
L 492.816316 290.809868 
" clip-path="url(#p6a919ad8de)" style="fill: none; stroke: #808080; stroke-width: 1.5"/>
    <path d="M 299.777792 256.442788 
L 300.67501 256.467042 
L 301.066047 257.633544 
L 303.594665 258.51092 
L 307.528089 261.197052 
L 307.880479 262.537529 
L 311.830103 265.835842 
L 316.30455 272.220443 
L 318.578979 273.212022 
L 318.806241 274.135781 
L 323.412027 278.036828 
L 326.570081 282.112282 
L 328.789267 283.256658 
L 330.469177 286.0217 
L 330.737173 287.660756 
L 333.189919 289.849037 
L 335.660623 293.994072 
L 337.09491 294.960099 
L 338.081874 296.355037 
L 339.801196 296.886195 
L 341.028106 297.93653 
L 343.275487 301.586853 
L 347.428454 306.083571 
L 351.34005 307.430766 
L 352.987449 307.084917 
L 355.008648 307.364934 
L 355.78735 307.162443 
L 356.819041 305.855666 
L 359.014846 305.291415 
L 363.127126 305.697241 
L 365.945322 305.214529 
L 366.709535 305.677274 
L 370.662394 306.094175 
L 373.570528 306.866356 
L 380.414127 307.430584 
" clip-path="url(#p6a919ad8de)" style="fill: none; stroke: #808080; stroke-width: 1.5"/>
    <path d="M 568.322233 425.159852 
L 568.290363 425.190007 
L 568.302709 425.246626 
L 568.269856 425.295014 
L 568.30904 425.565598 
L 568.239025 426.104498 
L 568.110485 426.157554 
L 567.412372 426.188661 
L 567.022693 426.483724 
L 566.472091 427.039241 
L 566.381186 427.165103 
L 566.304202 427.339438 
L 566.238749 427.381425 
L 566.056119 427.403727 
L 565.941259 427.387276 
L 563.005521 426.49963 
L 562.611214 426.491672 
L 562.634992 426.783554 
" clip-path="url(#p6a919ad8de)" style="fill: none; stroke: #808080; stroke-width: 1.5"/>
    <path d="M 559.301869 427.568689 
L 559.243786 426.519871 
L 559.161628 426.520235 
L 559.155361 426.399475 
L 559.178003 426.353906 
L 559.14853 426.297467 
L 559.120051 425.764847 
L 559.14068 425.692064 
L 559.104991 425.593927 
L 558.980361 424.009876 
L 559.519733 423.9312 
L 560.235398 423.948279 
L 561.277584 423.877533 
L 562.461367 423.518904 
L 562.464974 423.553313 
L 562.854692 423.532141 
L 562.882837 423.572052 
L 562.853738 423.573702 
" clip-path="url(#p6a919ad8de)" style="fill: none; stroke: #808080; stroke-width: 1.5"/>
    <path d="M 505.269718 479.514934 
L 505.217897 479.016696 
L 504.848414 478.522079 
L 505.221769 478.175301 
L 505.026597 477.873306 
L 505.207193 477.341657 
L 506.99039 475.752054 
L 512.279598 472.657287 
L 514.162477 472.21925 
L 515.216322 472.763682 
L 515.995094 471.134583 
L 518.312235 468.512399 
L 519.536821 466.233827 
L 521.238185 466.061252 
L 521.903131 465.503263 
L 523.654991 464.799851 
L 528.83253 460.669339 
L 531.737984 460.625829 
L 533.103768 459.618277 
L 535.594115 456.855266 
L 538.218773 456.337301 
L 538.739326 455.907943 
L 539.759934 455.743393 
L 541.38629 455.095642 
L 543.018093 452.905431 
L 544.509512 452.799127 
L 545.143107 453.030213 
L 548.521042 452.458416 
L 548.511848 451.604162 
L 548.822856 450.991001 
" clip-path="url(#p6a919ad8de)" style="fill: none; stroke: #808080; stroke-width: 1.5"/>
    <path d="M 472.42906 292.387708 
L 490.965057 291.411008 
L 497.312122 289.628655 
L 510.295644 281.505186 
L 513.010184 280.608805 
L 519.815559 273.704263 
L 538.012622 273.88665 
L 539.189271 272.564822 
L 545.651245 271.326774 
L 559.064276 271.099663 
L 563.553491 269.016553 
L 568.298145 264.853971 
L 571.100433 264.17023 
L 577.824851 257.498268 
L 580.754243 255.732505 
L 587.48127 255.349435 
L 594.726833 256.302639 
" clip-path="url(#p6a919ad8de)" style="fill: none; stroke: #808080; stroke-width: 1.5"/>
    <path d="M 558.353096 390.692096 
L 558.727703 392.699066 
L 560.114424 394.251273 
L 561.490959 394.338226 
L 562.658428 397.54837 
L 561.89565 399.816166 
L 557.784986 407.369954 
L 555.440221 416.415158 
L 559.148278 416.900955 
L 559.172651 418.625254 
L 561.642837 424.369839 
L 561.443487 426.547561 
L 562.634992 426.783554 
" clip-path="url(#p6a919ad8de)" style="fill: none; stroke: #808080; stroke-width: 1.5"/>
    <path d="M 558.353096 390.692096 
L 558.131699 390.508173 
L 557.887726 390.630281 
L 557.797348 390.11758 
L 557.33105 390.013696 
L 556.632713 389.257703 
L 556.448688 388.432513 
L 554.211509 389.340911 
L 552.855187 390.253609 
L 550.783671 390.391385 
L 548.028345 389.94429 
L 547.535532 390.143944 
L 546.95202 389.893166 
L 546.468824 389.521998 
L 546.197107 388.725839 
L 545.650032 384.382027 
L 545.246374 383.680074 
L 543.98673 382.9641 
L 543.293914 381.889306 
L 542.622058 381.963025 
L 541.455871 382.753669 
L 538.126288 383.617785 
L 536.313916 383.704868 
L 533.095058 384.998817 
L 531.294552 386.430853 
L 531.101126 387.075956 
L 529.95871 387.761693 
L 529.2046 388.492733 
L 525.502078 388.10134 
L 523.28999 388.222706 
L 522.508266 387.916663 
L 521.374829 387.822178 
L 519.987714 387.939088 
L 518.746267 387.157653 
L 518.011401 388.6461 
L 516.751711 390.021081 
L 514.981806 388.231041 
L 514.752612 388.479975 
" clip-path="url(#p6a919ad8de)" style="fill: none; stroke: #808080; stroke-width: 1.5"/>
    <path d="M 571.389309 440.38883 
L 571.442076 440.386172 
L 571.445921 440.461014 
L 571.073968 440.481891 
L 570.808445 440.40599 
L 568.530183 440.453524 
L 568.622151 440.392428 
L 566.586574 438.116933 
L 565.999492 437.71237 
L 564.165141 435.637017 
" clip-path="url(#p6a919ad8de)" style="fill: none; stroke: #808080; stroke-width: 1.5"/>
    <path d="M 480.913129 346.463707 
L 482.32432 344.831887 
L 482.7987 342.822719 
L 482.328588 335.495494 
L 483.050662 331.623573 
L 481.491215 327.532645 
L 482.345052 325.9178 
L 482.438181 323.548506 
L 488.236773 319.415544 
L 489.243051 318.054763 
L 490.452261 314.959889 
L 491.168714 310.144823 
L 490.407151 307.294895 
L 492.208253 303.23382 
L 491.643159 293.720998 
L 492.816316 290.809868 
" clip-path="url(#p6a919ad8de)" style="fill: none; stroke: #808080; stroke-width: 1.5"/>
    <path d="M 353.752918 351.662537 
L 354.190789 351.197671 
L 355.74703 351.035376 
L 356.501641 350.104064 
L 356.551601 346.674764 
L 359.76981 339.337816 
L 359.519283 332.902965 
L 360.119407 330.320957 
L 360.193452 326.810158 
L 362.777202 324.383591 
L 365.899455 323.188411 
L 367.448298 319.380842 
L 368.931515 317.628807 
L 373.733263 314.688078 
L 374.969601 312.289066 
L 379.109538 308.146525 
L 380.413228 308.075021 
L 380.414127 307.430584 
" clip-path="url(#p6a919ad8de)" style="fill: none; stroke: #808080; stroke-width: 1.5"/>
    <path d="M 279.659931 333.552634 
L 280.134135 334.438449 
L 279.474911 336.385977 
L 280.965167 342.5251 
L 280.943509 344.686923 
L 279.559913 349.719803 
L 279.467793 352.040973 
L 279.969957 354.074323 
L 279.739142 358.201637 
L 281.308603 362.861155 
L 284.364948 365.258615 
L 288.764428 373.407778 
L 290.33771 374.598772 
L 291.410229 376.187866 
L 289.306827 377.842389 
L 292.6358 379.815728 
L 295.275956 382.501992 
L 299.060778 383.819681 
L 300.773998 384.965553 
L 304.829336 383.540785 
L 310.761954 384.591551 
L 311.998168 385.620992 
L 319.077944 386.895517 
L 325.573329 385.481243 
L 333.697 387.751509 
L 338.224818 389.639911 
L 341.605785 389.855924 
L 344.710865 391.164151 
L 345.6905 392.101068 
" clip-path="url(#p6a919ad8de)" style="fill: none; stroke: #808080; stroke-width: 1.5"/>
    <path d="M 458.887941 366.473382 
L 458.298829 366.316257 
L 457.478465 368.999476 
L 458.040335 371.364435 
L 456.770066 373.800512 
L 456.226674 376.978893 
L 458.036703 382.053769 
L 459.505641 382.692224 
L 462.179993 385.109343 
L 460.738153 388.35513 
L 460.828521 392.731604 
L 461.904599 396.276286 
L 461.747896 399.131885 
L 459.421603 404.753478 
L 459.049381 404.618489 
" clip-path="url(#p6a919ad8de)" style="fill: none; stroke: #808080; stroke-width: 1.5"/>
    <path d="M 556.514624 433.424027 
L 556.418571 430.407943 
L 556.273519 430.066299 
L 556.032833 427.329484 
L 552.750293 425.163123 
L 552.674343 424.84868 
L 552.761485 424.574912 
L 552.96036 424.704643 
L 552.937092 424.78716 
" clip-path="url(#p6a919ad8de)" style="fill: none; stroke: #808080; stroke-width: 1.5"/>
    <path d="M 427.172149 241.455744 
L 428.051044 242.159026 
L 429.746843 242.10731 
L 433.138533 242.844927 
L 437.730502 244.93305 
L 438.0257 245.517195 
L 441.249924 247.301973 
L 442.910605 250.431377 
L 444.746888 252.530458 
L 449.917491 255.409287 
L 452.799235 257.628419 
L 454.953353 261.308493 
L 457.465809 264.545033 
L 457.7363 265.589591 
L 458.627367 266.065707 
L 462.287645 271.698033 
L 465.642797 274.890685 
L 466.766254 276.778502 
L 466.669925 279.21062 
L 468.094037 279.683116 
L 472.390449 279.664214 
L 476.237506 280.538623 
L 476.596911 281.132325 
L 478.28783 281.72064 
L 478.964807 282.754946 
L 480.961297 283.688767 
L 481.580184 284.42923 
L 483.640787 284.131275 
L 486.810593 286.121958 
L 488.679625 288.208258 
L 492.03042 289.877235 
L 492.198247 290.817297 
L 492.816316 290.809868 
" clip-path="url(#p6a919ad8de)" style="fill: none; stroke: #808080; stroke-width: 1.5"/>
    <path d="M 302.722758 182.234982 
L 299.849127 186.248943 
L 299.419125 190.461907 
L 301.957163 194.175149 
L 301.847135 204.189074 
L 303.74858 210.60648 
L 304.244223 219.503122 
L 306.689027 225.944667 
L 305.110316 227.969965 
L 305.046135 230.984688 
L 301.581806 233.539548 
L 301.099384 234.709538 
L 301.181258 254.02817 
L 303.217871 254.973683 
L 302.991885 257.752402 
L 307.528089 261.197052 
L 307.896478 262.555597 
L 311.830103 265.835842 
L 316.30455 272.220443 
L 318.578979 273.212022 
L 326.570081 282.112282 
L 328.789267 283.256658 
L 330.737173 287.660756 
L 333.189919 289.849037 
L 335.660623 293.994072 
L 341.028106 297.93653 
L 347.428454 306.083571 
L 351.34005 307.430766 
L 355.008648 307.364934 
L 359.014846 305.291415 
L 365.945322 305.214529 
L 380.414127 307.430584 
" clip-path="url(#p6a919ad8de)" style="fill: none; stroke: #808080; stroke-width: 1.5"/>
    <path d="M 299.777792 256.442788 
L 301.042128 256.47365 
L 301.01613 261.289951 
L 302.370381 265.186958 
L 302.081727 281.656874 
L 296.404951 293.083727 
L 297.294859 295.037428 
L 296.053428 295.767919 
L 293.017254 303.221521 
L 287.60281 311.907184 
L 290.290052 322.45462 
L 287.603288 323.13682 
L 284.342044 325.673568 
L 284.206576 328.003553 
L 281.622545 331.292373 
L 281.859908 332.336409 
L 279.659931 333.552634 
" clip-path="url(#p6a919ad8de)" style="fill: none; stroke: #808080; stroke-width: 1.5"/>
    <path d="M 302.722758 182.234982 
L 312.076743 183.677794 
L 318.659649 186.084213 
L 325.382535 190.040924 
L 330.09786 190.603389 
L 338.520836 195.294566 
L 346.41283 198.291375 
L 352.53606 206.491526 
L 353.413616 210.225857 
L 354.501447 211.163796 
L 354.410693 212.903697 
L 361.166389 217.285814 
L 379.079683 224.074935 
L 390.592239 226.047789 
L 396.665777 229.981206 
L 403.056205 231.167445 
L 409.583949 234.847601 
L 411.888656 235.197017 
L 416.388164 238.265735 
L 426.242361 239.478787 
L 427.172149 241.455744 
" clip-path="url(#p6a919ad8de)" style="fill: none; stroke: #808080; stroke-width: 1.5"/>
    <path d="M 568.322233 425.159852 
L 568.290363 425.190007 
L 568.302709 425.246626 
L 568.269856 425.295014 
L 568.30904 425.565598 
L 568.239025 426.104498 
L 568.110485 426.157554 
L 567.412372 426.188661 
L 566.987672 426.516945 
L 566.472091 427.039241 
L 566.367764 427.191658 
L 566.334801 427.358233 
L 566.41057 428.130987 
L 566.414182 428.417544 
L 566.823609 428.376824 
" clip-path="url(#p6a919ad8de)" style="fill: none; stroke: #808080; stroke-width: 1.5"/>
    <path d="M 122.871289 329.960132 
L 122.922878 329.333321 
L 122.862342 330.383314 
L 124.4309 330.26345 
L 127.231797 332.343196 
L 134.485426 343.282282 
L 141.736253 349.314181 
L 149.618378 358.928263 
L 156.525357 358.582544 
L 158.383562 357.57203 
L 181.122832 366.803506 
L 199.55354 365.919573 
L 209.425689 366.888245 
L 213.469283 365.827611 
L 221.568888 357.912187 
L 226.042682 354.88251 
L 233.298727 352.123661 
L 235.539729 352.671638 
L 239.423333 351.722685 
L 242.089955 349.339788 
L 259.769513 345.09589 
L 270.217613 338.52676 
L 277.41008 334.806818 
L 280.572858 334.235615 
L 283.66493 331.819156 
L 291.075534 328.099149 
L 290.936655 326.937216 
" clip-path="url(#p6a919ad8de)" style="fill: none; stroke: #808080; stroke-width: 1.5"/>
    <path d="M 458.887941 366.473382 
L 458.298829 366.316257 
L 457.478465 368.999476 
L 458.040335 371.364435 
L 456.226674 376.978893 
L 458.036703 382.053769 
L 462.179993 385.109343 
L 460.738153 388.35513 
L 461.749737 399.119131 
L 459.401087 405.842071 
L 452.434174 422.221232 
L 445.717779 430.683156 
L 434.36868 438.211192 
L 433.33617 441.864503 
L 430.164998 443.273803 
" clip-path="url(#p6a919ad8de)" style="fill: none; stroke: #808080; stroke-width: 1.5"/>
    <path d="M 475.032107 517.387564 
L 474.700333 515.832746 
L 471.474862 515.525844 
L 466.181734 513.073583 
L 463.94329 507.952401 
L 458.509783 503.097217 
L 453.770501 495.582364 
L 449.531355 491.979148 
L 445.765739 486.078336 
L 443.038795 483.614573 
L 438.328356 472.946777 
L 432.910235 466.392673 
L 433.021236 454.488321 
L 434.213505 448.892787 
L 430.164998 443.273803 
" clip-path="url(#p6a919ad8de)" style="fill: none; stroke: #808080; stroke-width: 1.5"/>
    <path d="M 559.301869 427.568689 
L 559.251262 426.648476 
L 558.957644 426.679901 
L 558.679655 426.763023 
L 558.501718 426.861565 
L 557.873462 426.955169 
L 556.991782 426.841962 
L 556.849203 426.922536 
L 556.379812 427.32585 
L 556.244778 427.378915 
L 556.138178 427.37643 
L 555.064618 426.644224 
L 554.630436 426.390896 
L 554.079576 426.022154 
L 553.849022 425.833655 
L 553.342061 425.49411 
L 553.063078 425.359548 
L 552.750293 425.163123 
L 552.686858 425.061683 
L 552.674343 424.84868 
L 552.761485 424.574912 
L 552.819799 424.578828 
L 552.96036 424.704643 
L 552.916062 424.773919 
L 552.937092 424.78716 
" clip-path="url(#p6a919ad8de)" style="fill: none; stroke: #808080; stroke-width: 1.5"/>
    <path d="M 566.823609 428.376824 
L 566.414182 428.417544 
L 566.467616 429.695975 
L 566.315129 430.293621 
L 566.955042 433.804902 
L 568.946207 437.24685 
L 570.045898 440.440015 
L 571.446272 440.466911 
L 571.389309 440.38883 
" clip-path="url(#p6a919ad8de)" style="fill: none; stroke: #808080; stroke-width: 1.5"/>
    <path d="M 353.752918 351.662537 
L 352.318799 350.161717 
L 351.421011 347.875328 
L 346.685702 345.833604 
L 343.264165 342.461723 
L 341.413847 341.67941 
L 338.331189 338.083166 
L 335.208401 336.613266 
L 333.56767 334.840741 
L 331.601167 334.568678 
L 330.877963 333.896635 
L 328.13484 333.790534 
L 326.486823 334.160027 
L 323.80141 336.109277 
L 321.960486 336.256073 
L 320.490818 335.973682 
L 317.805608 334.11699 
L 314.086198 333.262498 
L 308.430773 333.251406 
L 292.412008 327.619527 
L 289.25574 328.571571 
L 282.117949 332.722504 
L 280.565007 334.230037 
L 280.103991 334.322857 
L 279.659931 333.552634 
" clip-path="url(#p6a919ad8de)" style="fill: none; stroke: #808080; stroke-width: 1.5"/>
    <path d="M 609.131768 415.737091 
L 605.954064 413.39124 
L 605.492605 412.964186 
L 605.054804 412.363389 
L 604.197995 410.782114 
L 603.906548 410.351653 
L 603.785271 410.023654 
L 603.550293 409.948007 
L 601.553337 407.791411 
L 601.542894 407.69879 
L 601.893703 407.673492 
" clip-path="url(#p6a919ad8de)" style="fill: none; stroke: #808080; stroke-width: 1.5"/>
    <path d="M 548.822856 450.991001 
L 549.629771 450.322675 
L 550.215776 447.966469 
L 550.529739 447.940902 
L 550.571995 447.495157 
L 551.512396 445.547991 
L 551.205299 439.080804 
L 551.376401 438.525626 
L 552.565589 436.559377 
L 552.656638 435.636545 
L 552.567361 433.966195 
L 553.258518 433.910248 
L 553.53435 433.781735 
L 556.00417 433.639457 
L 556.514624 433.424027 
" clip-path="url(#p6a919ad8de)" style="fill: none; stroke: #808080; stroke-width: 1.5"/>
    <path d="M 559.301869 427.568689 
L 559.251262 426.648476 
L 557.873462 426.955169 
L 556.991782 426.841962 
L 556.298908 427.368705 
L 555.878478 427.517116 
L 555.138044 427.489064 
L 553.542927 428.276546 
L 550.744856 428.519704 
L 550.148308 429.594569 
L 546.173942 431.511659 
L 545.742322 431.514534 
L 544.508705 431.003531 
L 542.685502 431.472913 
" clip-path="url(#p6a919ad8de)" style="fill: none; stroke: #808080; stroke-width: 1.5"/>
    <path d="M 564.165141 435.637017 
L 562.856354 436.043041 
L 561.810527 436.564302 
L 561.22015 436.488782 
L 560.904226 436.330517 
L 560.651313 435.90492 
L 560.478172 435.724234 
L 560.342239 435.183355 
L 559.569078 434.516481 
L 558.666572 434.068675 
L 558.228832 434.076788 
L 556.765347 433.444263 
L 556.514624 433.424027 
" clip-path="url(#p6a919ad8de)" style="fill: none; stroke: #808080; stroke-width: 1.5"/>
    <path d="M 562.853738 423.573702 
L 562.882837 423.572052 
L 562.851409 423.53179 
L 562.470432 423.552981 
L 562.466245 423.484977 
L 561.494309 423.80388 
L 561.429642 423.849956 
L 561.40874 423.912745 
L 561.431468 423.991803 
L 561.562443 424.147195 
L 561.642837 424.369839 
L 561.703624 425.261604 
L 561.654931 426.079488 
L 561.623605 426.161646 
L 561.452474 426.403342 
L 561.443487 426.547561 
L 562.612825 426.518318 
L 562.634992 426.783554 
" clip-path="url(#p6a919ad8de)" style="fill: none; stroke: #808080; stroke-width: 1.5"/>
    <path d="M 480.913129 346.463707 
L 481.477748 347.443319 
L 478.821483 353.125839 
L 478.184164 356.152021 
L 475.327524 361.817691 
L 474.157162 365.556625 
L 473.463489 365.937488 
L 472.982885 367.030237 
L 471.348613 367.674476 
L 469.088106 369.425802 
L 467.855195 371.988366 
L 466.489137 373.59469 
L 466.133747 375.230589 
L 464.941939 376.946392 
L 463.694522 380.007392 
L 461.944889 386.010679 
L 460.741882 388.304148 
L 460.828521 392.731604 
L 461.904599 396.276286 
L 461.678227 399.520619 
L 459.421603 404.753478 
L 459.049381 404.618489 
" clip-path="url(#p6a919ad8de)" style="fill: none; stroke: #808080; stroke-width: 1.5"/>
    <path d="M 554.783159 461.026433 
L 554.220319 460.873219 
L 554.312985 460.287847 
L 553.649474 458.956929 
L 552.960227 458.596619 
L 551.911417 458.448957 
L 550.892249 457.282725 
L 550.525054 447.724509 
L 551.530051 445.450994 
L 551.205299 439.080804 
L 552.565589 436.559377 
L 552.567361 433.966195 
L 556.00417 433.639457 
L 556.514624 433.424027 
" clip-path="url(#p6a919ad8de)" style="fill: none; stroke: #808080; stroke-width: 1.5"/>
    <path d="M 353.752918 351.662537 
L 352.318799 350.161717 
L 351.453629 347.90185 
L 348.761694 347.014239 
L 345.51362 344.998321 
L 343.264165 342.461723 
L 341.413847 341.67941 
L 338.405131 338.140899 
L 335.208401 336.613266 
L 333.52983 334.823547 
L 331.601167 334.568678 
L 330.863987 333.893257 
L 328.13484 333.790534 
L 326.385565 334.200631 
L 323.759648 336.125317 
L 320.559768 336.000559 
L 317.805608 334.11699 
L 314.086198 333.262498 
L 308.430773 333.251406 
L 290.934591 327.314223 
L 290.936655 326.937216 
" clip-path="url(#p6a919ad8de)" style="fill: none; stroke: #808080; stroke-width: 1.5"/>
    <path d="M 526.471355 358.188766 
L 526.121544 358.124638 
L 526.108979 357.541655 
L 525.653133 356.553319 
L 524.63279 352.819954 
L 523.559315 351.039195 
L 522.093907 349.260342 
L 522.01058 348.870308 
L 519.600353 348.694883 
L 519.14592 348.837618 
L 516.990145 348.454466 
L 516.471439 348.685906 
L 512.810147 347.436927 
L 505.017092 347.298967 
L 504.208157 346.899641 
L 493.91745 345.957833 
L 492.476241 346.736287 
L 488.329759 347.740099 
L 486.241278 347.460014 
L 485.730941 347.072489 
L 483.009081 346.200958 
L 482.658843 345.900535 
L 482.531126 346.526817 
L 481.798757 347.302831 
L 480.913129 346.463707 
" clip-path="url(#p6a919ad8de)" style="fill: none; stroke: #808080; stroke-width: 1.5"/>
    <path d="M 554.783159 461.026433 
L 555.942388 459.065706 
L 555.914459 457.615764 
L 554.597157 455.967066 
L 553.998351 454.024592 
L 553.1807 453.018635 
L 552.967802 451.426331 
L 553.242637 450.889127 
L 553.214914 450.210976 
L 552.933169 449.847372 
L 556.771343 444.22237 
L 558.343783 440.916098 
L 558.896337 440.414668 
L 559.124818 439.336828 
L 558.629903 438.565529 
L 559.71267 436.474647 
L 560.478172 435.724234 
L 560.938874 436.362625 
L 561.720716 436.580026 
L 564.165141 435.637017 
" clip-path="url(#p6a919ad8de)" style="fill: none; stroke: #808080; stroke-width: 1.5"/>
    <path d="M 183.304625 366.613475 
L 183.320576 366.910123 
L 186.891194 366.786996 
L 199.55354 365.919573 
L 209.425689 366.888245 
L 211.720576 365.911733 
L 213.291046 365.921737 
L 214.734524 363.913579 
L 216.097798 363.163112 
L 221.568888 357.912187 
L 226.020956 354.893005 
L 233.298727 352.123661 
L 235.539729 352.671638 
L 239.423333 351.722685 
L 242.089955 349.339788 
L 257.130432 345.211985 
L 259.769513 345.09589 
L 261.052242 343.874534 
L 262.798465 343.328776 
L 270.217613 338.52676 
L 273.941929 336.905077 
L 277.41008 334.806818 
L 278.323113 334.945886 
L 280.572858 334.235615 
L 283.66493 331.819156 
L 289.303328 328.555936 
L 291.075534 328.099149 
L 290.936655 326.937216 
" clip-path="url(#p6a919ad8de)" style="fill: none; stroke: #808080; stroke-width: 1.5"/>
    <path d="M 559.301869 427.568689 
L 559.296077 427.489786 
L 559.215584 427.500773 
L 559.314535 427.7079 
L 559.380706 428.270479 
L 559.45893 429.783304 
L 559.429812 429.909801 
L 559.336284 430.0057 
L 563.868176 435.075134 
L 563.942189 435.38967 
L 564.165141 435.637017 
" clip-path="url(#p6a919ad8de)" style="fill: none; stroke: #808080; stroke-width: 1.5"/>
    <path d="M 546.804334 406.319685 
L 547.449032 405.789804 
L 547.208151 405.367202 
L 545.165642 404.486215 
L 544.240666 404.509763 
L 544.226842 404.291507 
L 539.784108 404.368195 
L 539.164905 404.114084 
L 538.056439 404.463499 
L 537.610026 404.085717 
L 537.316857 403.366118 
L 535.881065 403.247778 
L 535.181126 402.241794 
L 534.256813 401.456064 
L 532.936315 401.190936 
L 531.875416 401.284817 
L 531.223836 400.890613 
L 530.086244 400.90165 
L 529.139636 400.107037 
L 529.010215 399.489236 
L 528.479974 398.833427 
L 527.302431 398.973499 
L 526.130744 398.278767 
L 524.479474 398.033077 
L 524.128248 396.884036 
L 522.959524 396.266008 
L 519.595811 392.769449 
L 515.887797 389.312682 
L 515.415943 388.600291 
L 514.981806 388.231041 
L 514.752612 388.479975 
" clip-path="url(#p6a919ad8de)" style="fill: none; stroke: #808080; stroke-width: 1.5"/>
    <path d="M 571.389309 440.38883 
L 571.445921 440.461014 
L 567.893126 440.414757 
L 566.634772 440.014239 
L 565.227873 438.548467 
L 564.223492 437.24035 
L 562.870689 434.910042 
L 561.138578 432.950013 
L 559.740447 434.655619 
L 558.666572 434.068675 
L 558.228832 434.076788 
L 556.765347 433.444263 
L 556.514624 433.424027 
" clip-path="url(#p6a919ad8de)" style="fill: none; stroke: #808080; stroke-width: 1.5"/>
    <path d="M 566.823609 428.376824 
L 566.451853 428.412055 
L 566.360541 427.454602 
L 566.292343 427.390204 
L 565.941259 427.387276 
L 563.005521 426.49963 
L 562.611214 426.491672 
L 562.634992 426.783554 
" clip-path="url(#p6a919ad8de)" style="fill: none; stroke: #808080; stroke-width: 1.5"/>
   </g>
   <g id="matplotlib.axis_1"/>
   <g id="matplotlib.axis_2"/>
   <g id="PathCollection_1">
    <defs>
     <path id="m28d11526e1" d="M 0 3.535534 
C 0.937635 3.535534 1.836992 3.163008 2.5 2.5 
C 3.163008 1.836992 3.535534 0.937635 3.535534 0 
C 3.535534 -0.937635 3.163008 -1.836992 2.5 -2.5 
C 1.836992 -3.163008 0.937635 -3.535534 0 -3.535534 
C -0.937635 -3.535534 -1.836992 -3.163008 -2.5 -2.5 
C -3.163008 -1.836992 -3.535534 -0.937635 -3.535534 0 
C -3.535534 0.937635 -3.163008 1.836992 -2.5 2.5 
C -1.836992 3.163008 -0.937635 3.535534 0 3.535534 
z
" style="stroke: #000000"/>
    </defs>
    <g clip-path="url(#p6a919ad8de)">
     <use xlink:href="#m28d11526e1" x="548.830506" y="451.00134" style="fill: #ffffff; stroke: #000000"/>
     <use xlink:href="#m28d11526e1" x="554.784406" y="461.02183" style="fill: #ffffff; stroke: #000000"/>
     <use xlink:href="#m28d11526e1" x="505.655826" y="479.775805" style="fill: #ffffff; stroke: #000000"/>
     <use xlink:href="#m28d11526e1" x="571.387083" y="440.344381" style="fill: #ffffff; stroke: #000000"/>
     <use xlink:href="#m28d11526e1" x="566.821907" y="428.376594" style="fill: #ffffff; stroke: #000000"/>
     <use xlink:href="#m28d11526e1" x="558.445829" y="390.726871" style="fill: #ffffff; stroke: #000000"/>
     <use xlink:href="#m28d11526e1" x="562.634778" y="426.783546" style="fill: #ffffff; stroke: #000000"/>
     <use xlink:href="#m28d11526e1" x="559.304897" y="427.568183" style="fill: #ffffff; stroke: #000000"/>
     <use xlink:href="#m28d11526e1" x="562.853925" y="423.577308" style="fill: #ffffff; stroke: #000000"/>
     <use xlink:href="#m28d11526e1" x="571.501306" y="419.951372" style="fill: #ffffff; stroke: #000000"/>
     <use xlink:href="#m28d11526e1" x="568.328837" y="425.161641" style="fill: #ffffff; stroke: #000000"/>
     <use xlink:href="#m28d11526e1" x="609.12926" y="415.735342" style="fill: #ffffff; stroke: #000000"/>
     <use xlink:href="#m28d11526e1" x="601.894009" y="407.677092" style="fill: #ffffff; stroke: #000000"/>
     <use xlink:href="#m28d11526e1" x="609.542696" y="405.598861" style="fill: #ffffff; stroke: #000000"/>
     <use xlink:href="#m28d11526e1" x="122.867676" y="329.959907" style="fill: #ffffff; stroke: #000000"/>
     <use xlink:href="#m28d11526e1" x="183.303029" y="366.613549" style="fill: #ffffff; stroke: #000000"/>
     <use xlink:href="#m28d11526e1" x="345.697135" y="392.112448" style="fill: #ffffff; stroke: #000000"/>
     <use xlink:href="#m28d11526e1" x="290.936675" y="326.940273" style="fill: #ffffff; stroke: #000000"/>
     <use xlink:href="#m28d11526e1" x="380.425427" y="307.430648" style="fill: #ffffff; stroke: #000000"/>
     <use xlink:href="#m28d11526e1" x="594.732499" y="256.30959" style="fill: #ffffff; stroke: #000000"/>
     <use xlink:href="#m28d11526e1" x="480.917415" y="346.467384" style="fill: #ffffff; stroke: #000000"/>
     <use xlink:href="#m28d11526e1" x="526.471527" y="358.195702" style="fill: #ffffff; stroke: #000000"/>
     <use xlink:href="#m28d11526e1" x="475.028472" y="517.381771" style="fill: #ffffff; stroke: #000000"/>
     <use xlink:href="#m28d11526e1" x="442.968582" y="588.477484" style="fill: #ffffff; stroke: #000000"/>
     <use xlink:href="#m28d11526e1" x="391.005472" y="529.389079" style="fill: #ffffff; stroke: #000000"/>
     <use xlink:href="#m28d11526e1" x="552.943209" y="424.777553" style="fill: #ffffff; stroke: #000000"/>
     <use xlink:href="#m28d11526e1" x="430.174526" y="443.270507" style="fill: #ffffff; stroke: #000000"/>
     <use xlink:href="#m28d11526e1" x="459.052445" y="404.60848" style="fill: #ffffff; stroke: #000000"/>
     <use xlink:href="#m28d11526e1" x="492.811817" y="290.795247" style="fill: #ffffff; stroke: #000000"/>
     <use xlink:href="#m28d11526e1" x="302.722635" y="182.235681" style="fill: #ffffff; stroke: #000000"/>
     <use xlink:href="#m28d11526e1" x="473.486617" y="601.007856" style="fill: #ffffff; stroke: #000000"/>
     <use xlink:href="#m28d11526e1" x="514.753956" y="388.478401" style="fill: #ffffff; stroke: #000000"/>
     <use xlink:href="#m28d11526e1" x="472.42418" y="292.379659" style="fill: #ffffff; stroke: #000000"/>
     <use xlink:href="#m28d11526e1" x="458.889481" y="366.467169" style="fill: #ffffff; stroke: #000000"/>
     <use xlink:href="#m28d11526e1" x="564.166941" y="435.641369" style="fill: #ffffff; stroke: #000000"/>
     <use xlink:href="#m28d11526e1" x="299.769667" y="256.442803" style="fill: #ffffff; stroke: #000000"/>
     <use xlink:href="#m28d11526e1" x="279.659561" y="333.551954" style="fill: #ffffff; stroke: #000000"/>
     <use xlink:href="#m28d11526e1" x="556.512508" y="433.424262" style="fill: #ffffff; stroke: #000000"/>
     <use xlink:href="#m28d11526e1" x="353.751828" y="351.660572" style="fill: #ffffff; stroke: #000000"/>
     <use xlink:href="#m28d11526e1" x="542.687293" y="431.479624" style="fill: #ffffff; stroke: #000000"/>
     <use xlink:href="#m28d11526e1" x="546.798137" y="406.330206" style="fill: #ffffff; stroke: #000000"/>
     <use xlink:href="#m28d11526e1" x="550.587829" y="307.905836" style="fill: #ffffff; stroke: #000000"/>
     <use xlink:href="#m28d11526e1" x="427.161357" y="241.455837" style="fill: #ffffff; stroke: #000000"/>
    </g>
   </g>
  </g>
 </g>
 <defs>
  <clipPath id="p6a919ad8de">
   <rect x="90" y="99.10136" width="558" height="528.99728"/>
  </clipPath>
 </defs>
</svg>
