<?xml version="1.0" encoding="utf-8" standalone="no"?>
<!DOCTYPE svg PUBLIC "-//W3C//DTD SVG 1.1//EN"
  "http://www.w3.org/Graphics/SVG/1.1/DTD/svg11.dtd">
<svg xmlns:xlink="http://www.w3.org/1999/xlink" width="1116pt" height="703.559973pt" viewBox="0 0 1116 703.559973" xmlns="http://www.w3.org/2000/svg" version="1.1">
 <metadata>
  <rdf:RDF xmlns:dc="http://purl.org/dc/elements/1.1/" xmlns:cc="http://creativecommons.org/ns#" xmlns:rdf="http://www.w3.org/1999/02/22-rdf-syntax-ns#">
   <cc:Work>
    <dc:type rdf:resource="http://purl.org/dc/dcmitype/StillImage"/>
    <dc:date>2026-01-28T18:33:23.470783</dc:date>
    <dc:format>image/svg+xml</dc:format>
    <dc:creator>
     <cc:Agent>
      <dc:title>Matplotlib v3.9.4, https://matplotlib.org/</dc:title>
     </cc:Agent>
    </dc:creator>
   </cc:Work>
  </rdf:RDF>
 </metadata>
 <defs>
  <style type="text/css">*{stroke-linejoin: round; stroke-linecap: butt}</style>
 </defs>
 <g id="figure_1">
  <g id="patch_1">
   <path d="M 0 703.559973 
L 1116 703.559973 
L 1116 0 
L 0 0 
z
"/>
  </g>
  <g id="axes_1">
   <g id="PatchCollection_1">
    <path d="M 788.775978 515.480961 
L 787.163196 514.282641 
L 784.184515 515.636632 
L 775.632372 511.854434 
L 774.21233 513.233102 
L 773.64618 516.294856 
L 769.759971 515.601762 
L 768.15522 517.025125 
L 767.348704 515.887109 
L 765.341199 517.704534 
L 764.068268 517.233988 
L 759.851463 525.708672 
L 759.277281 530.391817 
L 757.279785 532.706601 
L 756.448204 536.038507 
L 757.832929 537.628548 
L 753.82766 539.139753 
L 748.395384 547.539255 
L 744.679333 546.400305 
L 744.227225 547.234792 
L 742.414949 544.702684 
L 741.103199 545.42438 
L 737.863381 543.839948 
L 736.149816 540.890274 
L 729.774423 539.149063 
L 729.132545 537.576819 
L 727.742845 537.598727 
L 728.21575 535.562211 
L 727.583931 536.115664 
L 719.087835 533.706537 
L 715.186907 530.832805 
L 713.861349 527.534251 
L 708.183035 524.899078 
L 703.00422 519.798306 
L 701.614337 514.712735 
L 698.434211 510.700867 
L 697.70742 504.841387 
L 698.42144 501.212879 
L 697.506382 497.668969 
L 693.848752 493.23608 
L 694.094615 492.207701 
L 692.5663 491.581613 
L 691.328436 484.523606 
L 688.166518 481.722137 
L 687.817884 480.019567 
L 685.74772 479.879587 
L 680.696082 474.962317 
L 679.255744 475.533672 
L 678.28958 474.176008 
L 677.429443 474.787299 
L 674.915427 473.339482 
L 674.299383 471.382762 
L 669.525733 467.591334 
L 667.921495 464.102095 
L 662.45163 460.762882 
L 654.941168 451.933645 
L 647.898414 448.596173 
L 642.304392 438.476579 
L 637.18215 436.400907 
L 634.70299 435.152749 
L 634.665635 434.087606 
L 633.74733 432.089829 
L 634.086666 431.341801 
L 634.124232 429.041018 
L 633.550802 428.719975 
L 634.419206 427.898174 
L 642.475006 427.911701 
L 654.798156 427.875642 
L 690.305668 427.767802 
L 692.645712 427.812025 
L 719.96845 427.648191 
L 721.214077 427.703153 
L 729.489784 427.694691 
L 742.527331 427.771784 
L 751.532376 427.861201 
L 751.623475 424.571721 
L 751.479673 407.532145 
L 751.830738 390.189144 
L 752.035383 373.39644 
L 752.178755 365.953537 
L 752.358698 355.647403 
L 752.477372 336.580547 
L 752.706945 319.26055 
L 752.621726 310.573199 
L 752.592165 302.161435 
L 752.718871 284.490289 
L 752.708414 279.792079 
L 752.661253 267.372125 
L 752.554862 250.130607 
L 753.536577 250.099792 
L 780.857879 250.18435 
L 785.161581 250.075611 
L 798.757823 250.113204 
L 816.189176 250.270809 
L 820.550225 250.207965 
L 833.936206 250.214242 
L 851.7589 250.038728 
L 851.946866 250.092485 
L 852.078167 267.311577 
L 852.05946 274.190051 
L 851.984911 284.679985 
L 852.170479 292.369215 
L 852.077622 301.964701 
L 852.114251 307.949695 
L 852.022118 319.184915 
L 852.113588 326.503027 
L 852.90181 326.521129 
L 853.800551 325.820118 
L 854.222104 325.838381 
L 855.907566 327.062876 
L 856.565463 328.232579 
L 857.571982 328.899564 
L 859.288273 331.187003 
L 862.336103 333.821293 
L 865.077652 334.173096 
L 865.610721 333.527823 
L 865.852817 332.575555 
L 866.640769 332.327432 
L 868.339982 332.767294 
L 869.085592 333.580621 
L 870.434456 334.325531 
L 871.368027 334.151259 
L 871.887058 333.057192 
L 871.931907 331.780561 
L 872.870987 330.94124 
L 874.214841 332.425189 
L 876.058432 332.996136 
L 876.487763 334.186539 
L 878.08476 335.620353 
L 878.386523 336.684057 
L 878.114114 338.642649 
L 878.577786 339.90585 
L 879.04846 340.341513 
L 880.63216 340.787275 
L 882.258704 340.51453 
L 883.678242 340.888112 
L 884.960178 340.469491 
L 886.395271 341.060537 
L 888.404553 342.396364 
L 891.041645 342.985582 
L 892.110317 343.538725 
L 894.516318 343.588084 
L 895.274457 342.824718 
L 895.947635 342.941898 
L 897.121309 342.490671 
L 897.737101 342.769281 
L 898.752636 343.144086 
L 899.368688 344.592731 
L 901.275962 346.133485 
L 902.962184 346.610074 
L 903.844133 346.156589 
L 904.310796 345.498483 
L 904.842376 345.309414 
L 905.062418 344.179247 
L 906.174448 343.136518 
L 907.157161 343.243432 
L 908.585739 343.898516 
L 912.00729 344.195544 
L 913.189244 343.282537 
L 913.911802 342.86469 
L 914.593251 343.435956 
L 914.049136 345.998611 
L 914.85339 348.552195 
L 915.860152 349.166351 
L 916.913534 349.277793 
L 918.254128 348.71165 
L 919.320282 349.904178 
L 919.40148 350.35585 
L 918.900733 350.795296 
L 919.305237 351.43392 
L 918.469397 352.244097 
L 918.461125 352.622078 
L 919.172147 353.375171 
L 920.672384 353.749522 
L 921.96385 354.498081 
L 922.529008 354.420612 
L 924.576866 353.098956 
L 925.688642 351.450511 
L 926.586881 351.165699 
L 927.400159 349.888894 
L 928.49063 349.213263 
L 930.819182 349.972379 
L 931.076313 352.013137 
L 931.624425 352.62095 
L 932.316903 352.566581 
L 933.512132 352.057208 
L 934.848207 352.416006 
L 935.333412 352.626817 
L 935.520626 353.099934 
L 935.662719 355.246248 
L 937.0627 355.859951 
L 938.600032 355.45162 
L 939.306794 354.228734 
L 940.188741 353.893192 
L 940.217316 352.885803 
L 941.590729 353.806813 
L 941.865665 354.354833 
L 942.299996 353.791108 
L 942.451873 352.949226 
L 943.592711 352.495889 
L 944.366889 352.752607 
L 945.14207 354.17996 
L 944.99671 354.787778 
L 944.1288 355.248358 
L 943.691711 355.901935 
L 944.321033 358.549449 
L 945.526284 359.50353 
L 946.738807 359.611806 
L 947.562109 359.384685 
L 947.793183 358.959435 
L 947.655085 356.380027 
L 948.89166 355.751522 
L 947.964599 355.182967 
L 947.83553 354.656845 
L 948.20595 354.434107 
L 949.694158 355.074086 
L 950.342768 354.680099 
L 950.938752 353.654435 
L 950.933729 350.971282 
L 951.580098 351.243707 
L 952.630721 350.826919 
L 952.848762 350.27573 
L 953.870819 350.740689 
L 954.383354 351.747627 
L 954.511934 353.35438 
L 955.100661 354.238094 
L 955.659308 354.382462 
L 956.64126 353.838676 
L 957.184117 353.910706 
L 958.78613 355.423381 
L 960.006422 355.338972 
L 960.607416 354.783411 
L 961.122427 352.549966 
L 961.499114 352.184975 
L 964.184555 352.873753 
L 963.209643 354.1898 
L 963.635713 354.979291 
L 964.918918 355.673491 
L 966.612645 356.05888 
L 966.935461 357.151294 
L 967.374811 357.545585 
L 969.605607 357.141951 
L 971.203612 359.039418 
L 971.966777 360.419663 
L 972.995342 360.567209 
L 973.504102 360.082318 
L 973.868983 358.186831 
L 974.250175 357.73335 
L 976.4028 358.394338 
L 977.241143 358.319441 
L 977.839377 357.892989 
L 978.085724 356.74999 
L 978.73934 355.875486 
L 978.309013 355.732021 
L 977.448126 356.346031 
L 977.369174 356.054731 
L 977.826559 355.532536 
L 978.491459 355.270987 
L 979.789703 355.521669 
L 980.378409 354.91521 
L 981.808977 355.045837 
L 982.506205 354.462178 
L 982.922755 354.929865 
L 983.326001 354.424277 
L 983.298921 353.774624 
L 983.575108 353.695943 
L 984.127507 354.385763 
L 984.739535 354.105174 
L 985.255054 353.118154 
L 985.583376 353.096099 
L 988.425534 355.055309 
L 989.101725 354.97662 
L 990.103471 354.119616 
L 990.989199 354.644981 
L 991.129278 353.552244 
L 991.246063 352.980812 
L 991.700442 352.586661 
L 993.249571 352.925956 
L 995.424742 351.92515 
L 996.098426 351.919853 
L 996.037764 351.268532 
L 996.325481 350.957284 
L 997.747791 351.292961 
L 998.288407 352.561315 
L 999.166852 352.458004 
L 998.931768 352.807455 
L 998.249817 352.991858 
L 998.363352 353.285426 
L 999.386654 352.810617 
L 999.847563 353.444717 
L 1000.857064 353.258054 
L 1001.399668 354.076691 
L 1005.393079 353.872172 
L 1005.189814 352.835165 
L 1006.315614 353.250442 
L 1006.825625 353.239413 
L 1007.123853 352.010766 
L 1007.574982 352.807961 
L 1007.989759 352.52209 
L 1007.97997 351.278195 
L 1008.546619 350.153148 
L 1011.362641 350.996991 
L 1012.031057 351.103 
L 1012.073418 352.042149 
L 1012.318281 352.234692 
L 1013.102229 351.860324 
L 1013.532302 351.99035 
L 1013.287696 352.842973 
L 1013.488449 353.177616 
L 1014.149588 352.022209 
L 1014.160619 352.851729 
L 1014.82678 353.336633 
L 1015.007486 354.04896 
L 1015.815242 353.91063 
L 1016.586922 354.455484 
L 1017.262863 354.058316 
L 1017.551838 354.776379 
L 1018.209488 355.063457 
L 1018.192699 356.053808 
L 1018.920775 356.038401 
L 1019.239074 356.541878 
L 1019.06389 357.09142 
L 1020.12305 357.670706 
L 1020.903512 358.685819 
L 1022.175453 358.68249 
L 1022.699016 359.071344 
L 1023.346637 358.529809 
L 1023.98173 358.54642 
L 1023.39526 358.965029 
L 1023.358168 359.305561 
L 1024.454919 359.185198 
L 1024.0296 359.973333 
L 1024.706542 359.884226 
L 1024.300279 360.33063 
L 1024.721576 360.588094 
L 1026.385962 361.022663 
L 1027.12605 360.775284 
L 1027.552359 360.943349 
L 1027.918768 361.522924 
L 1027.142594 361.768039 
L 1027.094223 361.981723 
L 1027.451862 362.073682 
L 1028.101479 361.821624 
L 1028.332298 361.275556 
L 1029.343816 361.999632 
L 1029.864102 361.470168 
L 1030.080894 361.807076 
L 1030.665096 361.749975 
L 1030.517732 362.102291 
L 1029.862354 362.137195 
L 1029.756342 362.40177 
L 1030.148067 362.532085 
L 1031.167847 362.157394 
L 1031.282389 362.686844 
L 1030.616735 362.901301 
L 1030.618239 363.190036 
L 1031.010967 363.302532 
L 1032.068845 362.894162 
L 1031.836775 363.764612 
L 1032.312956 363.377099 
L 1032.639772 363.684404 
L 1033.432242 363.331319 
L 1034.765061 363.154004 
L 1034.751284 363.92991 
L 1034.251296 364.424638 
L 1034.52147 364.735113 
L 1035.009687 364.709885 
L 1035.728988 365.646298 
L 1036.161065 365.587998 
L 1036.630979 364.860864 
L 1036.909676 364.990878 
L 1036.854546 365.678895 
L 1036.100417 366.168191 
L 1036.905432 366.667722 
L 1038.285355 365.660134 
L 1039.151521 366.301468 
L 1039.268552 365.394182 
L 1039.920172 365.018902 
L 1040.146991 365.206003 
L 1040.066047 366.111321 
L 1041.291593 364.89656 
L 1041.758011 365.161883 
L 1041.353007 366.119302 
L 1042.157268 366.259734 
L 1042.339213 365.187247 
L 1043.844719 364.843077 
L 1043.987587 365.899556 
L 1045.842468 365.665471 
L 1046.238205 365.231759 
L 1047.066774 365.49859 
L 1047.904625 366.341829 
L 1047.885733 377.647286 
L 1047.812148 387.426593 
L 1047.718408 393.005935 
L 1047.764485 400.429669 
L 1047.927552 412.52667 
L 1047.942779 420.039258 
L 1047.932904 428.151915 
L 1048.759963 428.36484 
L 1048.940408 428.807903 
L 1049.833369 430.066052 
L 1050.070706 430.976344 
L 1051.196002 431.51901 
L 1051.780956 431.509275 
L 1051.598999 432.186552 
L 1052.393978 432.11287 
L 1052.615274 433.078351 
L 1052.985196 433.024749 
L 1053.112005 433.868217 
L 1053.525276 435.168268 
L 1054.527019 435.772164 
L 1054.929768 436.856043 
L 1054.631021 437.701469 
L 1055.326504 438.609118 
L 1055.1636 439.321728 
L 1055.366606 439.511174 
L 1055.908708 439.359565 
L 1055.265612 440.81748 
L 1055.443557 441.64086 
L 1055.17088 441.870462 
L 1055.011234 443.053095 
L 1054.485925 443.168009 
L 1054.58317 444.157878 
L 1055.118508 444.675389 
L 1055.309237 445.389815 
L 1056.30748 446.392446 
L 1056.860107 446.511677 
L 1057.377896 446.234802 
L 1057.899701 446.861876 
L 1058.74932 446.913687 
L 1058.315744 447.909889 
L 1057.282921 448.10173 
L 1057.256355 448.301891 
L 1058.059866 449.332167 
L 1058.991688 449.253652 
L 1058.876406 449.855652 
L 1059.366633 450.177082 
L 1059.066887 450.588577 
L 1059.122281 451.056256 
L 1059.350602 451.4439 
L 1060.121778 451.752722 
L 1060.218525 452.77936 
L 1061.079674 452.72267 
L 1059.693982 454.521473 
L 1059.544615 455.143252 
L 1060.38096 456.172843 
L 1060.727072 456.030668 
L 1061.212036 456.678281 
L 1061.684215 456.603009 
L 1061.834591 456.831487 
L 1061.863423 457.933776 
L 1062.535353 458.428638 
L 1062.128848 459.640782 
L 1062.423836 460.387676 
L 1062.982232 460.70669 
L 1063.847885 459.96291 
L 1064.559664 460.167007 
L 1064.625079 460.471744 
L 1064.293752 460.540447 
L 1064.579218 461.070796 
L 1064.05817 461.220286 
L 1064.277726 462.278262 
L 1064.586998 462.53619 
L 1064.357176 462.92624 
L 1063.647908 463.192609 
L 1063.539392 463.541212 
L 1064.093273 463.770226 
L 1064.060946 464.26025 
L 1064.95142 464.565153 
L 1064.664208 465.265451 
L 1065.272727 465.980867 
L 1063.961966 466.961271 
L 1063.376507 466.806025 
L 1063.279518 467.009428 
L 1063.182528 467.629095 
L 1063.507587 467.850028 
L 1063.129644 468.464101 
L 1063.91084 468.701127 
L 1064.283266 469.227858 
L 1064.45244 469.075566 
L 1064.668222 470.06174 
L 1064.524864 470.412006 
L 1063.879758 470.494598 
L 1063.981757 471.268525 
L 1063.391788 471.403217 
L 1063.25971 472.024625 
L 1063.511082 472.592874 
L 1063.77524 473.051951 
L 1063.327121 473.651079 
L 1063.682005 473.76215 
L 1063.844909 474.316282 
L 1062.820356 475.35756 
L 1062.711833 476.539438 
L 1061.618619 477.584345 
L 1061.973513 478.129814 
L 1061.640432 478.108514 
L 1061.817135 478.9881 
L 1061.646479 479.919483 
L 1060.254278 480.471418 
L 1059.663582 481.784399 
L 1059.173863 481.770577 
L 1059.446304 482.428401 
L 1059.179897 482.73042 
L 1059.873382 483.441558 
L 1059.156097 483.401833 
L 1058.354865 483.855311 
L 1058.35262 484.616423 
L 1057.780213 485.512528 
L 1058.760667 486.409572 
L 1058.459179 487.112005 
L 1058.701039 487.463268 
L 1058.452177 487.764607 
L 1059.006573 488.500193 
L 1058.827636 488.798441 
L 1059.052715 489.585444 
L 1058.232682 489.967562 
L 1057.541986 490.923837 
L 1057.135248 491.994052 
L 1057.368843 492.56322 
L 1056.99091 493.088359 
L 1056.996187 493.613802 
L 1057.96213 495.037178 
L 1058.966139 495.335213 
L 1058.698515 497.631866 
L 1058.452651 498.386616 
L 1058.797007 499.948141 
L 1059.06618 500.153365 
L 1058.95139 501.137802 
L 1059.493994 501.239812 
L 1059.401515 501.516084 
L 1058.984975 501.517141 
L 1059.041363 502.439362 
L 1058.664922 502.565607 
L 1058.41931 503.320583 
L 1058.530333 504.711994 
L 1056.962667 506.871673 
L 1053.773716 507.477737 
L 1053.804816 508.509065 
L 1050.669838 514.298172 
L 1054.506965 519.99034 
L 1046.936734 520.009935 
L 1037.357983 524.529556 
L 1036.700603 524.843497 
L 1026.664691 529.556791 
L 1023.904348 532.284784 
L 1023.290062 531.522042 
L 1026.684477 527.886018 
L 1030.272378 525.592321 
L 1032.618206 526.207063 
L 1033.652522 524.65304 
L 1032.305178 525.113535 
L 1031.553309 524.763728 
L 1030.543548 523.773492 
L 1023.196783 525.374443 
L 1025.879443 520.625722 
L 1026.081177 516.823383 
L 1024.91677 515.302564 
L 1021.839104 516.613958 
L 1019.942135 520.228894 
L 1018.449912 519.687725 
L 1013.335922 514.86719 
L 1014.908327 518.525042 
L 1016.585758 519.786992 
L 1015.771491 524.55467 
L 1019.153946 526.887583 
L 1016.800084 528.463373 
L 1018.083037 528.298918 
L 1017.795586 529.900072 
L 1019.07879 530.063233 
L 1018.962237 528.966301 
L 1019.811626 530.886152 
L 1022.301098 532.010108 
L 1019.800602 531.103607 
L 1019.560286 534.470666 
L 1017.840739 533.791883 
L 1014.055319 538.939868 
L 1010.962341 538.775397 
L 1010.822471 542.040617 
L 1009.752797 542.528529 
L 1008.07532 547.54931 
L 998.93712 554.482696 
L 993.797685 557.502529 
L 994.182404 556.484064 
L 990.403464 557.030706 
L 985.444707 558.947214 
L 984.825899 561.630388 
L 993.169608 557.817896 
L 976.599204 566.94614 
L 983.659749 562.669453 
L 983.919172 560.424575 
L 975.580708 563.663061 
L 975.53335 562.641948 
L 978.212501 562.083249 
L 975.486497 561.147878 
L 978.423085 556.088313 
L 976.415571 559.094939 
L 973.991289 560.084388 
L 974.503577 558.21371 
L 972.671247 561.178349 
L 971.422892 561.815966 
L 970.515649 559.746766 
L 970.484334 557.538795 
L 969.355775 558.093587 
L 968.61369 556.390503 
L 969.185847 558.678065 
L 970.133962 557.797468 
L 969.628437 560.997184 
L 971.053719 562.128404 
L 967.249506 564.232143 
L 969.024924 562.646868 
L 968.459031 560.313551 
L 967.510162 562.604722 
L 966.569823 562.203865 
L 966.575095 560.566551 
L 964.648046 561.09206 
L 964.642796 558.892085 
L 964.588435 554.286923 
L 964.448058 558.93769 
L 963.95484 557.881905 
L 962.147591 558.009277 
L 961.704229 559.39743 
L 963.455323 561.592128 
L 963.335763 564.153095 
L 964.769335 563.553057 
L 967.401373 566.240034 
L 964.884595 567.688673 
L 966.352748 568.037051 
L 967.732444 566.507927 
L 970.55017 569.096705 
L 961.661516 574.155665 
L 960.312926 572.812359 
L 960.265321 570.60785 
L 959.051303 570.308096 
L 957.529539 567.376777 
L 956.321273 568.479901 
L 957.488678 568.613924 
L 958.449058 570.013024 
L 957.914972 570.776302 
L 955.348341 570.247167 
L 957.492161 572.32649 
L 957.55656 573.894573 
L 957.32447 575.536878 
L 957.830473 577.200387 
L 956.984369 577.909074 
L 952.148375 581.752531 
L 953.40272 576.113837 
L 951.346867 577.936661 
L 952.471414 578.88589 
L 951.3534 581.725204 
L 949.431386 580.840379 
L 949.761442 578.370278 
L 946.204918 581.116331 
L 946.087371 579.873993 
L 945.017227 579.967011 
L 945.376374 581.672335 
L 941.985504 583.717202 
L 942.611302 584.353396 
L 941.656694 585.252803 
L 942.776209 584.675341 
L 946.492642 584.131191 
L 949.66823 582.014003 
L 949.753706 585.478254 
L 946.770359 589.628823 
L 944.114814 593.712725 
L 942.42112 593.31293 
L 943.527607 592.964938 
L 941.223401 591.380136 
L 938.675603 592.61487 
L 939.18235 591.299672 
L 934.789237 592.099982 
L 934.220079 591.209047 
L 933.398295 591.677858 
L 934.126347 592.484757 
L 934.774205 593.393661 
L 937.772371 592.952454 
L 937.508979 595.350824 
L 940.096389 597.671096 
L 939.054557 597.548268 
L 940.023461 598.525806 
L 938.928005 600.498516 
L 937.421769 600.799952 
L 939.120483 600.869082 
L 940.378338 597.843773 
L 942.330174 598.597122 
L 939.647548 603.605188 
L 936.993317 613.157304 
L 934.096875 613.211028 
L 933.863473 608.478595 
L 933.178838 612.243808 
L 930.822516 613.984283 
L 925.896277 609.252481 
L 928.198007 614.212386 
L 924.757462 614.475753 
L 932.529281 616.752439 
L 936.502135 615.369844 
L 933.996223 622.637564 
L 934.80125 626.00371 
L 931.858927 626.741992 
L 932.204317 631.959686 
L 934.256701 634.028906 
L 935.698099 641.660986 
L 936.546987 644.937129 
L 934.942238 646.576802 
L 936.700355 650.208681 
L 938.424658 651.237884 
L 938.928401 658.229291 
L 942.221382 662.747436 
L 941.459223 665.36174 
L 943.536171 665.09286 
L 944.878806 667.250293 
L 940.446706 666.832449 
L 940.535693 667.879941 
L 938.020908 668.736724 
L 937.868066 671.573473 
L 936.268064 671.579974 
L 931.151978 668.095024 
L 931.649706 667.26605 
L 930.401841 666.956099 
L 929.250448 664.523764 
L 922.041185 663.0711 
L 916.370003 663.100614 
L 915.178279 664.081118 
L 914.952719 662.848728 
L 911.093587 663.25969 
L 908.095862 661.568236 
L 908.77229 660.66603 
L 908.085078 660.19443 
L 906.913671 661.032159 
L 906.281082 659.17029 
L 905.054781 659.275169 
L 902.792374 656.706803 
L 901.638508 657.473481 
L 897.977406 655.141462 
L 895.416811 655.8698 
L 890.754989 650.604309 
L 887.829244 651.187921 
L 886.83151 649.803174 
L 881.330644 648.844438 
L 881.503289 646.120519 
L 879.29557 643.848802 
L 879.389539 642.496527 
L 875.45725 631.512671 
L 872.008186 627.978898 
L 871.935998 626.042363 
L 869.88791 624.732153 
L 870.476114 617.980739 
L 869.552562 615.182539 
L 866.979914 613.251962 
L 868.724016 606.439056 
L 867.533303 605.903506 
L 866.79599 601.614609 
L 861.365712 599.677616 
L 858.040177 594.984693 
L 856.101844 594.288852 
L 853.896829 586.79931 
L 852.206609 586.143042 
L 848.802842 580.172625 
L 844.954476 578.286251 
L 844.645947 576.72172 
L 842.200091 575.181968 
L 842.36524 573.598254 
L 840.437672 570.675928 
L 839.609834 567.332125 
L 840.627111 566.454904 
L 838.205075 564.737644 
L 838.742414 562.934811 
L 835.630394 560.11413 
L 832.612083 550.881314 
L 830.725372 549.767875 
L 830.017566 543.524257 
L 826.737864 540.100152 
L 825.805517 537.094319 
L 818.839127 531.918411 
L 816.92383 527.948036 
L 810.548723 525.853239 
L 810.773498 521.804543 
L 808.98833 523.698381 
L 809.089061 520.867118 
L 807.034713 520.679918 
L 805.467806 517.185608 
L 805.95475 516.21688 
L 804.405917 516.585828 
L 803.681859 515.47328 
L 801.452077 516.489611 
L 801.267847 514.625024 
L 800.034796 516.405217 
L 798.123544 516.729463 
L 794.200512 515.533748 
L 792.685735 515.817518 
L 792.229333 514.466589 
L 788.775978 515.480961 
" clip-path="url(#paa155d91de)" style="fill: #ffffff; stroke: #000000"/>
    <path d="M 941.757224 646.493656 
L 941.38604 644.076595 
L 940.644173 641.659465 
L 938.775241 637.478251 
L 938.009546 632.976125 
L 937.550368 628.953679 
L 937.366342 621.462392 
L 937.764546 617.882859 
L 938.101381 617.772092 
L 937.825741 622.015914 
L 938.009503 627.883472 
L 938.77521 633.677261 
L 940.818108 641.673433 
L 942.911602 648.899022 
L 944.130907 655.189356 
L 944.892812 662.375131 
L 944.645194 662.60474 
L 943.673516 655.533735 
L 943.102084 651.653899 
L 942.282786 648.853037 
L 941.757224 646.493656 
" clip-path="url(#paa155d91de)" style="fill: #ffffff; stroke: #000000"/>
    <path d="M 948.062328 593.750179 
L 946.822509 593.435778 
L 948.776091 592.990162 
L 943.186827 603.14253 
L 938.739175 614.634094 
L 938.073559 617.534401 
L 938.181544 614.597479 
L 939.514761 608.414994 
L 942.367045 602.860446 
L 942.038211 600.065074 
L 943.848206 601.636005 
L 944.945393 597.859681 
L 948.062328 593.750179 
" clip-path="url(#paa155d91de)" style="fill: #ffffff; stroke: #000000"/>
    <path d="M 952.507775 584.461073 
L 954.726519 581.077602 
L 955.876124 582.247905 
L 955.338044 584.323733 
L 948.906159 592.575269 
L 949.733185 589.668617 
L 952.19827 586.891909 
L 951.422593 586.245596 
L 952.507775 584.461073 
" clip-path="url(#paa155d91de)" style="fill: #ffffff; stroke: #000000"/>
    <path d="M 956.979359 579.464227 
L 959.112408 579.013986 
L 965.904828 573.681352 
L 968.174227 573.380998 
L 969.504558 570.783859 
L 970.315057 572.58873 
L 955.968105 583.653937 
L 956.979359 579.464227 
" clip-path="url(#paa155d91de)" style="fill: #ffffff; stroke: #000000"/>
    <path d="M 1019.079355 536.497591 
L 1023.877038 533.137536 
L 1024.500348 534.046462 
L 1012.772593 542.855704 
L 1019.079355 536.497591 
" clip-path="url(#paa155d91de)" style="fill: #ffffff; stroke: #000000"/>
    <path d="M 554.759807 325.33929 
L 554.8259 310.974366 
L 554.786294 269.723538 
L 554.765481 230.137001 
L 576.971551 230.02494 
L 606.535946 230.052449 
L 608.560741 230.10197 
L 625.656948 230.040292 
L 626.613549 230.419627 
L 639.39412 230.340349 
L 655.167387 230.309257 
L 664.317114 230.219363 
L 680.753652 230.296791 
L 682.951866 230.272923 
L 720.811418 230.222976 
L 750.893397 230.013515 
L 753.526443 230.062461 
L 753.536577 250.099792 
L 752.554862 250.130607 
L 752.661253 267.372125 
L 752.708414 279.792079 
L 752.718871 284.490289 
L 752.592165 302.161435 
L 752.621726 310.573199 
L 752.706945 319.26055 
L 752.477372 336.580547 
L 752.358698 355.647403 
L 752.178755 365.953537 
L 752.035383 373.39644 
L 751.830738 390.189144 
L 751.479673 407.532145 
L 751.623475 424.571721 
L 751.532376 427.861201 
L 742.527331 427.771784 
L 729.489784 427.694691 
L 721.214077 427.703153 
L 719.96845 427.648191 
L 692.645712 427.812025 
L 690.305668 427.767802 
L 654.798156 427.875642 
L 642.475006 427.911701 
L 634.419206 427.898174 
L 633.550802 428.719975 
L 634.124232 429.041018 
L 634.086666 431.341801 
L 633.74733 432.089829 
L 634.665635 434.087606 
L 634.70299 435.152749 
L 637.18215 436.400907 
L 612.740871 436.449289 
L 582.530171 436.377237 
L 582.287322 453.916441 
L 554.859595 453.9323 
L 554.732133 410.441863 
L 554.671332 397.080861 
L 554.698282 380.231874 
L 554.704083 357.344901 
L 554.759807 325.33929 
" clip-path="url(#paa155d91de)" style="fill: #ffffff; stroke: #000000"/>
    <path d="M 414.151594 426.214431 
L 365.119735 408.655488 
L 365.52599 403.553639 
L 368.395167 399.404366 
L 368.702433 398.843972 
L 369.315208 398.590129 
L 372.274839 399.189499 
L 372.288621 398.809408 
L 373.325458 398.747952 
L 373.317186 398.297038 
L 373.693625 398.29281 
L 373.666304 397.824981 
L 374.276576 397.825133 
L 374.270559 397.410158 
L 374.700632 397.403062 
L 374.536969 396.744506 
L 374.827945 395.878911 
L 376.955999 394.473156 
L 376.463014 390.891031 
L 376.727669 389.233084 
L 375.011629 387.256962 
L 373.748215 386.897702 
L 372.078291 387.284891 
L 371.288564 387.024999 
L 370.92089 386.595676 
L 370.303597 386.812976 
L 368.74645 384.577865 
L 368.808603 383.509313 
L 369.838173 381.732829 
L 369.774757 379.462687 
L 369.523129 378.8822 
L 369.852198 377.743737 
L 367.955715 376.251611 
L 369.001072 374.402496 
L 368.300322 372.08102 
L 370.923108 371.76209 
L 371.400048 370.95811 
L 371.71157 369.803191 
L 372.467198 369.109299 
L 372.829348 368.186174 
L 374.722795 366.181964 
L 374.367151 365.373003 
L 374.796705 363.725028 
L 374.859345 362.008192 
L 374.492427 361.326081 
L 375.831248 360.311287 
L 375.351292 358.932414 
L 375.539507 357.803606 
L 374.995386 355.653352 
L 375.304152 355.022579 
L 375.000641 354.19277 
L 375.748744 351.733998 
L 374.847241 350.650192 
L 375.091093 350.149438 
L 378.022142 347.584928 
L 378.184781 345.665411 
L 378.640158 344.702549 
L 381.510065 343.172776 
L 382.739628 341.987781 
L 384.368692 341.39429 
L 387.189206 338.197357 
L 387.99998 337.974006 
L 387.707736 336.314225 
L 387.074151 335.447268 
L 386.132544 334.308789 
L 383.643825 332.714107 
L 382.804478 332.453613 
L 382.164878 331.515982 
L 381.18693 330.759109 
L 379.74583 330.568843 
L 379.504228 329.879774 
L 379.735294 327.525194 
L 378.654085 325.658245 
L 377.847324 325.05496 
L 378.242559 324.582596 
L 376.817989 320.664314 
L 375.761348 319.283316 
L 374.849832 319.118875 
L 374.308236 318.681552 
L 373.382683 315.835142 
L 371.508768 314.106224 
L 371.40325 312.365663 
L 371.714269 311.411269 
L 371.344092 309.271889 
L 371.712259 309.221901 
L 371.294707 307.521662 
L 372.547823 306.167981 
L 371.224765 304.481643 
L 371.535789 303.877899 
L 372.975376 303.931193 
L 373.315721 303.634001 
L 373.684134 302.277003 
L 373.731988 300.462444 
L 372.802145 297.113933 
L 372.746484 294.991625 
L 370.913125 291.334454 
L 370.032155 288.761531 
L 370.768724 287.538942 
L 370.658937 286.026872 
L 371.094764 284.977192 
L 370.628335 283.582308 
L 370.154649 283.193761 
L 370.26616 281.740885 
L 369.486703 280.177328 
L 369.686433 278.906265 
L 369.452299 275.630836 
L 370.35253 274.699841 
L 370.380846 274.323219 
L 369.143238 273.090533 
L 367.929912 270.080441 
L 368.538894 268.136315 
L 368.167952 267.265592 
L 368.194747 266.188425 
L 368.700245 265.427625 
L 371.694453 263.971374 
L 372.439316 264.115124 
L 374.684917 263.451847 
L 376.785934 264.654471 
L 377.530545 264.799282 
L 379.604708 263.614112 
L 380.805965 264.148982 
L 381.730283 265.179927 
L 382.132302 266.143074 
L 382.009755 267.127824 
L 384.444349 268.865791 
L 385.321535 268.908375 
L 387.875396 267.939469 
L 388.573366 264.797801 
L 390.631995 261.912383 
L 390.885371 261.039677 
L 390.677625 236.264821 
L 390.670301 230.141078 
L 428.247955 230.153389 
L 439.990174 230.083414 
L 450.017741 230.182475 
L 478.960679 229.93634 
L 499.198902 229.905529 
L 507.607353 229.848603 
L 508.653695 230.330766 
L 523.605156 230.318049 
L 554.765481 230.137001 
L 554.786294 269.723538 
L 554.8259 310.974366 
L 554.759807 325.33929 
L 554.704083 357.344901 
L 554.698282 380.231874 
L 554.671332 397.080861 
L 554.732133 410.441863 
L 554.859595 453.9323 
L 508.642442 454.161623 
L 488.296304 454.241834 
L 478.521918 450.445489 
L 414.151594 426.214431 
" clip-path="url(#paa155d91de)" style="fill: #ffffff; stroke: #000000"/>
    <path d="M 115.702337 220.537617 
L 116.536196 216.052898 
L 114.821155 211.022532 
L 112.711631 209.303554 
L 112.957156 202.282746 
L 112.956937 199.009339 
L 116.152586 197.992615 
L 117.941519 201.294296 
L 117.289147 202.195813 
L 117.507925 205.864117 
L 126.389059 212.089058 
L 130.132867 211.765283 
L 126.266995 210.316648 
L 122.761732 200.899292 
L 119.060286 199.186669 
L 119.219927 194.701374 
L 117.119463 194.005367 
L 116.850533 191.467799 
L 119.61515 189.830855 
L 129.302248 188.154092 
L 139.211671 189.486429 
L 140.565247 187.008059 
L 143.221568 186.689867 
L 143.462672 187.896129 
L 144.187715 187.903828 
L 143.354641 185.911564 
L 143.968407 184.978776 
L 140.505097 186.597764 
L 140.319866 183.714997 
L 136.471857 187.773084 
L 132.516748 187.530266 
L 129.83027 184.894105 
L 121.6938 187.602702 
L 120.354922 184.105603 
L 118.950389 182.264184 
L 118.189995 182.753156 
L 119.94916 184.10983 
L 120.36247 186.557404 
L 116.233627 184.029646 
L 115.223892 185.911233 
L 113.261751 185.926789 
L 111.957208 184.451867 
L 113.734452 187.033542 
L 112.686397 189.678178 
L 114.81071 191.091332 
L 113.226037 193.117721 
L 114.269417 196.979332 
L 112.381723 197.45893 
L 107.43247 194.101383 
L 106.600378 194.597294 
L 102.314601 190.112836 
L 99.062969 189.204285 
L 97.899567 190.782458 
L 96.121376 190.63564 
L 98.4687 184.349204 
L 96.649623 178.650104 
L 94.870939 178.772264 
L 92.481246 173.251453 
L 86.686823 168.749032 
L 79.264769 160.42277 
L 72.760208 153.807235 
L 74.023371 149.17413 
L 69.744137 137.060348 
L 71.684401 128.981628 
L 70.735716 123.628246 
L 68.942939 118.114173 
L 63.374068 111.297852 
L 60.518779 107.267967 
L 52.282064 101.248608 
L 52.584256 98.274606 
L 50.727273 94.01175 
L 60.029799 72.516787 
L 58.707404 66.554079 
L 61.272923 59.230384 
L 61.721234 53.516664 
L 58.887835 42.866492 
L 55.639461 40.90438 
L 56.808811 38.071097 
L 56.843515 32.15988 
L 69.56582 32.345905 
L 79.615661 32.152556 
L 89.178033 31.979999 
L 119.970479 32.036498 
L 147.668519 32.291048 
L 166.379248 32.554792 
L 195.235305 32.494113 
L 195.141184 64.624821 
L 195.14642 122.301976 
L 195.151472 133.272045 
L 195.174706 138.495831 
L 195.167377 144.546065 
L 195.199767 146.627633 
L 195.179768 148.315657 
L 195.176331 151.062444 
L 198.655456 153.906982 
L 208.958651 162.590151 
L 217.396279 169.549685 
L 222.861499 174.114419 
L 247.006421 194.902751 
L 266.017159 211.900752 
L 288.297316 231.603589 
L 330.168273 269.542939 
L 338.694916 277.679257 
L 371.712259 309.221901 
L 371.344092 309.271889 
L 371.714269 311.411269 
L 371.40325 312.365663 
L 371.508768 314.106224 
L 373.382683 315.835142 
L 374.308236 318.681552 
L 374.849832 319.118875 
L 375.761348 319.283316 
L 376.817989 320.664314 
L 378.242559 324.582596 
L 377.847324 325.05496 
L 378.654085 325.658245 
L 379.735294 327.525194 
L 379.504228 329.879774 
L 379.74583 330.568843 
L 381.18693 330.759109 
L 382.164878 331.515982 
L 382.804478 332.453613 
L 383.643825 332.714107 
L 386.132544 334.308789 
L 387.074151 335.447268 
L 387.707736 336.314225 
L 387.99998 337.974006 
L 387.189206 338.197357 
L 384.368692 341.39429 
L 382.739628 341.987781 
L 381.510065 343.172776 
L 378.640158 344.702549 
L 378.184781 345.665411 
L 378.022142 347.584928 
L 375.091093 350.149438 
L 374.847241 350.650192 
L 375.748744 351.733998 
L 375.000641 354.19277 
L 375.304152 355.022579 
L 374.995386 355.653352 
L 375.539507 357.803606 
L 375.351292 358.932414 
L 375.831248 360.311287 
L 374.492427 361.326081 
L 374.859345 362.008192 
L 374.796705 363.725028 
L 374.367151 365.373003 
L 374.722795 366.181964 
L 372.829348 368.186174 
L 372.467198 369.109299 
L 371.71157 369.803191 
L 371.400048 370.95811 
L 370.923108 371.76209 
L 368.300322 372.08102 
L 369.001072 374.402496 
L 367.955715 376.251611 
L 369.852198 377.743737 
L 369.523129 378.8822 
L 369.774757 379.462687 
L 369.838173 381.732829 
L 368.808603 383.509313 
L 368.74645 384.577865 
L 370.303597 386.812976 
L 370.92089 386.595676 
L 371.288564 387.024999 
L 372.078291 387.284891 
L 373.748215 386.897702 
L 375.011629 387.256962 
L 376.727669 389.233084 
L 376.463014 390.891031 
L 376.955999 394.473156 
L 374.827945 395.878911 
L 374.536969 396.744506 
L 374.700632 397.403062 
L 374.270559 397.410158 
L 374.276576 397.825133 
L 373.666304 397.824981 
L 373.693625 398.29281 
L 373.317186 398.297038 
L 373.325458 398.747952 
L 372.288621 398.809408 
L 372.274839 399.189499 
L 369.315208 398.590129 
L 368.702433 398.843972 
L 368.395167 399.404366 
L 322.901963 403.418012 
L 289.359179 406.731061 
L 287.003456 399.499974 
L 289.605266 404.075096 
L 289.47641 401.06411 
L 287.037533 398.68875 
L 285.413741 401.01809 
L 284.194441 394.243628 
L 285.194934 392.780781 
L 282.778195 383.940539 
L 280.094284 379.08682 
L 273.945399 372.73523 
L 257.212644 358.759649 
L 252.617126 357.716109 
L 251.294106 360.487928 
L 247.411474 359.120447 
L 246.627519 357.655809 
L 247.96707 356.195959 
L 247.18083 353.399391 
L 242.918885 347.291671 
L 234.829501 348.043624 
L 229.861274 347.179659 
L 220.762978 342.973124 
L 219.106314 339.340674 
L 212.002997 333.926548 
L 207.953263 332.280779 
L 199.309426 332.741522 
L 194.642843 330.49037 
L 190.416265 330.084963 
L 180.034711 331.248949 
L 178.287044 328.126512 
L 173.954705 326.10898 
L 175.257688 320.895919 
L 174.270705 318.683603 
L 175.043127 314.894724 
L 173.144866 312.986862 
L 173.854631 310.26216 
L 174.760416 306.217126 
L 174.049401 303.635561 
L 166.726344 300.895099 
L 165.995274 298.909725 
L 167.099045 294.747826 
L 166.270718 292.244791 
L 162.436085 291.104042 
L 157.357279 284.26564 
L 153.293802 282.911234 
L 151.361659 277.46803 
L 147.536049 274.347886 
L 139.512057 262.420833 
L 133.189772 257.440362 
L 130.791619 246.520948 
L 132.232455 244.238569 
L 133.67908 245.53364 
L 135.611153 243.930052 
L 137.160748 237.169738 
L 136.164747 235.929195 
L 133.148409 231.504466 
L 127.308038 232.082097 
L 123.625323 229.969605 
L 120.301313 225.776798 
L 115.702337 220.537617 
" clip-path="url(#paa155d91de)" style="fill: #ffffff; stroke: #000000"/>
    <path d="M 187.184399 348.335455 
L 193.483091 347.139125 
L 196.223185 350.834298 
L 191.434037 352.93042 
L 189.522011 351.768601 
L 187.184399 348.335455 
" clip-path="url(#paa155d91de)" style="fill: #ffffff; stroke: #000000"/>
    <path d="M 249.18961 395.511428 
L 246.918186 396.029261 
L 243.910179 392.626256 
L 241.024728 387.52162 
L 241.94552 386.929807 
L 242.927736 388.853249 
L 249.18961 395.511428 
" clip-path="url(#paa155d91de)" style="fill: #ffffff; stroke: #000000"/>
    <path d="M 242.439966 371.153772 
L 241.180324 369.319455 
L 248.813897 372.082938 
L 251.041215 375.113878 
L 250.730938 376.180918 
L 245.759249 375.496377 
L 244.90663 371.744814 
L 242.439966 371.153772 
" clip-path="url(#paa155d91de)" style="fill: #ffffff; stroke: #000000"/>
    <path d="M 200.037284 350.016709 
L 198.664649 348.581513 
L 199.159841 347.504502 
L 197.395743 346.423582 
L 199.362308 345.788264 
L 205.928827 347.921442 
L 209.060412 346.55814 
L 210.686223 347.397022 
L 210.151381 348.509213 
L 204.463199 350.140682 
L 200.037284 350.016709 
" clip-path="url(#paa155d91de)" style="fill: #ffffff; stroke: #000000"/>
   </g>
   <g id="line2d_1">
    <path d="M 133.35183 204.548103 
L 133.218825 204.476015 
L 133.281632 204.08497 
L 133.840916 203.521244 
L 135.759257 203.236096 
L 135.746841 203.310798 
L 135.713302 202.450562 
L 135.846044 202.281603 
L 136.317688 202.31549 
L 137.191041 202.18402 
L 137.857019 202.193679 
L 139.023351 201.628014 
L 139.802296 201.431462 
L 140.336583 201.578767 
L 141.242489 201.237444 
L 141.54056 200.97011 
L 143.109421 200.662714 
L 144.106352 200.570079 
L 145.845634 200.681914 
L 147.706325 199.814671 
L 150.52778 199.724927 
L 151.396468 199.589656 
L 152.270675 198.746523 
L 153.04985 195.529449 
L 152.99877 194.974314 
L 152.41902 193.030174 
L 152.370404 192.522267 
L 153.26754 192.23799 
" clip-path="url(#paa155d91de)" style="fill: none; stroke: #fb8500; stroke-width: 1.166664; stroke-linecap: square"/>
   </g>
   <g id="line2d_2">
    <path d="M 1022.294251 500.929097 
L 1022.403375 500.593475 
L 1022.021376 500.578986 
L 1021.561327 500.115535 
L 1020.683737 500.100453 
L 1020.573431 500.501078 
L 1019.919902 500.902574 
L 1020.557072 502.622807 
L 1020.863322 502.826365 
L 1020.758797 503.878521 
L 1020.275393 504.356895 
L 1019.977914 505.274533 
L 1015.151692 509.646294 
L 1014.115179 511.752267 
L 1013.574421 512.235748 
L 1012.038277 512.92358 
L 1012.170296 515.864928 
" clip-path="url(#paa155d91de)" style="fill: none; stroke: #fb8500; stroke-width: 1.166627; stroke-linecap: square"/>
   </g>
   <g id="PathCollection_1">
    <path d="M 124.180142 213.724397 
L 142.510864 213.724397 
L 142.510864 195.393676 
L 124.180142 195.393676 
z
" clip-path="url(#paa155d91de)" style="fill: #7c369a"/>
    <path d="M 1013.07294 510.151209 
L 1031.401627 510.151209 
L 1031.401627 491.822522 
L 1013.07294 491.822522 
z
" clip-path="url(#paa155d91de)" style="fill: #7c369a"/>
   </g>
   <g id="PathCollection_2">
    <path d="M 153.269543 198.361262 
C 154.893559 198.361262 156.451278 197.716034 157.599631 196.567681 
C 158.747983 195.419328 159.393212 193.861609 159.393212 192.237594 
C 159.393212 190.613578 158.747983 189.055859 157.599631 187.907506 
C 156.451278 186.759154 154.893559 186.113925 153.269543 186.113925 
C 151.645528 186.113925 150.087809 186.759154 148.939456 187.907506 
C 147.791103 189.055859 147.145875 190.613578 147.145875 192.237594 
C 147.145875 193.861609 147.791103 195.419328 148.939456 196.567681 
C 150.087809 197.716034 151.645528 198.361262 153.269543 198.361262 
z
" clip-path="url(#paa155d91de)" style="fill: #ffffff; stroke: #000000; stroke-width: 0.5"/>
    <path d="M 1012.168884 521.987996 
C 1013.792719 521.987996 1015.350265 521.342839 1016.49849 520.194614 
C 1017.646716 519.046389 1018.291872 517.488843 1018.291872 515.865007 
C 1018.291872 514.241172 1017.646716 512.683625 1016.49849 511.5354 
C 1015.350265 510.387175 1013.792719 509.742018 1012.168884 509.742018 
C 1010.545048 509.742018 1008.987502 510.387175 1007.839277 511.5354 
C 1006.691052 512.683625 1006.045895 514.241172 1006.045895 515.865007 
C 1006.045895 517.488843 1006.691052 519.046389 1007.839277 520.194614 
C 1008.987502 521.342839 1010.545048 521.987996 1012.168884 521.987996 
z
" clip-path="url(#paa155d91de)" style="fill: #ffffff; stroke: #000000; stroke-width: 0.5"/>
   </g>
   <g id="legend_1">
    <g id="patch_2">
     <path d="M 34.92 687.524373 
L 244.099688 687.524373 
Q 247.699688 687.524373 247.699688 683.924373 
L 247.699688 562.733748 
Q 247.699688 559.133748 244.099688 559.133748 
L 34.92 559.133748 
Q 31.32 559.133748 31.32 562.733748 
L 31.32 683.924373 
Q 31.32 687.524373 34.92 687.524373 
z
" style="fill: #ffffff; stroke: #212121; stroke-linejoin: miter"/>
    </g>
    <g id="line2d_3">
     <path d="M 38.52 572.633748 
L 56.52 572.633748 
L 74.52 572.633748 
" style="fill: none"/>
     <defs>
      <path id="m227d3385d6" d="M -6 6 
L 6 6 
L 6 -6 
L -6 -6 
z
" style="stroke: #7c369a; stroke-linejoin: miter"/>
     </defs>
     <g>
      <use xlink:href="#m227d3385d6" x="56.52" y="572.633748" style="fill: #7c369a; stroke: #7c369a; stroke-linejoin: miter"/>
     </g>
    </g>
    <g id="text_1">
     <!-- Thermal Production -->
     <g transform="translate(88.92 578.933748) scale(0.18 -0.18)">
      <defs>
       <path id="FranklinGothic-Medium-54" d="M 1959 0 
L 1134 0 
L 1134 3606 
L 0 3606 
L 0 4266 
L 3094 4266 
L 3094 3606 
L 1959 3606 
L 1959 0 
z
" transform="scale(0.015625)"/>
       <path id="FranklinGothic-Medium-68" d="M 3041 0 
L 2328 0 
L 2328 2066 
Q 2328 2400 2186 2536 
Q 2044 2672 1853 2672 
Q 1550 2672 1344 2431 
Q 1138 2191 1138 1638 
L 1138 0 
L 425 0 
L 425 4266 
L 1138 4266 
L 1138 2603 
Q 1403 3284 2069 3284 
Q 3041 3284 3041 2169 
L 3041 0 
z
" transform="scale(0.015625)"/>
       <path id="FranklinGothic-Medium-65" d="M 2434 1006 
L 3078 919 
Q 2953 491 2590 212 
Q 2228 -66 1681 -66 
Q 1025 -66 625 375 
Q 225 816 225 1569 
Q 225 2284 628 2753 
Q 1031 3222 1722 3222 
Q 2397 3222 2765 2759 
Q 3134 2297 3134 1572 
L 3131 1491 
L 966 1491 
Q 966 1169 1027 975 
Q 1088 781 1269 637 
Q 1450 494 1722 494 
Q 2250 494 2434 1006 
z
M 2391 1950 
Q 2388 2291 2186 2506 
Q 1984 2722 1688 2722 
Q 1394 2722 1197 2520 
Q 1000 2319 966 1950 
L 2391 1950 
z
" transform="scale(0.015625)"/>
       <path id="FranklinGothic-Medium-72" d="M 1141 0 
L 428 0 
L 428 3156 
L 1072 3156 
L 1072 2403 
Q 1209 2844 1450 3047 
Q 1691 3250 1944 3250 
Q 1978 3250 2038 3247 
L 2038 2481 
Q 1494 2481 1317 2134 
Q 1141 1788 1141 1463 
L 1141 0 
z
" transform="scale(0.015625)"/>
       <path id="FranklinGothic-Medium-6d" d="M 5141 0 
L 4394 0 
L 4394 1966 
Q 4394 2578 3850 2578 
Q 3534 2578 3345 2347 
Q 3156 2116 3156 1656 
L 3156 0 
L 2400 0 
L 2400 1966 
Q 2400 2588 1891 2588 
Q 1581 2588 1370 2338 
Q 1159 2088 1159 1656 
L 1159 0 
L 425 0 
L 425 3156 
L 1116 3156 
L 1116 2484 
Q 1453 3222 2169 3222 
Q 2866 3222 3075 2484 
Q 3456 3222 4128 3222 
Q 4584 3222 4862 2937 
Q 5141 2653 5141 2231 
L 5141 0 
z
" transform="scale(0.015625)"/>
       <path id="FranklinGothic-Medium-61" d="M 3128 0 
L 2450 0 
Q 2359 288 2341 638 
Q 2056 -66 1272 -66 
Q 800 -66 514 211 
Q 228 488 228 906 
Q 228 1994 2138 1994 
Q 2213 1994 2341 1991 
L 2341 2228 
Q 2341 2719 1672 2719 
Q 1022 2719 934 2228 
L 328 2319 
Q 378 2713 734 2967 
Q 1091 3222 1766 3222 
Q 2131 3222 2362 3161 
Q 2594 3100 2753 2954 
Q 2913 2809 2973 2639 
Q 3034 2469 3034 2063 
L 3034 638 
Q 3034 328 3128 0 
z
M 2341 1606 
Q 959 1606 959 947 
Q 959 750 1098 611 
Q 1238 472 1519 472 
Q 1925 472 2133 730 
Q 2341 988 2341 1316 
L 2341 1606 
z
" transform="scale(0.015625)"/>
       <path id="FranklinGothic-Medium-6c" d="M 1138 0 
L 425 0 
L 425 4266 
L 1138 4266 
L 1138 0 
z
" transform="scale(0.015625)"/>
       <path id="FranklinGothic-Medium-20" transform="scale(0.015625)"/>
       <path id="FranklinGothic-Medium-50" d="M 1238 0 
L 469 0 
L 469 4266 
L 2216 4266 
Q 2963 4266 3323 3889 
Q 3684 3513 3684 3000 
Q 3684 2416 3293 2053 
Q 2903 1691 2303 1691 
L 1238 1691 
L 1238 0 
z
M 1238 2350 
L 2147 2350 
Q 2503 2350 2690 2525 
Q 2878 2700 2878 2991 
Q 2878 3253 2704 3440 
Q 2531 3628 2078 3628 
L 1238 3628 
L 1238 2350 
z
" transform="scale(0.015625)"/>
       <path id="FranklinGothic-Medium-6f" d="M 1663 -66 
Q 963 -66 594 437 
Q 225 941 225 1591 
Q 225 2291 633 2756 
Q 1041 3222 1709 3222 
Q 2344 3222 2751 2769 
Q 3159 2316 3159 1591 
Q 3159 844 2736 389 
Q 2313 -66 1663 -66 
z
M 1688 522 
Q 2406 522 2406 1594 
Q 2406 2078 2234 2358 
Q 2063 2638 1706 2638 
Q 1338 2638 1159 2348 
Q 981 2059 981 1581 
Q 981 1066 1170 794 
Q 1359 522 1688 522 
z
" transform="scale(0.015625)"/>
       <path id="FranklinGothic-Medium-64" d="M 3022 0 
L 2356 0 
L 2356 638 
Q 2081 -66 1425 -66 
Q 844 -66 534 418 
Q 225 903 225 1622 
Q 225 2291 547 2787 
Q 869 3284 1463 3284 
Q 2072 3284 2309 2728 
L 2309 4266 
L 3022 4266 
L 3022 0 
z
M 2309 1863 
Q 2309 2247 2126 2461 
Q 1944 2675 1653 2675 
Q 1338 2675 1159 2400 
Q 981 2125 981 1578 
Q 981 522 1644 522 
Q 1906 522 2107 748 
Q 2309 975 2309 1328 
L 2309 1863 
z
" transform="scale(0.015625)"/>
       <path id="FranklinGothic-Medium-75" d="M 3025 0 
L 2363 0 
L 2363 681 
Q 2094 -66 1366 -66 
Q 934 -66 681 201 
Q 428 469 428 947 
L 428 3156 
L 1156 3156 
L 1156 1100 
Q 1156 759 1306 653 
Q 1456 547 1600 547 
Q 1831 547 2072 755 
Q 2313 963 2313 1641 
L 2313 3156 
L 3025 3156 
L 3025 0 
z
" transform="scale(0.015625)"/>
       <path id="FranklinGothic-Medium-63" d="M 2250 1159 
L 2863 1097 
Q 2744 503 2403 218 
Q 2063 -66 1581 -66 
Q 928 -66 576 411 
Q 225 888 225 1578 
Q 225 2291 609 2756 
Q 994 3222 1634 3222 
Q 2666 3222 2863 2134 
L 2250 2050 
Q 2169 2638 1672 2638 
Q 1309 2638 1145 2320 
Q 981 2003 981 1553 
Q 981 1075 1151 815 
Q 1322 556 1628 556 
Q 2097 556 2250 1159 
z
" transform="scale(0.015625)"/>
       <path id="FranklinGothic-Medium-74" d="M 1891 556 
L 1891 0 
Q 1572 -69 1397 -69 
Q 1109 -69 903 45 
Q 697 159 601 357 
Q 506 556 506 969 
L 506 2603 
L 113 2603 
L 113 3156 
L 547 3156 
L 613 3978 
L 1197 4031 
L 1197 3156 
L 1831 3156 
L 1831 2603 
L 1197 2603 
L 1197 1063 
Q 1197 766 1305 658 
Q 1413 550 1713 550 
Q 1797 550 1891 556 
z
" transform="scale(0.015625)"/>
       <path id="FranklinGothic-Medium-69" d="M 1138 3525 
L 425 3525 
L 425 4266 
L 1138 4266 
L 1138 3525 
z
M 1138 0 
L 425 0 
L 425 3156 
L 1138 3156 
L 1138 0 
z
" transform="scale(0.015625)"/>
       <path id="FranklinGothic-Medium-6e" d="M 3041 0 
L 2328 0 
L 2328 1972 
Q 2328 2284 2184 2442 
Q 2041 2600 1838 2600 
Q 1559 2600 1350 2356 
Q 1141 2113 1141 1622 
L 1141 0 
L 428 0 
L 428 3156 
L 1078 3156 
L 1078 2425 
Q 1419 3222 2034 3222 
Q 2450 3222 2745 2959 
Q 3041 2697 3041 2038 
L 3041 0 
z
" transform="scale(0.015625)"/>
      </defs>
      <use xlink:href="#FranklinGothic-Medium-54"/>
      <use xlink:href="#FranklinGothic-Medium-68" x="48.339844"/>
      <use xlink:href="#FranklinGothic-Medium-65" x="102.539062"/>
      <use xlink:href="#FranklinGothic-Medium-72" x="154.980469"/>
      <use xlink:href="#FranklinGothic-Medium-6d" x="188.134766"/>
      <use xlink:href="#FranklinGothic-Medium-61" x="275.146484"/>
      <use xlink:href="#FranklinGothic-Medium-6c" x="329.199219"/>
      <use xlink:href="#FranklinGothic-Medium-20" x="353.662109"/>
      <use xlink:href="#FranklinGothic-Medium-50" x="378.662109"/>
      <use xlink:href="#FranklinGothic-Medium-72" x="438.574219"/>
      <use xlink:href="#FranklinGothic-Medium-6f" x="471.103516"/>
      <use xlink:href="#FranklinGothic-Medium-64" x="523.984375"/>
      <use xlink:href="#FranklinGothic-Medium-75" x="577.841797"/>
      <use xlink:href="#FranklinGothic-Medium-63" x="631.796875"/>
      <use xlink:href="#FranklinGothic-Medium-74" x="678.378906"/>
      <use xlink:href="#FranklinGothic-Medium-69" x="710.605469"/>
      <use xlink:href="#FranklinGothic-Medium-6f" x="735.068359"/>
      <use xlink:href="#FranklinGothic-Medium-6e" x="787.949219"/>
     </g>
    </g>
    <g id="line2d_4">
     <path d="M 38.52 597.231873 
L 56.52 597.231873 
L 74.52 597.231873 
" style="fill: none"/>
     <defs>
      <path id="mfa71e8b3b4" d="M -6 6 
L 6 6 
L 6 -6 
L -6 -6 
z
" style="stroke: #219ebc; stroke-linejoin: miter"/>
     </defs>
     <g>
      <use xlink:href="#mfa71e8b3b4" x="56.52" y="597.231873" style="fill: #219ebc; stroke: #219ebc; stroke-linejoin: miter"/>
     </g>
    </g>
    <g id="text_2">
     <!-- Electric Production -->
     <g transform="translate(88.92 603.531873) scale(0.18 -0.18)">
      <defs>
       <path id="FranklinGothic-Medium-45" d="M 3241 0 
L 469 0 
L 469 4266 
L 3213 4266 
L 3213 3631 
L 1238 3631 
L 1238 2475 
L 2825 2475 
L 2825 1856 
L 1238 1856 
L 1238 663 
L 3241 663 
L 3241 0 
z
" transform="scale(0.015625)"/>
      </defs>
      <use xlink:href="#FranklinGothic-Medium-45"/>
      <use xlink:href="#FranklinGothic-Medium-6c" x="53.662109"/>
      <use xlink:href="#FranklinGothic-Medium-65" x="78.125"/>
      <use xlink:href="#FranklinGothic-Medium-63" x="130.566406"/>
      <use xlink:href="#FranklinGothic-Medium-74" x="177.148438"/>
      <use xlink:href="#FranklinGothic-Medium-72" x="209.375"/>
      <use xlink:href="#FranklinGothic-Medium-69" x="242.529297"/>
      <use xlink:href="#FranklinGothic-Medium-63" x="266.992188"/>
      <use xlink:href="#FranklinGothic-Medium-20" x="313.574219"/>
      <use xlink:href="#FranklinGothic-Medium-50" x="338.574219"/>
      <use xlink:href="#FranklinGothic-Medium-72" x="398.486328"/>
      <use xlink:href="#FranklinGothic-Medium-6f" x="431.015625"/>
      <use xlink:href="#FranklinGothic-Medium-64" x="483.896484"/>
      <use xlink:href="#FranklinGothic-Medium-75" x="537.753906"/>
      <use xlink:href="#FranklinGothic-Medium-63" x="591.708984"/>
      <use xlink:href="#FranklinGothic-Medium-74" x="638.291016"/>
      <use xlink:href="#FranklinGothic-Medium-69" x="670.517578"/>
      <use xlink:href="#FranklinGothic-Medium-6f" x="694.980469"/>
      <use xlink:href="#FranklinGothic-Medium-6e" x="747.861328"/>
     </g>
    </g>
    <g id="line2d_5">
     <path d="M 38.52 621.829998 
L 56.52 621.829998 
L 74.52 621.829998 
" style="fill: none"/>
     <defs>
      <path id="m5e6720a5da" d="M 0 5.5 
C 1.458617 5.5 2.857689 4.920485 3.889087 3.889087 
C 4.920485 2.857689 5.5 1.458617 5.5 0 
C 5.5 -1.458617 4.920485 -2.857689 3.889087 -3.889087 
C 2.857689 -4.920485 1.458617 -5.5 0 -5.5 
C -1.458617 -5.5 -2.857689 -4.920485 -3.889087 -3.889087 
C -4.920485 -2.857689 -5.5 -1.458617 -5.5 0 
C -5.5 1.458617 -4.920485 2.857689 -3.889087 3.889087 
C -2.857689 4.920485 -1.458617 5.5 0 5.5 
z
" style="stroke: #000000"/>
     </defs>
     <g>
      <use xlink:href="#m5e6720a5da" x="56.52" y="621.829998" style="fill: #ffffff; stroke: #000000"/>
     </g>
    </g>
    <g id="text_3">
     <!-- Consumption -->
     <g transform="translate(88.92 628.129998) scale(0.18 -0.18)">
      <defs>
       <path id="FranklinGothic-Medium-43" d="M 2853 1481 
L 3566 1403 
Q 3497 763 3070 348 
Q 2644 -66 1950 -66 
Q 1366 -66 1002 228 
Q 638 522 441 1025 
Q 244 1528 244 2134 
Q 244 3109 706 3720 
Q 1169 4331 1978 4331 
Q 2613 4331 3034 3940 
Q 3456 3550 3566 2822 
L 2853 2747 
Q 2656 3713 1984 3713 
Q 1553 3713 1314 3311 
Q 1075 2909 1075 2147 
Q 1075 1372 1331 976 
Q 1588 581 2009 581 
Q 2347 581 2584 847 
Q 2822 1113 2853 1481 
z
" transform="scale(0.015625)"/>
       <path id="FranklinGothic-Medium-73" d="M 44 725 
L 713 853 
Q 866 469 1388 469 
Q 2050 469 2050 859 
Q 2050 984 1947 1065 
Q 1844 1147 1703 1175 
L 1128 1284 
Q 172 1469 172 2219 
Q 172 2638 475 2930 
Q 778 3222 1378 3222 
Q 2378 3222 2600 2488 
L 1966 2359 
Q 1866 2716 1397 2716 
Q 828 2716 828 2359 
Q 828 2113 1288 2019 
L 1966 1878 
Q 2756 1716 2756 972 
Q 2756 450 2350 192 
Q 1944 -66 1384 -66 
Q 900 -66 528 129 
Q 156 325 44 725 
z
" transform="scale(0.015625)"/>
       <path id="FranklinGothic-Medium-70" d="M 1153 -1066 
L 428 -1066 
L 428 3156 
L 1109 3156 
L 1109 2606 
Q 1438 3222 2075 3222 
Q 2600 3222 2912 2765 
Q 3225 2309 3225 1600 
Q 3225 928 2926 431 
Q 2628 -66 2038 -66 
Q 1428 -66 1153 441 
L 1153 -1066 
z
M 1153 1294 
Q 1153 950 1358 723 
Q 1563 497 1813 497 
Q 2153 497 2311 795 
Q 2469 1094 2469 1553 
Q 2469 2034 2309 2336 
Q 2150 2638 1834 2638 
Q 1550 2638 1351 2391 
Q 1153 2144 1153 1744 
L 1153 1294 
z
" transform="scale(0.015625)"/>
      </defs>
      <use xlink:href="#FranklinGothic-Medium-43"/>
      <use xlink:href="#FranklinGothic-Medium-6f" x="57.910156"/>
      <use xlink:href="#FranklinGothic-Medium-6e" x="110.791016"/>
      <use xlink:href="#FranklinGothic-Medium-73" x="164.941406"/>
      <use xlink:href="#FranklinGothic-Medium-75" x="210.351562"/>
      <use xlink:href="#FranklinGothic-Medium-6d" x="264.306641"/>
      <use xlink:href="#FranklinGothic-Medium-70" x="351.318359"/>
      <use xlink:href="#FranklinGothic-Medium-74" x="405.175781"/>
      <use xlink:href="#FranklinGothic-Medium-69" x="437.402344"/>
      <use xlink:href="#FranklinGothic-Medium-6f" x="461.865234"/>
      <use xlink:href="#FranklinGothic-Medium-6e" x="514.746094"/>
     </g>
    </g>
    <g id="line2d_6">
     <path d="M 38.52 646.428123 
L 56.52 646.428123 
L 74.52 646.428123 
" style="fill: none; stroke: #6a6262; stroke-width: 2; stroke-linecap: square"/>
    </g>
    <g id="text_4">
     <!-- Pipeline -->
     <g transform="translate(88.92 652.728123) scale(0.18 -0.18)">
      <use xlink:href="#FranklinGothic-Medium-50"/>
      <use xlink:href="#FranklinGothic-Medium-69" x="59.912109"/>
      <use xlink:href="#FranklinGothic-Medium-70" x="84.375"/>
      <use xlink:href="#FranklinGothic-Medium-65" x="138.232422"/>
      <use xlink:href="#FranklinGothic-Medium-6c" x="190.673828"/>
      <use xlink:href="#FranklinGothic-Medium-69" x="215.136719"/>
      <use xlink:href="#FranklinGothic-Medium-6e" x="239.599609"/>
      <use xlink:href="#FranklinGothic-Medium-65" x="293.75"/>
     </g>
    </g>
    <g id="line2d_7">
     <path d="M 38.52 671.026248 
L 56.52 671.026248 
L 74.52 671.026248 
" style="fill: none; stroke: #fb8500; stroke-width: 2; stroke-linecap: square"/>
    </g>
    <g id="text_5">
     <!-- Truck -->
     <g transform="translate(88.92 677.326248) scale(0.18 -0.18)">
      <defs>
       <path id="FranklinGothic-Medium-6b" d="M 3366 0 
L 2616 0 
L 1809 1619 
L 1109 834 
L 1109 0 
L 428 0 
L 428 4266 
L 1109 4266 
L 1109 1619 
Q 1200 1738 1253 1797 
L 2503 3156 
L 3269 3156 
L 2319 2113 
L 3366 0 
z
" transform="scale(0.015625)"/>
      </defs>
      <use xlink:href="#FranklinGothic-Medium-54"/>
      <use xlink:href="#FranklinGothic-Medium-72" x="43.214844"/>
      <use xlink:href="#FranklinGothic-Medium-75" x="76.369141"/>
      <use xlink:href="#FranklinGothic-Medium-63" x="130.324219"/>
      <use xlink:href="#FranklinGothic-Medium-6b" x="177.40625"/>
     </g>
    </g>
   </g>
  </g>
 </g>
 <defs>
  <clipPath id="paa155d91de">
   <rect x="0" y="-0" width="1116" height="703.559973"/>
  </clipPath>
 </defs>
</svg>
