<?xml version="1.0" encoding="utf-8" standalone="no"?>
<!DOCTYPE svg PUBLIC "-//W3C//DTD SVG 1.1//EN"
  "http://www.w3.org/Graphics/SVG/1.1/DTD/svg11.dtd">
<svg xmlns:xlink="http://www.w3.org/1999/xlink" width="851.4pt" height="558.597596pt" viewBox="0 0 851.4 558.597596" xmlns="http://www.w3.org/2000/svg" version="1.1">
 <metadata>
  <rdf:RDF xmlns:dc="http://purl.org/dc/elements/1.1/" xmlns:cc="http://creativecommons.org/ns#" xmlns:rdf="http://www.w3.org/1999/02/22-rdf-syntax-ns#">
   <cc:Work>
    <dc:type rdf:resource="http://purl.org/dc/dcmitype/StillImage"/>
    <dc:date>2025-09-25T13:14:12.713648</dc:date>
    <dc:format>image/svg+xml</dc:format>
    <dc:creator>
     <cc:Agent>
      <dc:title>Matplotlib v3.9.4, https://matplotlib.org/</dc:title>
     </cc:Agent>
    </dc:creator>
   </cc:Work>
  </rdf:RDF>
 </metadata>
 <defs>
  <style type="text/css">*{stroke-linejoin: round; stroke-linecap: butt}</style>
 </defs>
 <g id="figure_1">
  <g id="patch_1">
   <path d="M 0 558.597596 
L 851.4 558.597596 
L 851.4 0 
L 0 0 
z
"/>
  </g>
  <g id="axes_1">
   <g id="PatchCollection_1">
    <path d="M 317.813695 343.528336 
L 281.039802 330.367986 
L 281.344492 326.544173 
L 283.496375 323.434311 
L 283.726825 323.014297 
L 284.186406 322.824044 
L 286.406129 323.273269 
L 286.416466 322.988392 
L 287.194093 322.942331 
L 287.187889 322.604373 
L 287.470219 322.601204 
L 287.449728 322.250569 
L 287.907432 322.250682 
L 287.902919 321.93966 
L 288.225474 321.934342 
L 288.102727 321.440757 
L 288.320959 320.791998 
L 289.916999 319.73839 
L 289.54726 317.053604 
L 289.745752 315.81098 
L 288.458721 314.329885 
L 287.511162 314.060621 
L 286.258718 314.350818 
L 285.666423 314.156029 
L 285.390668 313.834254 
L 284.927698 313.997119 
L 283.759837 312.321914 
L 283.806452 311.521039 
L 284.57863 310.189571 
L 284.531068 308.48811 
L 284.342347 308.053038 
L 284.589149 307.199765 
L 283.166787 306.081423 
L 283.950804 304.695519 
L 283.425242 302.955583 
L 285.392331 302.716546 
L 285.750036 302.113967 
L 285.983678 301.248361 
L 286.550399 300.728291 
L 286.822011 300.036414 
L 288.242096 298.534267 
L 287.975363 297.927954 
L 288.297529 296.692804 
L 288.344509 295.406043 
L 288.06932 294.894804 
L 289.073436 294.13422 
L 288.713469 293.100761 
L 288.854631 292.254724 
L 288.446539 290.643119 
L 288.678114 290.170357 
L 288.450481 289.548418 
L 289.011558 287.70558 
L 288.33543 286.893272 
L 288.51832 286.51796 
L 290.716607 284.59587 
L 290.838586 283.157201 
L 291.180119 282.43554 
L 293.332549 281.288982 
L 294.254721 280.400833 
L 295.476519 279.956015 
L 297.591905 277.559927 
L 298.199985 277.392526 
L 297.980802 276.148528 
L 297.505613 275.498748 
L 296.799408 274.645462 
L 294.932869 273.450255 
L 294.303359 273.255017 
L 293.823658 272.552266 
L 293.090198 271.984993 
L 292.009373 271.84239 
L 291.828171 271.325935 
L 292.00147 269.561188 
L 291.190564 268.161918 
L 290.585493 267.709759 
L 290.881919 267.355724 
L 289.813492 264.418988 
L 289.021011 263.383937 
L 288.337374 263.260689 
L 287.931177 262.932918 
L 287.237012 260.799546 
L 285.831576 259.503729 
L 285.752438 258.199187 
L 285.985702 257.483872 
L 285.708069 255.880416 
L 285.984194 255.84295 
L 285.67103 254.56863 
L 286.610867 253.554051 
L 285.618574 252.290149 
L 285.851842 251.837645 
L 286.931532 251.877588 
L 287.18679 251.654844 
L 287.463101 250.637781 
L 287.498991 249.277776 
L 286.801608 246.768082 
L 286.759863 245.177422 
L 285.384844 242.436388 
L 284.724116 240.507994 
L 285.276543 239.591669 
L 285.194203 238.458379 
L 285.521073 237.671648 
L 285.171251 236.626189 
L 284.815987 236.334975 
L 284.89962 235.246051 
L 284.315027 234.074172 
L 284.464825 233.121516 
L 284.289225 230.666596 
L 284.964397 229.968819 
L 284.985635 229.686543 
L 284.057428 228.76265 
L 283.147434 226.506599 
L 283.604171 225.049485 
L 283.325964 224.396882 
L 283.34606 223.58955 
L 283.725184 223.019334 
L 285.97084 221.92788 
L 286.529487 222.03562 
L 288.213688 221.538497 
L 289.789451 222.439859 
L 290.347909 222.548393 
L 291.903531 221.660114 
L 292.804474 222.060997 
L 293.497712 222.833685 
L 293.799226 223.55556 
L 293.707317 224.293626 
L 295.533262 225.596224 
L 296.191151 225.628141 
L 298.106547 224.90195 
L 298.630024 222.547284 
L 300.173997 220.384675 
L 300.364028 219.730587 
L 300.208219 201.161941 
L 300.202726 196.572223 
L 328.385967 196.58145 
L 337.192631 196.529004 
L 344.713306 196.60325 
L 366.420509 196.418772 
L 381.599176 196.395679 
L 387.905515 196.353014 
L 388.690272 196.714393 
L 399.903867 196.704862 
L 423.274111 196.569167 
L 423.289721 226.239102 
L 423.319425 257.156416 
L 423.269856 267.922863 
L 423.228063 291.910927 
L 423.223712 309.064613 
L 423.203499 321.692853 
L 423.249099 331.706866 
L 423.344697 364.302756 
L 388.681832 364.474633 
L 373.422228 364.534751 
L 366.091439 361.689407 
L 317.813695 343.528336 
" clip-path="url(#p2c85128260)" style="fill: #ffffff; stroke: #000000"/>
    <path d="M 93.976753 189.374471 
L 94.602147 186.013194 
L 93.315866 182.242957 
L 91.733723 180.95459 
L 91.917867 175.692526 
L 91.917703 173.239122 
L 94.314439 172.477092 
L 95.656139 174.951687 
L 95.16686 175.62737 
L 95.330944 178.376747 
L 101.991794 183.042313 
L 104.79965 182.799645 
L 101.900246 181.7139 
L 99.271299 174.655633 
L 96.495214 173.37203 
L 96.614946 170.010321 
L 95.039597 169.488667 
L 94.837899 167.586771 
L 96.911362 166.359888 
L 104.176686 165.103162 
L 111.608753 166.101742 
L 112.623935 164.244216 
L 114.616176 164.005732 
L 114.797004 164.90982 
L 115.340786 164.91559 
L 114.715981 163.422397 
L 115.176305 162.723277 
L 112.578823 163.936701 
L 112.4399 161.77608 
L 109.553893 164.817598 
L 106.587561 164.635607 
L 104.572702 162.659816 
L 98.47035 164.689898 
L 97.466191 162.068837 
L 96.412792 160.688702 
L 95.842496 161.055185 
L 97.16187 162.072005 
L 97.471853 163.906452 
L 94.375221 162.011908 
L 93.617919 163.422149 
L 92.146313 163.433808 
L 91.167906 162.32836 
L 92.500839 164.263315 
L 91.714797 166.245457 
L 93.308033 167.30461 
L 92.119528 168.82338 
L 92.902063 171.71764 
L 91.486293 172.077097 
L 87.774353 169.56063 
L 87.150283 169.932314 
L 83.93595 166.571232 
L 81.497227 165.890277 
L 80.624675 167.073111 
L 79.291032 166.963071 
L 81.051525 162.251415 
L 79.687217 157.979965 
L 78.353204 158.071523 
L 76.560935 153.9337 
L 72.215117 150.559155 
L 66.648577 144.318658 
L 61.770156 139.360344 
L 62.717528 135.887852 
L 59.508103 126.808626 
L 60.963301 120.753661 
L 60.251787 116.741325 
L 58.907204 112.608551 
L 54.730551 107.499749 
L 52.589084 104.479368 
L 46.411548 99.967885 
L 46.638192 97.738883 
L 45.245455 94.543892 
L 52.22235 78.433512 
L 51.230553 73.964488 
L 53.154692 68.475412 
L 53.490925 64.193004 
L 51.365876 56.210747 
L 48.929596 54.740152 
L 49.806608 52.616619 
L 49.832636 48.186188 
L 59.374365 48.325613 
L 66.911746 48.180699 
L 74.083524 48.051368 
L 97.17786 48.093714 
L 117.951389 48.284498 
L 131.984436 48.482173 
L 153.626479 48.436695 
L 153.555888 72.518518 
L 153.559815 115.747291 
L 153.563604 123.96931 
L 153.581029 127.884514 
L 153.575532 132.419138 
L 153.599825 133.979264 
L 153.584826 135.244431 
L 153.582248 137.303135 
L 156.191592 139.435104 
L 163.918989 145.943101 
L 170.247209 151.159241 
L 174.346124 154.580489 
L 192.454815 170.161252 
L 206.712869 182.901179 
L 223.422987 197.668368 
L 254.826205 226.103744 
L 261.221187 232.201878 
L 285.984194 255.84295 
L 285.708069 255.880416 
L 285.985702 257.483872 
L 285.752438 258.199187 
L 285.831576 259.503729 
L 287.237012 260.799546 
L 287.931177 262.932918 
L 288.337374 263.260689 
L 289.021011 263.383937 
L 289.813492 264.418988 
L 290.881919 267.355724 
L 290.585493 267.709759 
L 291.190564 268.161918 
L 292.00147 269.561188 
L 291.828171 271.325935 
L 292.009373 271.84239 
L 293.090198 271.984993 
L 293.823658 272.552266 
L 294.303359 273.255017 
L 294.932869 273.450255 
L 296.799408 274.645462 
L 297.505613 275.498748 
L 297.980802 276.148528 
L 298.199985 277.392526 
L 297.591905 277.559927 
L 295.476519 279.956015 
L 294.254721 280.400833 
L 293.332549 281.288982 
L 291.180119 282.43554 
L 290.838586 283.157201 
L 290.716607 284.59587 
L 288.51832 286.51796 
L 288.33543 286.893272 
L 289.011558 287.70558 
L 288.450481 289.548418 
L 288.678114 290.170357 
L 288.446539 290.643119 
L 288.854631 292.254724 
L 288.713469 293.100761 
L 289.073436 294.13422 
L 288.06932 294.894804 
L 288.344509 295.406043 
L 288.297529 296.692804 
L 287.975363 297.927954 
L 288.242096 298.534267 
L 286.822011 300.036414 
L 286.550399 300.728291 
L 285.983678 301.248361 
L 285.750036 302.113967 
L 285.392331 302.716546 
L 283.425242 302.955583 
L 283.950804 304.695519 
L 283.166787 306.081423 
L 284.589149 307.199765 
L 284.342347 308.053038 
L 284.531068 308.48811 
L 284.57863 310.189571 
L 283.806452 311.521039 
L 283.759837 312.321914 
L 284.927698 313.997119 
L 285.390668 313.834254 
L 285.666423 314.156029 
L 286.258718 314.350818 
L 287.511162 314.060621 
L 288.458721 314.329885 
L 289.745752 315.81098 
L 289.54726 317.053604 
L 289.916999 319.73839 
L 288.320959 320.791998 
L 288.102727 321.440757 
L 288.225474 321.934342 
L 287.902919 321.93966 
L 287.907432 322.250682 
L 287.449728 322.250569 
L 287.470219 322.601204 
L 287.187889 322.604373 
L 287.194093 322.942331 
L 286.416466 322.988392 
L 286.406129 323.273269 
L 284.186406 322.824044 
L 283.726825 323.014297 
L 283.496375 323.434311 
L 249.376472 326.442521 
L 224.219384 328.925636 
L 222.452592 323.505969 
L 224.40395 326.935002 
L 224.307307 324.678281 
L 222.478149 322.897959 
L 221.260306 324.64379 
L 220.345831 319.56636 
L 221.096201 318.469963 
L 219.283646 311.844241 
L 217.270713 308.206399 
L 212.65905 303.445911 
L 200.109483 292.971274 
L 196.662844 292.189146 
L 195.670579 294.266612 
L 192.758605 293.241691 
L 192.170639 292.143951 
L 193.175302 291.0498 
L 192.585622 288.953785 
L 189.389164 284.376075 
L 183.322126 284.939661 
L 179.595956 284.292123 
L 172.772233 281.139343 
L 171.529736 278.416839 
L 166.202247 274.358975 
L 163.164947 273.125478 
L 156.68207 273.470803 
L 153.182133 271.783574 
L 150.012199 271.479724 
L 142.226034 272.352126 
L 140.915283 270.011874 
L 137.666029 268.499742 
L 138.643266 264.592576 
L 137.903028 262.934455 
L 138.482345 260.094706 
L 137.058649 258.664772 
L 137.590973 256.62262 
L 138.270312 253.590885 
L 137.737051 251.656014 
L 132.244758 249.602049 
L 131.696455 248.11402 
L 132.524284 244.994695 
L 131.903039 243.118682 
L 129.027064 242.263695 
L 125.21796 237.138343 
L 122.170352 236.123222 
L 120.721244 232.043564 
L 117.852037 229.705031 
L 111.834043 220.765757 
L 107.092329 217.032916 
L 105.293714 208.848863 
L 106.374341 207.13823 
L 107.45931 208.10888 
L 108.908364 206.906998 
L 110.070561 201.840172 
L 109.323561 200.910391 
L 107.061307 197.594076 
L 102.681029 198.027008 
L 99.918992 196.443705 
L 97.425985 193.301214 
L 93.976753 189.374471 
" clip-path="url(#p2c85128260)" style="fill: #ffffff; stroke: #000000"/>
    <path d="M 147.588299 285.158387 
L 152.312318 284.261743 
L 154.367389 287.031259 
L 150.775528 288.602293 
L 149.341508 287.731514 
L 147.588299 285.158387 
" clip-path="url(#p2c85128260)" style="fill: #ffffff; stroke: #000000"/>
    <path d="M 194.092207 320.516571 
L 192.388639 320.904684 
L 190.132634 318.354147 
L 187.968546 314.528245 
L 188.65914 314.084684 
L 189.395802 315.526295 
L 194.092207 320.516571 
" clip-path="url(#p2c85128260)" style="fill: #ffffff; stroke: #000000"/>
    <path d="M 189.029974 302.260615 
L 188.085243 300.885803 
L 193.810423 302.957021 
L 195.480911 305.228697 
L 195.248204 306.028439 
L 191.519436 305.515378 
L 190.879973 302.703598 
L 189.029974 302.260615 
" clip-path="url(#p2c85128260)" style="fill: #ffffff; stroke: #000000"/>
    <path d="M 157.227963 286.41848 
L 156.198487 285.342806 
L 156.569881 284.535591 
L 155.246807 283.725446 
L 156.721731 283.249278 
L 161.64662 284.848086 
L 163.995309 283.826297 
L 165.214667 284.455036 
L 164.813536 285.288618 
L 160.547399 286.511396 
L 157.227963 286.41848 
" clip-path="url(#p2c85128260)" style="fill: #ffffff; stroke: #000000"/>
    <path d="M 423.269856 267.922863 
L 423.319425 257.156416 
L 423.289721 226.239102 
L 423.274111 196.569167 
L 439.928663 196.485178 
L 462.10196 196.505796 
L 463.620556 196.542911 
L 476.442711 196.496684 
L 477.160162 196.780994 
L 486.74559 196.721576 
L 498.57554 196.698272 
L 505.437836 196.630897 
L 517.765239 196.688929 
L 519.413899 196.67104 
L 547.808564 196.633605 
L 570.370048 196.476615 
L 572.344832 196.5133 
L 572.352433 211.531191 
L 571.616147 211.554287 
L 571.69594 224.476728 
L 571.73131 233.785429 
L 571.739153 237.306717 
L 571.644124 250.551163 
L 571.666294 256.855743 
L 571.730209 263.366874 
L 571.558029 276.348135 
L 571.469024 290.63866 
L 571.334066 298.363062 
L 571.226537 303.941485 
L 571.073053 316.527542 
L 570.809755 329.526045 
L 570.917607 342.297132 
L 570.849282 344.762583 
L 564.095498 344.695565 
L 554.317338 344.637784 
L 548.110558 344.644126 
L 547.176338 344.602933 
L 526.684284 344.725725 
L 524.929251 344.69258 
L 498.298617 344.773407 
L 489.056255 344.800433 
L 483.014404 344.790294 
L 482.363102 345.40623 
L 482.793174 345.646851 
L 482.764999 347.371277 
L 482.510498 347.931921 
L 483.199226 349.429246 
L 483.227243 350.227566 
L 485.086613 351.163055 
L 466.755654 351.199317 
L 444.097628 351.145314 
L 443.915492 364.29087 
L 423.344697 364.302756 
L 423.249099 331.706866 
L 423.203499 321.692853 
L 423.223712 309.064613 
L 423.228063 291.910927 
L 423.269856 267.922863 
" clip-path="url(#p2c85128260)" style="fill: #ffffff; stroke: #000000"/>
    <path d="M 598.781983 410.433206 
L 597.572397 409.535071 
L 595.338386 410.549881 
L 588.924279 407.71514 
L 587.859248 408.748446 
L 587.434635 411.043217 
L 584.519979 410.523747 
L 583.316415 411.590551 
L 582.711528 410.737613 
L 581.205899 412.099764 
L 580.251201 411.747093 
L 577.088597 418.098831 
L 576.65796 421.608827 
L 575.159839 423.343748 
L 574.536153 425.840996 
L 575.574697 427.032725 
L 572.570745 428.165366 
L 568.496538 434.460756 
L 565.7095 433.607119 
L 565.370419 434.232563 
L 564.011212 432.334759 
L 563.027399 432.875667 
L 560.597536 431.688142 
L 559.312362 429.477374 
L 554.530817 428.172345 
L 554.049409 426.993954 
L 553.007134 427.010375 
L 553.361813 425.484015 
L 552.887948 425.898825 
L 546.515876 424.093196 
L 543.59018 421.939345 
L 542.596012 419.467094 
L 538.337276 417.492043 
L 534.453165 413.669037 
L 533.410753 409.857424 
L 531.025658 406.850547 
L 530.480565 402.458893 
L 531.01608 399.739342 
L 530.329787 397.083197 
L 527.586564 393.760766 
L 527.770962 392.990001 
L 526.624725 392.520751 
L 525.696327 387.230806 
L 523.324889 385.131117 
L 523.063413 383.855048 
L 521.51079 383.750133 
L 517.722062 380.064662 
L 516.641808 380.492889 
L 515.917185 379.475326 
L 515.272082 379.933486 
L 513.386571 378.848354 
L 512.924538 377.381801 
L 509.344299 374.540142 
L 508.141122 371.924973 
L 504.038722 369.422248 
L 498.405876 362.804774 
L 493.12381 360.303353 
L 488.928294 352.718762 
L 485.086613 351.163055 
L 483.227243 350.227566 
L 483.199226 349.429246 
L 482.510498 347.931921 
L 482.764999 347.371277 
L 482.793174 345.646851 
L 482.363102 345.40623 
L 483.014404 344.790294 
L 489.056255 344.800433 
L 498.298617 344.773407 
L 524.929251 344.69258 
L 526.684284 344.725725 
L 547.176338 344.602933 
L 548.110558 344.644126 
L 554.317338 344.637784 
L 564.095498 344.695565 
L 570.849282 344.762583 
L 570.917607 342.297132 
L 570.809755 329.526045 
L 571.073053 316.527542 
L 571.226537 303.941485 
L 571.334066 298.363062 
L 571.469024 290.63866 
L 571.558029 276.348135 
L 571.730209 263.366874 
L 571.666294 256.855743 
L 571.644124 250.551163 
L 571.739153 237.306717 
L 571.73131 233.785429 
L 571.69594 224.476728 
L 571.616147 211.554287 
L 572.352433 211.531191 
L 592.84341 211.594567 
L 596.071186 211.513067 
L 606.268367 211.541243 
L 619.341882 211.659368 
L 622.612668 211.612266 
L 632.652155 211.616971 
L 646.019175 211.485423 
L 646.16015 211.525714 
L 646.258625 224.431348 
L 646.244595 229.586734 
L 646.188684 237.448893 
L 646.327859 243.211937 
L 646.258217 250.403711 
L 646.285688 254.889438 
L 646.216588 263.310186 
L 646.285191 268.795079 
L 646.876358 268.808646 
L 647.550414 268.283241 
L 647.866578 268.296929 
L 649.130674 269.214683 
L 649.624097 270.09137 
L 650.378986 270.591272 
L 651.666205 272.305698 
L 653.952077 274.280087 
L 656.008239 274.543762 
L 656.408041 274.060132 
L 656.589613 273.346412 
L 657.180577 273.160445 
L 658.454987 273.490119 
L 659.014194 274.099704 
L 660.025842 274.658011 
L 660.72602 274.527395 
L 661.115294 273.707396 
L 661.14893 272.750567 
L 661.85324 272.1215 
L 662.861131 273.233713 
L 664.243824 273.661635 
L 664.565822 274.553837 
L 665.76357 275.628474 
L 665.989892 276.425715 
L 665.785586 277.893672 
L 666.133339 278.840435 
L 666.486345 279.166963 
L 667.67412 279.501059 
L 668.894028 279.296638 
L 669.958682 279.576636 
L 670.920134 279.262881 
L 671.996453 279.705868 
L 673.503415 280.707064 
L 675.481234 281.148681 
L 676.282737 281.563259 
L 678.087239 281.600253 
L 678.655842 281.028114 
L 679.160727 281.11594 
L 680.040982 280.777747 
L 680.502826 280.986564 
L 681.264477 281.267479 
L 681.726516 282.353232 
L 683.156971 283.50802 
L 684.421638 283.865222 
L 685.083099 283.525337 
L 685.433097 283.032089 
L 685.831782 282.890383 
L 685.996814 282.043327 
L 686.830836 281.261807 
L 687.567871 281.341938 
L 688.639304 281.832921 
L 691.205468 282.055542 
L 692.091933 281.371247 
L 692.633851 281.058073 
L 693.144938 281.486234 
L 692.736852 283.406933 
L 693.340043 285.320833 
L 694.095114 285.78114 
L 694.885151 285.864665 
L 695.890596 285.440344 
L 696.690211 286.334138 
L 696.75111 286.672664 
L 696.37555 287.002027 
L 696.678928 287.480673 
L 696.052048 288.087897 
L 696.045844 288.371192 
L 696.57911 288.935632 
L 697.704288 289.216206 
L 698.672887 289.777248 
L 699.096756 289.719186 
L 700.632649 288.72861 
L 701.466481 287.493108 
L 702.140161 287.279642 
L 702.75012 286.322682 
L 703.567973 285.8163 
L 705.314387 286.385255 
L 705.507235 287.914793 
L 705.918319 288.370347 
L 706.437677 288.329598 
L 707.334099 287.947825 
L 708.336155 288.216742 
L 708.700059 288.374744 
L 708.84047 288.729343 
L 708.947039 290.337996 
L 709.997025 290.797964 
L 711.150024 290.491921 
L 711.680095 289.575374 
L 712.341556 289.323887 
L 712.362987 288.568853 
L 713.393047 289.259146 
L 713.599249 289.669884 
L 713.924997 289.247375 
L 714.038905 288.616388 
L 714.894533 288.276614 
L 715.475167 288.469023 
L 716.056552 289.538818 
L 715.947533 289.994374 
L 715.2966 290.339578 
L 714.968783 290.82943 
L 715.440775 292.813731 
L 716.344713 293.52881 
L 717.254106 293.609962 
L 717.871582 293.439736 
L 718.044887 293.121013 
L 717.941314 291.187758 
L 718.868745 290.716696 
L 718.173449 290.290567 
L 718.076648 289.896241 
L 718.354463 289.729299 
L 719.470619 290.208961 
L 719.957076 289.91367 
L 720.404064 289.144939 
L 720.400297 287.133928 
L 720.885073 287.338109 
L 721.673041 287.025728 
L 721.836572 286.612615 
L 722.603114 286.9611 
L 722.987515 287.715795 
L 723.083951 288.920049 
L 723.525496 289.582389 
L 723.944481 289.690592 
L 724.680945 289.283027 
L 725.088088 289.337013 
L 726.289598 290.470756 
L 727.204816 290.407492 
L 727.655562 289.991102 
L 728.04182 288.317144 
L 728.324336 288.043585 
L 730.338416 288.559821 
L 729.607232 289.546193 
L 729.926784 290.137912 
L 730.889189 290.658213 
L 732.159483 290.94706 
L 732.401596 291.76582 
L 732.731108 292.061339 
L 734.404205 291.758817 
L 735.602709 293.18096 
L 736.175083 294.215448 
L 736.946506 294.326033 
L 737.328076 293.962609 
L 737.601737 292.54195 
L 737.887631 292.202068 
L 739.5021 292.697475 
L 740.130857 292.64134 
L 740.579532 292.321717 
L 740.764293 291.465044 
L 741.254505 290.809607 
L 740.93176 290.70208 
L 740.286094 291.162279 
L 740.22688 290.94395 
L 740.56992 290.552568 
L 741.068595 290.356537 
L 742.042277 290.544423 
L 742.483807 290.089884 
L 743.556733 290.187788 
L 744.079653 289.750339 
L 744.392066 290.100868 
L 744.6945 289.721932 
L 744.674191 289.23502 
L 744.881331 289.176049 
L 745.29563 289.693066 
L 745.754651 289.482766 
L 746.14129 288.742999 
L 746.387532 288.726469 
L 748.519151 290.194888 
L 749.026294 290.135911 
L 749.777603 289.49359 
L 750.441899 289.887349 
L 750.546959 289.068348 
L 750.634547 288.640062 
L 750.975331 288.344647 
L 752.137178 288.598947 
L 753.768556 287.848847 
L 754.27382 287.844877 
L 754.228323 287.356715 
L 754.444111 287.123436 
L 755.510843 287.375025 
L 755.916305 288.32565 
L 756.575139 288.24822 
L 756.398826 288.510131 
L 755.887363 288.64834 
L 755.972514 288.868369 
L 756.739991 288.512501 
L 757.085672 288.987757 
L 757.842798 288.847854 
L 758.249751 289.461418 
L 761.244809 289.308132 
L 761.09236 288.5309 
L 761.93671 288.842148 
L 762.319218 288.833882 
L 762.54289 287.913016 
L 762.881236 288.510511 
L 763.192319 288.296251 
L 763.184978 287.363958 
L 763.609964 286.52074 
L 765.721981 287.153196 
L 766.223293 287.23265 
L 766.255063 287.936538 
L 766.438711 288.080848 
L 767.026672 287.800261 
L 767.349227 287.897715 
L 767.165772 288.536751 
L 767.316337 288.787566 
L 767.812191 287.921593 
L 767.820464 288.543315 
L 768.320085 288.906747 
L 768.455614 289.440634 
L 769.061431 289.336956 
L 769.640192 289.745322 
L 770.147147 289.447646 
L 770.363878 289.985831 
L 770.857116 290.200995 
L 770.844525 290.943259 
L 771.390581 290.931711 
L 771.629305 291.309065 
L 771.497918 291.720944 
L 772.292287 292.155117 
L 772.877634 292.915939 
L 773.831589 292.913444 
L 774.224262 293.204889 
L 774.709978 292.79901 
L 775.186297 292.81146 
L 774.746445 293.125206 
L 774.718626 293.380433 
L 775.541189 293.290222 
L 775.2222 293.880925 
L 775.729906 293.81414 
L 775.425209 294.148718 
L 775.741182 294.341686 
L 776.989471 294.667393 
L 777.544538 294.481984 
L 777.864269 294.607948 
L 778.139076 295.042337 
L 777.556945 295.226049 
L 777.520667 295.386205 
L 777.788896 295.455128 
L 778.276109 295.266211 
L 778.449223 294.856936 
L 779.207862 295.399628 
L 779.598077 295.002796 
L 779.76067 295.255307 
L 780.198822 295.212511 
L 780.088299 295.47657 
L 779.596766 295.50273 
L 779.517256 295.701028 
L 779.81105 295.798699 
L 780.575885 295.517869 
L 780.661792 295.91469 
L 780.162551 296.075424 
L 780.16368 296.29183 
L 780.458225 296.376145 
L 781.251634 296.070074 
L 781.077581 296.722472 
L 781.434717 296.432033 
L 781.679829 296.662356 
L 782.274181 296.397721 
L 783.273796 296.264824 
L 783.263463 296.846362 
L 782.888472 297.217159 
L 783.091103 297.449859 
L 783.457266 297.43095 
L 783.996741 298.132787 
L 784.320799 298.089092 
L 784.673234 297.544108 
L 784.882257 297.641553 
L 784.840909 298.157219 
L 784.275313 298.523944 
L 784.879074 298.898341 
L 785.914017 298.143158 
L 786.563641 298.623834 
L 786.651414 297.943828 
L 787.140129 297.662557 
L 787.310243 297.802789 
L 787.249536 298.48132 
L 788.168694 297.570862 
L 788.518508 297.76972 
L 788.214755 298.487302 
L 788.817951 298.592555 
L 788.954409 297.788731 
L 790.083539 297.530777 
L 790.19069 298.322603 
L 791.581851 298.147157 
L 791.878653 297.822093 
L 792.500081 298.022081 
L 793.128469 298.654085 
L 793.1143 307.127475 
L 793.059111 314.457022 
L 792.988806 318.638715 
L 793.023364 324.202771 
L 793.145664 333.269419 
L 793.157084 338.900071 
L 793.149678 344.980471 
L 793.769972 345.140058 
L 793.905306 345.472132 
L 794.575027 346.415109 
L 794.753029 347.097369 
L 795.597001 347.504095 
L 796.035717 347.496798 
L 795.89925 348.004415 
L 796.495483 347.94919 
L 796.661456 348.672814 
L 796.938897 348.632639 
L 797.034004 349.264814 
L 797.343957 350.239197 
L 798.095265 350.691814 
L 798.397326 351.504177 
L 798.173266 352.13782 
L 798.694878 352.818099 
L 798.5727 353.352197 
L 798.724955 353.494186 
L 799.131531 353.380556 
L 798.649209 354.473257 
L 798.782668 355.090376 
L 798.57816 355.262462 
L 798.458426 356.148841 
L 798.064444 356.234968 
L 798.137378 356.976871 
L 798.538881 357.364743 
L 798.681927 357.900201 
L 799.43061 358.651669 
L 799.84508 358.741032 
L 800.233422 358.533515 
L 800.624776 359.003505 
L 801.26199 359.042337 
L 800.936808 359.788986 
L 800.16219 359.93277 
L 800.142266 360.08279 
L 800.744899 360.854977 
L 801.443766 360.796131 
L 801.357305 361.247326 
L 801.724975 361.488237 
L 801.500165 361.796651 
L 801.54171 362.147174 
L 801.712951 362.437712 
L 802.291334 362.669173 
L 802.363894 363.438633 
L 803.009756 363.396144 
L 801.970486 364.744339 
L 801.858461 365.21036 
L 802.48572 365.982034 
L 802.745304 365.875474 
L 803.109027 366.360857 
L 803.463161 366.304441 
L 803.575943 366.475684 
L 803.597567 367.301845 
L 804.101514 367.672742 
L 803.796636 368.581239 
L 804.017877 369.141032 
L 804.436674 369.380132 
L 805.085914 368.822672 
L 805.619748 368.975642 
L 805.668809 369.204041 
L 805.420314 369.255534 
L 805.634414 369.653028 
L 805.243628 369.76507 
L 805.408294 370.558018 
L 805.640249 370.751334 
L 805.467882 371.043675 
L 804.935931 371.243317 
L 804.854544 371.504594 
L 805.269955 371.676239 
L 805.245709 372.043509 
L 805.913565 372.272033 
L 805.698156 372.796903 
L 806.154545 373.333104 
L 805.171474 374.067913 
L 804.73238 373.951556 
L 804.659638 374.104006 
L 804.586896 374.568444 
L 804.83069 374.734033 
L 804.547233 375.194277 
L 805.13313 375.371927 
L 805.41245 375.76671 
L 805.53933 375.652568 
L 805.701167 376.3917 
L 805.593648 376.654224 
L 805.109819 376.716126 
L 805.186318 377.296181 
L 804.743841 377.397132 
L 804.644783 377.862874 
L 804.833312 378.288774 
L 805.03143 378.632851 
L 804.695341 379.081895 
L 804.961504 379.165142 
L 805.083682 379.580461 
L 804.315267 380.360894 
L 804.233875 381.246707 
L 803.413964 382.02986 
L 803.680135 382.438686 
L 803.430324 382.422722 
L 803.562851 383.081968 
L 803.43486 383.780035 
L 802.390708 384.193708 
L 801.947687 385.177782 
L 801.580397 385.167422 
L 801.784728 385.660458 
L 801.584923 385.886821 
L 802.105037 386.419816 
L 801.567073 386.390041 
L 800.966149 386.729922 
L 800.964465 387.300371 
L 800.53516 387.971998 
L 801.2705 388.644329 
L 801.044384 389.170799 
L 801.225779 389.434069 
L 801.039133 389.659921 
L 801.45493 390.21124 
L 801.320727 390.434775 
L 801.489536 391.024631 
L 800.874512 391.311026 
L 800.35649 392.02775 
L 800.051436 392.829871 
L 800.226632 393.25646 
L 799.943182 393.65005 
L 799.94714 394.043867 
L 800.671598 395.110681 
L 801.424604 395.334057 
L 801.223887 397.055388 
L 801.039489 397.62107 
L 801.297755 398.791426 
L 801.499635 398.945241 
L 801.413543 399.683072 
L 801.820495 399.759528 
L 801.751136 399.966593 
L 801.438731 399.967385 
L 801.481022 400.658586 
L 801.198692 400.753205 
L 801.014482 401.319056 
L 801.097749 402.361913 
L 799.922 403.980583 
L 797.530287 404.434825 
L 797.553612 405.207801 
L 795.202379 409.546711 
L 798.080224 413.812966 
L 792.40255 413.827653 
L 785.218487 417.215089 
L 784.725452 417.450386 
L 777.198518 420.982979 
L 775.128261 423.027598 
L 774.667546 422.455926 
L 777.213357 419.730742 
L 779.904284 418.011626 
L 781.663655 418.472373 
L 782.439392 417.30764 
L 781.428883 417.652778 
L 780.864982 417.390599 
L 780.107661 416.648421 
L 774.597587 417.848327 
L 776.609582 414.289182 
L 776.760882 411.439346 
L 775.887578 410.299499 
L 773.579328 411.282383 
L 772.156601 413.991761 
L 771.037434 413.586158 
L 767.201942 409.973188 
L 768.381245 412.714732 
L 769.639319 413.660558 
L 769.028618 417.233911 
L 771.56546 418.982419 
L 769.800063 420.163467 
L 770.762277 420.040209 
L 770.54669 421.240267 
L 771.509093 421.362555 
L 771.421678 420.540409 
L 772.058719 421.979329 
L 773.925823 422.821729 
L 772.050452 422.142311 
L 771.870214 424.665906 
L 770.580555 424.157162 
L 767.741489 428.015554 
L 765.421756 427.892283 
L 765.316853 430.339552 
L 764.514598 430.705239 
L 763.25649 434.468292 
L 756.40284 439.664835 
L 752.548264 441.928186 
L 752.836803 441.164851 
L 750.002598 441.574557 
L 746.28353 443.010972 
L 745.819425 445.021998 
L 752.077206 442.164552 
L 739.649403 449.006131 
L 744.944812 445.800773 
L 745.139379 444.118247 
L 738.885531 446.545478 
L 738.850012 445.780158 
L 740.859376 445.361416 
L 738.814873 444.660359 
L 741.017314 440.868237 
L 739.511678 443.12169 
L 737.693467 443.863278 
L 738.077683 442.461214 
L 736.703435 444.683197 
L 735.767169 445.161088 
L 735.086737 443.610232 
L 735.063251 441.955368 
L 734.216831 442.371182 
L 733.660268 441.094728 
L 734.089386 442.809245 
L 734.800472 442.149242 
L 734.421328 444.547415 
L 735.49029 445.395259 
L 732.637129 446.972002 
L 733.968693 445.783846 
L 733.544273 444.035035 
L 732.832622 445.752258 
L 732.127367 445.451817 
L 732.131321 444.224657 
L 730.686035 444.618524 
L 730.682097 442.969652 
L 730.641327 439.518104 
L 730.536044 443.003833 
L 730.16613 442.212527 
L 728.810693 442.307992 
L 728.478172 443.348406 
L 729.791493 444.993323 
L 729.701823 446.912756 
L 730.777001 446.46303 
L 732.751029 448.476908 
L 730.863446 449.562657 
L 731.964561 449.823764 
L 732.999333 448.677692 
L 735.112627 450.61797 
L 728.446137 454.409638 
L 727.434695 453.402836 
L 727.398991 451.750566 
L 726.488477 451.525902 
L 725.347154 449.328892 
L 724.440955 450.155678 
L 725.316508 450.256128 
L 726.036794 451.304747 
L 725.636229 451.87682 
L 723.711256 451.480236 
L 725.319121 453.038679 
L 725.36742 454.213951 
L 725.193353 455.444851 
L 725.572855 456.691644 
L 724.938277 457.222802 
L 721.311281 460.103456 
L 722.25204 455.87728 
L 720.71015 457.243478 
L 721.553561 457.954921 
L 720.71505 460.082975 
L 719.27354 459.419802 
L 719.521082 457.568472 
L 716.853689 459.626627 
L 716.765528 458.6955 
L 715.962921 458.765216 
L 716.23228 460.043349 
L 713.689128 461.575968 
L 714.158477 462.052793 
L 713.44252 462.726894 
L 714.282157 462.294089 
L 717.069482 461.886251 
L 719.451172 460.299428 
L 719.51528 462.895869 
L 717.277769 466.006702 
L 715.28611 469.067569 
L 714.01584 468.767924 
L 714.845705 468.507105 
L 713.117551 467.319304 
L 711.206702 468.244731 
L 711.586762 467.258996 
L 708.291928 467.858825 
L 707.865059 467.191073 
L 707.248721 467.542444 
L 707.79476 468.147212 
L 708.280653 468.828432 
L 710.529278 468.497749 
L 710.331734 470.295317 
L 712.272292 472.03435 
L 711.490918 471.942291 
L 712.217596 472.674952 
L 711.396003 474.153489 
L 710.266326 474.379414 
L 711.540362 474.431226 
L 712.483754 472.163771 
L 713.94763 472.728403 
L 711.935661 476.481926 
L 709.944988 483.641195 
L 707.772657 483.681461 
L 707.597605 480.134523 
L 707.084129 482.956534 
L 705.316887 484.261012 
L 701.622208 480.714547 
L 703.348505 484.431974 
L 700.768097 484.629366 
L 706.596961 486.335733 
L 709.576601 485.299483 
L 707.697167 490.746608 
L 708.300937 493.269519 
L 706.094195 493.822859 
L 706.353238 497.733497 
L 707.892526 499.284368 
L 708.973574 505.004579 
L 709.61024 507.460034 
L 708.406678 508.688961 
L 709.725266 511.411038 
L 711.018493 512.182421 
L 711.396301 517.42245 
L 713.866037 520.80878 
L 713.294417 522.768189 
L 714.852129 522.566665 
L 715.859104 524.183652 
L 712.535029 523.870479 
L 712.60177 524.65557 
L 710.715681 525.297725 
L 710.601049 527.423856 
L 709.401048 527.428728 
L 705.563983 524.816774 
L 705.937279 524.195461 
L 705.001381 523.963155 
L 704.137836 522.14013 
L 698.730889 521.051364 
L 694.477502 521.073486 
L 693.58371 521.808368 
L 693.414539 520.884698 
L 690.520191 521.192712 
L 688.271897 519.924974 
L 688.779217 519.248775 
L 688.263809 518.895313 
L 687.385254 519.523187 
L 686.910811 518.127725 
L 685.991086 518.206331 
L 684.29428 516.281352 
L 683.428881 516.855974 
L 680.683054 515.108136 
L 678.762608 515.654022 
L 675.266242 511.70756 
L 673.071933 512.144974 
L 672.323632 511.107113 
L 668.197983 510.388544 
L 668.327467 508.346979 
L 666.671677 506.644337 
L 666.742155 505.630813 
L 663.792938 497.398461 
L 661.206139 494.749914 
L 661.151998 493.29849 
L 659.615932 492.316493 
L 660.057086 487.256338 
L 659.364421 485.159099 
L 657.434935 483.712141 
L 658.743012 478.605897 
L 657.849977 478.204505 
L 657.296993 474.989996 
L 653.224284 473.538228 
L 650.730133 470.020903 
L 649.276383 469.499373 
L 647.622622 463.885994 
L 646.354957 463.394125 
L 643.802132 458.919323 
L 640.915857 457.505494 
L 640.68446 456.332885 
L 638.850068 455.178848 
L 638.97393 453.991861 
L 637.528254 451.801591 
L 636.907375 449.295425 
L 637.670333 448.637952 
L 635.853807 447.350873 
L 636.256811 445.999658 
L 633.922795 443.88557 
L 631.659062 436.965615 
L 630.244029 436.131097 
L 629.713175 431.451533 
L 627.253398 428.885181 
L 626.554138 426.632323 
L 621.329345 422.753002 
L 619.892873 419.777224 
L 615.111542 418.207183 
L 615.280123 415.172703 
L 613.941248 416.592127 
L 614.016796 414.470108 
L 612.476034 414.329802 
L 611.300854 411.710832 
L 611.666062 410.984775 
L 610.504438 411.261299 
L 609.961394 410.42745 
L 608.289058 411.189185 
L 608.150885 409.791686 
L 607.226097 411.125932 
L 605.792658 411.368953 
L 602.850384 410.47277 
L 601.714301 410.685454 
L 601.372 409.672939 
L 598.781983 410.433206 
" clip-path="url(#p2c85128260)" style="fill: #ffffff; stroke: #000000"/>
    <path d="M 713.517918 508.626644 
L 713.23953 506.815067 
L 712.68313 505.003438 
L 711.281431 501.869637 
L 710.707159 498.495314 
L 710.362776 495.480508 
L 710.224757 489.865821 
L 710.52341 487.182977 
L 710.776036 487.099958 
L 710.569306 490.280684 
L 710.707127 494.678393 
L 711.281408 499.020812 
L 712.813581 505.013907 
L 714.383701 510.429454 
L 715.29818 515.144032 
L 715.869609 520.529739 
L 715.683896 520.70183 
L 714.955137 515.402143 
L 714.526563 512.494223 
L 713.91209 510.394989 
L 713.517918 508.626644 
" clip-path="url(#p2c85128260)" style="fill: #ffffff; stroke: #000000"/>
    <path d="M 718.246746 469.09564 
L 717.316882 468.859998 
L 718.782068 468.526011 
L 714.59012 476.135166 
L 711.254381 484.748042 
L 710.755169 486.92181 
L 710.836158 484.7206 
L 711.836071 480.086854 
L 713.975283 475.923745 
L 713.728658 473.828626 
L 715.086155 475.006032 
L 715.909045 472.175694 
L 718.246746 469.09564 
" clip-path="url(#p2c85128260)" style="fill: #ffffff; stroke: #000000"/>
    <path d="M 721.580831 462.133496 
L 723.24489 459.597599 
L 724.107093 460.474737 
L 723.703533 462.030561 
L 718.879619 468.21505 
L 719.499889 466.036527 
L 721.348703 463.955397 
L 720.766945 463.470988 
L 721.580831 462.133496 
" clip-path="url(#p2c85128260)" style="fill: #ffffff; stroke: #000000"/>
    <path d="M 724.93452 458.388382 
L 726.534306 458.050929 
L 731.628621 454.054143 
L 733.33067 453.829028 
L 734.328418 451.882484 
L 734.936293 453.235228 
L 724.176079 461.528551 
L 724.93452 458.388382 
" clip-path="url(#p2c85128260)" style="fill: #ffffff; stroke: #000000"/>
    <path d="M 771.509516 426.185078 
L 775.107778 423.666731 
L 775.575261 424.347968 
L 766.779445 430.950455 
L 771.509516 426.185078 
" clip-path="url(#p2c85128260)" style="fill: #ffffff; stroke: #000000"/>
   </g>
   <g id="PathCollection_1">
    <defs>
     <path id="mc6ba78c616" d="M 0 3.535534 
C 0.937635 3.535534 1.836992 3.163008 2.5 2.5 
C 3.163008 1.836992 3.535534 0.937635 3.535534 0 
C 3.535534 -0.937635 3.163008 -1.836992 2.5 -2.5 
C 1.836992 -3.163008 0.937635 -3.535534 0 -3.535534 
C -0.937635 -3.535534 -1.836992 -3.163008 -2.5 -2.5 
C -3.163008 -1.836992 -3.535534 -0.937635 -3.535534 0 
C -3.535534 0.937635 -3.163008 1.836992 -2.5 2.5 
C -1.836992 3.163008 -0.937635 3.535534 0 3.535534 
z
" style="stroke: #00b4d8"/>
    </defs>
    <g clip-path="url(#p2c85128260)">
     <use xlink:href="#mc6ba78c616" x="122.152158" y="168.163728" style="fill: #00b4d8; stroke: #00b4d8"/>
     <use xlink:href="#mc6ba78c616" x="766.326663" y="410.721047" style="fill: #00b4d8; stroke: #00b4d8"/>
    </g>
   </g>
   <g id="text_1">
    <!-- Hydrogen Fueling Stations H2LA_Station_Opt_Geotab_FCEV70kg_0To8000mi_5stations_5stDist -->
    <g style="fill: #ffffff" transform="translate(99.83375 18.0825) scale(0.16 -0.16)">
     <defs>
      <path id="FranklinGothic-Book-48" d="M 3581 0 
L 3047 0 
L 3047 2031 
L 1069 2031 
L 1069 0 
L 534 0 
L 534 4266 
L 1069 4266 
L 1069 2500 
L 3047 2500 
L 3047 4266 
L 3581 4266 
L 3581 0 
z
" transform="scale(0.015625)"/>
      <path id="FranklinGothic-Book-79" d="M 2656 3156 
L 1391 -369 
Q 1116 -1131 513 -1131 
Q 322 -1131 91 -1066 
L 91 -681 
Q 281 -725 419 -725 
Q 653 -725 811 -590 
Q 969 -456 1125 59 
L 34 3156 
L 534 3156 
L 1378 784 
L 2244 3156 
L 2656 3156 
z
" transform="scale(0.015625)"/>
      <path id="FranklinGothic-Book-64" d="M 2956 4266 
L 2956 0 
L 2509 0 
L 2509 541 
Q 2178 -84 1513 -84 
Q 959 -84 603 380 
Q 247 844 247 1553 
Q 247 2278 600 2761 
Q 953 3244 1538 3244 
Q 2106 3244 2466 2725 
L 2466 4266 
L 2956 4266 
z
M 2466 1938 
Q 2466 2353 2212 2603 
Q 1959 2853 1622 2853 
Q 1256 2853 1020 2528 
Q 784 2203 784 1616 
Q 784 981 1001 650 
Q 1219 319 1597 319 
Q 1941 319 2203 606 
Q 2466 894 2466 1281 
L 2466 1938 
z
" transform="scale(0.015625)"/>
      <path id="FranklinGothic-Book-72" d="M 981 0 
L 491 0 
L 491 3156 
L 922 3156 
L 922 2419 
Q 1150 2941 1379 3095 
Q 1609 3250 1850 3250 
Q 1925 3250 2044 3238 
L 2044 2769 
L 1944 2769 
Q 1538 2769 1269 2466 
Q 1000 2163 981 1669 
L 981 0 
z
" transform="scale(0.015625)"/>
      <path id="FranklinGothic-Book-6f" d="M 1622 -84 
Q 972 -84 608 397 
Q 244 878 244 1591 
Q 244 2344 653 2794 
Q 1063 3244 1672 3244 
Q 2325 3244 2701 2770 
Q 3078 2297 3078 1588 
Q 3078 850 2672 383 
Q 2266 -84 1622 -84 
z
M 1659 319 
Q 2034 319 2287 628 
Q 2541 938 2541 1591 
Q 2541 2247 2275 2542 
Q 2009 2838 1653 2838 
Q 1288 2838 1034 2539 
Q 781 2241 781 1594 
Q 781 909 1034 614 
Q 1288 319 1659 319 
z
" transform="scale(0.015625)"/>
      <path id="FranklinGothic-Book-67" d="M 3069 3650 
L 3069 3259 
Q 2731 3259 2617 3181 
Q 2503 3103 2466 2900 
Q 2769 2550 2769 2138 
Q 2769 1706 2439 1397 
Q 2109 1088 1553 1088 
Q 1428 1088 1338 1106 
Q 1166 1141 1122 1141 
Q 1038 1141 919 1058 
Q 800 975 800 844 
Q 800 656 972 600 
Q 1144 544 1781 528 
Q 2322 513 2580 455 
Q 2838 397 3016 198 
Q 3194 0 3194 -288 
Q 3194 -1191 1606 -1191 
Q 853 -1191 508 -964 
Q 163 -738 163 -359 
Q 163 100 644 272 
Q 334 475 334 781 
Q 334 1147 772 1341 
Q 363 1672 363 2175 
Q 363 2644 713 2944 
Q 1063 3244 1566 3244 
Q 1922 3244 2213 3109 
Q 2259 3419 2429 3537 
Q 2600 3656 2947 3656 
Q 2981 3656 3069 3650 
z
M 1569 1463 
Q 1881 1463 2078 1655 
Q 2275 1847 2275 2153 
Q 2275 2466 2070 2664 
Q 1866 2863 1575 2863 
Q 1297 2863 1081 2677 
Q 866 2491 866 2147 
Q 866 1841 1059 1652 
Q 1253 1463 1569 1463 
z
M 981 128 
Q 638 -22 638 -306 
Q 638 -547 920 -680 
Q 1203 -813 1641 -813 
Q 2047 -813 2384 -698 
Q 2722 -584 2722 -313 
Q 2722 -166 2622 -72 
Q 2522 22 2348 47 
Q 2175 72 1744 84 
Q 1228 97 981 128 
z
" transform="scale(0.015625)"/>
      <path id="FranklinGothic-Book-65" d="M 2575 941 
L 3031 847 
Q 2906 444 2543 180 
Q 2181 -84 1691 -84 
Q 1044 -84 644 370 
Q 244 825 244 1563 
Q 244 2316 659 2780 
Q 1075 3244 1703 3244 
Q 2322 3244 2698 2816 
Q 3075 2388 3084 1534 
L 791 1534 
Q 791 819 1091 569 
Q 1391 319 1725 319 
Q 2328 319 2575 941 
z
M 2547 1900 
Q 2541 2166 2459 2372 
Q 2378 2578 2184 2723 
Q 1991 2869 1719 2869 
Q 1353 2869 1098 2606 
Q 844 2344 813 1900 
L 2547 1900 
z
" transform="scale(0.015625)"/>
      <path id="FranklinGothic-Book-6e" d="M 2978 0 
L 2519 0 
L 2519 2028 
Q 2519 2466 2328 2644 
Q 2138 2822 1866 2822 
Q 1491 2822 1236 2522 
Q 981 2222 981 1731 
L 981 0 
L 491 0 
L 491 3156 
L 947 3156 
L 947 2575 
Q 1331 3244 1944 3244 
Q 2297 3244 2545 3061 
Q 2794 2878 2886 2650 
Q 2978 2422 2978 1825 
L 2978 0 
z
" transform="scale(0.015625)"/>
      <path id="FranklinGothic-Book-20" transform="scale(0.015625)"/>
      <path id="FranklinGothic-Book-46" d="M 1069 0 
L 534 0 
L 534 4266 
L 3147 4266 
L 3147 3797 
L 1069 3797 
L 1069 2450 
L 2791 2450 
L 2791 2019 
L 1069 2019 
L 1069 0 
z
" transform="scale(0.015625)"/>
      <path id="FranklinGothic-Book-75" d="M 2975 0 
L 2534 0 
L 2534 603 
Q 2197 -84 1528 -84 
Q 1044 -84 767 234 
Q 491 553 491 1141 
L 491 3156 
L 981 3156 
L 981 1141 
Q 981 672 1176 495 
Q 1372 319 1606 319 
Q 1844 319 2036 453 
Q 2228 588 2356 836 
Q 2484 1084 2484 1378 
L 2484 3156 
L 2975 3156 
L 2975 0 
z
" transform="scale(0.015625)"/>
      <path id="FranklinGothic-Book-6c" d="M 981 0 
L 491 0 
L 491 4266 
L 981 4266 
L 981 0 
z
" transform="scale(0.015625)"/>
      <path id="FranklinGothic-Book-69" d="M 997 4266 
L 997 3722 
L 469 3722 
L 469 4266 
L 997 4266 
z
M 981 3156 
L 981 0 
L 491 0 
L 491 3156 
L 981 3156 
z
" transform="scale(0.015625)"/>
      <path id="FranklinGothic-Book-53" d="M 66 1134 
L 547 1244 
Q 838 372 1806 372 
Q 2313 372 2569 586 
Q 2825 800 2825 1159 
Q 2825 1431 2629 1597 
Q 2434 1763 2178 1825 
L 1325 2038 
Q 994 2122 783 2242 
Q 572 2363 425 2613 
Q 278 2863 278 3184 
Q 278 3719 681 4036 
Q 1084 4353 1716 4353 
Q 2878 4353 3244 3300 
L 2759 3156 
Q 2675 3531 2362 3723 
Q 2050 3916 1697 3916 
Q 1347 3916 1073 3731 
Q 800 3547 800 3209 
Q 800 2738 1494 2572 
L 2291 2381 
Q 3384 2119 3384 1203 
Q 3384 650 2973 283 
Q 2563 -84 1816 -84 
Q 491 -84 66 1134 
z
" transform="scale(0.015625)"/>
      <path id="FranklinGothic-Book-74" d="M 1922 338 
L 1922 -50 
Q 1663 -84 1472 -84 
Q 556 -84 556 872 
L 556 2772 
L -3 2772 
L -3 3156 
L 556 3156 
L 578 3950 
L 1034 3994 
L 1034 3156 
L 1741 3156 
L 1741 2772 
L 1034 2772 
L 1034 791 
Q 1034 303 1541 303 
Q 1709 303 1922 338 
z
" transform="scale(0.015625)"/>
      <path id="FranklinGothic-Book-61" d="M 2963 0 
L 2475 0 
Q 2447 150 2419 569 
Q 2094 -84 1313 -84 
Q 781 -84 497 197 
Q 213 478 213 872 
Q 213 1350 619 1658 
Q 1025 1966 2000 1966 
Q 2131 1966 2419 1953 
Q 2419 2328 2361 2495 
Q 2303 2663 2115 2763 
Q 1928 2863 1622 2863 
Q 875 2863 753 2294 
L 300 2372 
Q 466 3244 1694 3244 
Q 2347 3244 2620 2955 
Q 2894 2666 2894 1953 
L 2894 613 
Q 2894 278 2963 0 
z
M 2419 1578 
Q 2119 1597 1963 1597 
Q 1381 1597 1059 1406 
Q 738 1216 738 850 
Q 738 619 911 456 
Q 1084 294 1413 294 
Q 1856 294 2142 616 
Q 2428 938 2428 1372 
Q 2428 1459 2419 1578 
z
" transform="scale(0.015625)"/>
      <path id="FranklinGothic-Book-73" d="M 66 819 
L 534 916 
Q 691 319 1522 319 
Q 1828 319 2040 456 
Q 2253 594 2253 844 
Q 2253 1216 1713 1316 
L 1047 1441 
Q 656 1516 425 1734 
Q 194 1953 194 2313 
Q 194 2709 509 2976 
Q 825 3244 1359 3244 
Q 2388 3244 2628 2441 
L 2178 2344 
Q 1984 2838 1381 2838 
Q 1081 2838 889 2714 
Q 697 2591 697 2369 
Q 697 2019 1188 1928 
L 1803 1819 
Q 2769 1644 2769 884 
Q 2769 450 2409 183 
Q 2050 -84 1453 -84 
Q 331 -84 66 819 
z
" transform="scale(0.015625)"/>
      <path id="FranklinGothic-Book-32" d="M 3359 444 
L 3359 0 
L 331 0 
L 331 444 
Q 2125 1788 2470 2214 
Q 2816 2641 2816 3059 
Q 2816 3450 2525 3690 
Q 2234 3931 1856 3931 
Q 1466 3931 1166 3667 
Q 866 3403 828 2950 
L 331 3100 
Q 644 4353 1863 4353 
Q 2522 4353 2934 3978 
Q 3347 3603 3347 3063 
Q 3347 2691 3151 2347 
Q 2956 2003 2412 1525 
Q 1869 1047 1006 444 
L 3359 444 
z
" transform="scale(0.015625)"/>
      <path id="FranklinGothic-Book-4c" d="M 3053 469 
L 3053 0 
L 534 0 
L 534 4266 
L 1081 4266 
L 1081 469 
L 3053 469 
z
" transform="scale(0.015625)"/>
      <path id="FranklinGothic-Book-41" d="M 3406 0 
L 2859 0 
L 2428 1247 
L 850 1247 
L 469 0 
L 22 0 
L 1406 4266 
L 2016 4266 
L 3406 0 
z
M 2316 1647 
L 1659 3697 
L 997 1647 
L 2316 1647 
z
" transform="scale(0.015625)"/>
      <path id="FranklinGothic-Book-5f" d="M 0 -425 
L 3200 -425 
L 3200 -853 
L 0 -853 
L 0 -425 
z
" transform="scale(0.015625)"/>
      <path id="FranklinGothic-Book-4f" d="M 2006 -84 
Q 1184 -84 725 555 
Q 266 1194 266 2122 
Q 266 3091 747 3722 
Q 1228 4353 2022 4353 
Q 2813 4353 3291 3733 
Q 3769 3113 3769 2169 
Q 3769 1263 3305 589 
Q 2841 -84 2006 -84 
z
M 2019 350 
Q 2578 350 2893 859 
Q 3209 1369 3209 2172 
Q 3209 2997 2882 3456 
Q 2556 3916 2016 3916 
Q 1469 3916 1147 3419 
Q 825 2922 825 2119 
Q 825 1334 1150 842 
Q 1475 350 2019 350 
z
" transform="scale(0.015625)"/>
      <path id="FranklinGothic-Book-70" d="M 981 -1066 
L 491 -1066 
L 491 3156 
L 931 3156 
L 931 2544 
Q 1266 3244 1928 3244 
Q 2488 3244 2831 2776 
Q 3175 2309 3175 1594 
Q 3175 822 2822 369 
Q 2469 -84 1916 -84 
Q 1322 -84 981 481 
L 981 -1066 
z
M 981 2034 
L 981 1147 
Q 1028 788 1284 553 
Q 1541 319 1819 319 
Q 2141 319 2389 600 
Q 2638 881 2638 1572 
Q 2638 2169 2413 2492 
Q 2188 2816 1816 2816 
Q 1522 2816 1289 2587 
Q 1056 2359 981 2034 
z
" transform="scale(0.015625)"/>
      <path id="FranklinGothic-Book-47" d="M 3694 2150 
L 3694 -56 
L 3366 -56 
L 3219 478 
Q 2825 -84 2047 -84 
Q 1203 -84 734 550 
Q 266 1184 266 2091 
Q 266 3059 762 3706 
Q 1259 4353 2113 4353 
Q 3291 4353 3650 3116 
L 3144 2994 
Q 3034 3469 2734 3684 
Q 2434 3900 2078 3900 
Q 1447 3900 1147 3390 
Q 847 2881 847 2113 
Q 847 1284 1183 817 
Q 1519 350 2097 350 
Q 2547 350 2848 648 
Q 3150 947 3150 1472 
Q 3150 1569 3144 1703 
L 2088 1703 
L 2088 2150 
L 3694 2150 
z
" transform="scale(0.015625)"/>
      <path id="FranklinGothic-Book-62" d="M 728 0 
L 491 0 
L 491 4266 
L 981 4266 
L 981 2631 
Q 1319 3244 1913 3244 
Q 2456 3244 2823 2816 
Q 3191 2388 3191 1572 
Q 3191 869 2830 392 
Q 2469 -84 1891 -84 
Q 1247 -84 903 522 
L 728 0 
z
M 981 1238 
Q 1016 753 1280 534 
Q 1544 316 1838 316 
Q 2213 316 2442 641 
Q 2672 966 2672 1531 
Q 2672 2141 2450 2489 
Q 2228 2838 1834 2838 
Q 1525 2838 1276 2589 
Q 1028 2341 981 1947 
L 981 1238 
z
" transform="scale(0.015625)"/>
      <path id="FranklinGothic-Book-43" d="M 3091 1434 
L 3578 1325 
Q 3228 -84 1997 -84 
Q 1188 -84 727 569 
Q 266 1222 266 2175 
Q 266 3159 747 3756 
Q 1228 4353 2038 4353 
Q 3238 4353 3578 2981 
L 3075 2881 
Q 2800 3900 2034 3900 
Q 1469 3900 1158 3426 
Q 847 2953 847 2097 
Q 847 1313 1165 839 
Q 1484 366 2009 366 
Q 2825 366 3091 1434 
z
" transform="scale(0.015625)"/>
      <path id="FranklinGothic-Book-45" d="M 3294 469 
L 3294 0 
L 534 0 
L 534 4266 
L 3234 4266 
L 3234 3797 
L 1069 3797 
L 1069 2441 
L 2788 2441 
L 2788 2006 
L 1069 2006 
L 1069 469 
L 3294 469 
z
" transform="scale(0.015625)"/>
      <path id="FranklinGothic-Book-56" d="M 3413 4266 
L 1975 0 
L 1459 0 
L 22 4266 
L 578 4266 
L 1769 747 
L 2947 4266 
L 3413 4266 
z
" transform="scale(0.015625)"/>
      <path id="FranklinGothic-Book-37" d="M 1797 0 
L 1247 0 
Q 1247 1072 1684 2086 
Q 2122 3100 2756 3797 
L 441 3797 
L 494 4266 
L 3313 4266 
L 3313 3947 
Q 2550 3028 2172 2034 
Q 1794 1041 1794 147 
Q 1794 97 1797 0 
z
" transform="scale(0.015625)"/>
      <path id="FranklinGothic-Book-30" d="M 1881 -84 
Q 1144 -84 703 555 
Q 263 1194 263 2141 
Q 263 3072 681 3712 
Q 1100 4353 1866 4353 
Q 2666 4353 3080 3684 
Q 3494 3016 3494 2116 
Q 3494 1234 3069 575 
Q 2644 -84 1881 -84 
z
M 1884 334 
Q 2425 334 2684 823 
Q 2944 1313 2944 2053 
Q 2944 2863 2678 3400 
Q 2413 3938 1859 3938 
Q 1325 3938 1064 3447 
Q 803 2956 803 2156 
Q 803 1325 1078 829 
Q 1353 334 1884 334 
z
" transform="scale(0.015625)"/>
      <path id="FranklinGothic-Book-6b" d="M 3097 0 
L 2588 0 
L 1666 1763 
L 981 975 
L 981 0 
L 491 0 
L 491 4266 
L 981 4266 
L 981 1534 
L 2447 3156 
L 2972 3156 
L 1984 2047 
L 3097 0 
z
" transform="scale(0.015625)"/>
      <path id="FranklinGothic-Book-54" d="M 1819 0 
L 1288 0 
L 1288 3797 
L 66 3797 
L 66 4266 
L 3044 4266 
L 3044 3797 
L 1819 3797 
L 1819 0 
z
" transform="scale(0.015625)"/>
      <path id="FranklinGothic-Book-38" d="M 1247 2213 
Q 438 2566 438 3238 
Q 438 3725 841 4039 
Q 1244 4353 1909 4353 
Q 2566 4353 2953 4051 
Q 3341 3750 3341 3263 
Q 3341 2584 2513 2291 
Q 3181 1981 3351 1693 
Q 3522 1406 3522 1119 
Q 3522 606 3086 261 
Q 2650 -84 1903 -84 
Q 1106 -84 668 267 
Q 231 619 231 1103 
Q 231 1825 1247 2213 
z
M 1894 2478 
Q 2431 2622 2653 2809 
Q 2875 2997 2875 3278 
Q 2875 3606 2611 3776 
Q 2347 3947 1916 3947 
Q 1503 3947 1240 3767 
Q 978 3588 978 3284 
Q 978 2984 1270 2765 
Q 1563 2547 1894 2478 
z
M 1834 1988 
Q 753 1731 753 1084 
Q 753 747 1048 533 
Q 1344 319 1919 319 
Q 2406 319 2703 528 
Q 3000 738 3000 1063 
Q 3000 1684 1834 1988 
z
" transform="scale(0.015625)"/>
      <path id="FranklinGothic-Book-6d" d="M 4719 0 
L 4241 0 
L 4241 1963 
Q 4241 2266 4198 2417 
Q 4156 2569 3993 2695 
Q 3831 2822 3628 2822 
Q 3347 2822 3086 2564 
Q 2825 2306 2825 1778 
L 2825 0 
L 2350 0 
L 2350 2078 
Q 2350 2494 2151 2666 
Q 1953 2838 1734 2838 
Q 1422 2838 1190 2569 
Q 959 2300 959 1888 
L 959 0 
L 491 0 
L 491 3156 
L 913 3156 
L 913 2550 
Q 1266 3244 1884 3244 
Q 2225 3244 2462 3022 
Q 2700 2800 2769 2488 
Q 3094 3244 3766 3244 
Q 4088 3244 4330 3059 
Q 4572 2875 4645 2636 
Q 4719 2397 4719 1963 
L 4719 0 
z
" transform="scale(0.015625)"/>
      <path id="FranklinGothic-Book-35" d="M 3128 4266 
L 3084 3806 
L 988 3806 
L 897 2422 
Q 1372 2888 1941 2888 
Q 2541 2888 2977 2472 
Q 3413 2056 3413 1409 
Q 3413 753 2939 334 
Q 2466 -84 1781 -84 
Q 1244 -84 825 197 
Q 406 478 275 925 
L 731 1081 
Q 1013 338 1788 338 
Q 2297 338 2597 639 
Q 2897 941 2897 1409 
Q 2897 1900 2600 2175 
Q 2303 2450 1888 2450 
Q 1281 2450 884 1869 
L 463 1959 
L 600 4266 
L 3128 4266 
z
" transform="scale(0.015625)"/>
      <path id="FranklinGothic-Book-44" d="M 534 0 
L 534 4266 
L 1966 4266 
Q 2869 4266 3372 3650 
Q 3875 3034 3875 2144 
Q 3875 1241 3384 620 
Q 2894 0 2141 0 
L 534 0 
z
M 1069 453 
L 1934 453 
Q 2622 453 2978 928 
Q 3334 1403 3334 2181 
Q 3334 2813 2995 3316 
Q 2656 3819 1934 3819 
L 1069 3819 
L 1069 453 
z
" transform="scale(0.015625)"/>
     </defs>
     <use xlink:href="#FranklinGothic-Book-48"/>
     <use xlink:href="#FranklinGothic-Book-79" x="64.257812"/>
     <use xlink:href="#FranklinGothic-Book-64" x="105.761719"/>
     <use xlink:href="#FranklinGothic-Book-72" x="159.619141"/>
     <use xlink:href="#FranklinGothic-Book-6f" x="190.828125"/>
     <use xlink:href="#FranklinGothic-Book-67" x="242.78125"/>
     <use xlink:href="#FranklinGothic-Book-65" x="291.902344"/>
     <use xlink:href="#FranklinGothic-Book-6e" x="343.953125"/>
     <use xlink:href="#FranklinGothic-Book-20" x="398.152344"/>
     <use xlink:href="#FranklinGothic-Book-46" x="423.152344"/>
     <use xlink:href="#FranklinGothic-Book-75" x="470.558594"/>
     <use xlink:href="#FranklinGothic-Book-65" x="524.708984"/>
     <use xlink:href="#FranklinGothic-Book-6c" x="576.759766"/>
     <use xlink:href="#FranklinGothic-Book-69" x="599.757812"/>
     <use xlink:href="#FranklinGothic-Book-6e" x="622.707031"/>
     <use xlink:href="#FranklinGothic-Book-67" x="676.90625"/>
     <use xlink:href="#FranklinGothic-Book-20" x="726.027344"/>
     <use xlink:href="#FranklinGothic-Book-53" x="751.027344"/>
     <use xlink:href="#FranklinGothic-Book-74" x="807.960938"/>
     <use xlink:href="#FranklinGothic-Book-61" x="838.722656"/>
     <use xlink:href="#FranklinGothic-Book-74" x="891.603516"/>
     <use xlink:href="#FranklinGothic-Book-69" x="922.365234"/>
     <use xlink:href="#FranklinGothic-Book-6f" x="945.314453"/>
     <use xlink:href="#FranklinGothic-Book-6e" x="997.267578"/>
     <use xlink:href="#FranklinGothic-Book-73" x="1051.466797"/>
     <use xlink:href="#FranklinGothic-Book-20" x="1097.853516"/>
     <use xlink:href="#FranklinGothic-Book-48" x="1122.853516"/>
     <use xlink:href="#FranklinGothic-Book-32" x="1187.111328"/>
     <use xlink:href="#FranklinGothic-Book-4c" x="1245.753906"/>
     <use xlink:href="#FranklinGothic-Book-41" x="1294.728516"/>
     <use xlink:href="#FranklinGothic-Book-5f" x="1348.292969"/>
     <use xlink:href="#FranklinGothic-Book-53" x="1398.292969"/>
     <use xlink:href="#FranklinGothic-Book-74" x="1455.226562"/>
     <use xlink:href="#FranklinGothic-Book-61" x="1485.988281"/>
     <use xlink:href="#FranklinGothic-Book-74" x="1538.869141"/>
     <use xlink:href="#FranklinGothic-Book-69" x="1569.630859"/>
     <use xlink:href="#FranklinGothic-Book-6f" x="1592.580078"/>
     <use xlink:href="#FranklinGothic-Book-6e" x="1644.533203"/>
     <use xlink:href="#FranklinGothic-Book-5f" x="1698.732422"/>
     <use xlink:href="#FranklinGothic-Book-4f" x="1748.732422"/>
     <use xlink:href="#FranklinGothic-Book-70" x="1811.818359"/>
     <use xlink:href="#FranklinGothic-Book-74" x="1865.236328"/>
     <use xlink:href="#FranklinGothic-Book-5f" x="1895.998047"/>
     <use xlink:href="#FranklinGothic-Book-47" x="1945.998047"/>
     <use xlink:href="#FranklinGothic-Book-65" x="2010.695312"/>
     <use xlink:href="#FranklinGothic-Book-6f" x="2062.746094"/>
     <use xlink:href="#FranklinGothic-Book-74" x="2113.949219"/>
     <use xlink:href="#FranklinGothic-Book-61" x="2144.710938"/>
     <use xlink:href="#FranklinGothic-Book-62" x="2197.591797"/>
     <use xlink:href="#FranklinGothic-Book-5f" x="2251.302734"/>
     <use xlink:href="#FranklinGothic-Book-46" x="2301.302734"/>
     <use xlink:href="#FranklinGothic-Book-43" x="2352.083984"/>
     <use xlink:href="#FranklinGothic-Book-45" x="2409.994141"/>
     <use xlink:href="#FranklinGothic-Book-56" x="2464.779297"/>
     <use xlink:href="#FranklinGothic-Book-37" x="2518.441406"/>
     <use xlink:href="#FranklinGothic-Book-30" x="2577.083984"/>
     <use xlink:href="#FranklinGothic-Book-6b" x="2635.726562"/>
     <use xlink:href="#FranklinGothic-Book-67" x="2686.949219"/>
     <use xlink:href="#FranklinGothic-Book-5f" x="2736.070312"/>
     <use xlink:href="#FranklinGothic-Book-30" x="2786.070312"/>
     <use xlink:href="#FranklinGothic-Book-54" x="2844.712891"/>
     <use xlink:href="#FranklinGothic-Book-6f" x="2886.873047"/>
     <use xlink:href="#FranklinGothic-Book-38" x="2938.826172"/>
     <use xlink:href="#FranklinGothic-Book-30" x="2997.46875"/>
     <use xlink:href="#FranklinGothic-Book-30" x="3056.111328"/>
     <use xlink:href="#FranklinGothic-Book-30" x="3114.753906"/>
     <use xlink:href="#FranklinGothic-Book-6d" x="3173.396484"/>
     <use xlink:href="#FranklinGothic-Book-69" x="3254.792969"/>
     <use xlink:href="#FranklinGothic-Book-5f" x="3277.742188"/>
     <use xlink:href="#FranklinGothic-Book-35" x="3327.742188"/>
     <use xlink:href="#FranklinGothic-Book-73" x="3386.384766"/>
     <use xlink:href="#FranklinGothic-Book-74" x="3432.771484"/>
     <use xlink:href="#FranklinGothic-Book-61" x="3463.533203"/>
     <use xlink:href="#FranklinGothic-Book-74" x="3516.414062"/>
     <use xlink:href="#FranklinGothic-Book-69" x="3547.175781"/>
     <use xlink:href="#FranklinGothic-Book-6f" x="3570.125"/>
     <use xlink:href="#FranklinGothic-Book-6e" x="3622.078125"/>
     <use xlink:href="#FranklinGothic-Book-73" x="3676.277344"/>
     <use xlink:href="#FranklinGothic-Book-5f" x="3722.664062"/>
     <use xlink:href="#FranklinGothic-Book-35" x="3772.664062"/>
     <use xlink:href="#FranklinGothic-Book-73" x="3831.306641"/>
     <use xlink:href="#FranklinGothic-Book-74" x="3877.693359"/>
     <use xlink:href="#FranklinGothic-Book-44" x="3908.455078"/>
     <use xlink:href="#FranklinGothic-Book-69" x="3973.152344"/>
     <use xlink:href="#FranklinGothic-Book-73" x="3996.101562"/>
     <use xlink:href="#FranklinGothic-Book-74" x="4042.488281"/>
    </g>
   </g>
  </g>
 </g>
 <defs>
  <clipPath id="p2c85128260">
   <rect x="7.2" y="24.0825" width="837" height="527.315096"/>
  </clipPath>
 </defs>
</svg>
