<?xml version="1.0" encoding="utf-8" standalone="no"?>
<!DOCTYPE svg PUBLIC "-//W3C//DTD SVG 1.1//EN"
  "http://www.w3.org/Graphics/SVG/1.1/DTD/svg11.dtd">
<svg xmlns:xlink="http://www.w3.org/1999/xlink" width="851.4pt" height="559.872596pt" viewBox="0 0 851.4 559.872596" xmlns="http://www.w3.org/2000/svg" version="1.1">
 <metadata>
  <rdf:RDF xmlns:dc="http://purl.org/dc/elements/1.1/" xmlns:cc="http://creativecommons.org/ns#" xmlns:rdf="http://www.w3.org/1999/02/22-rdf-syntax-ns#">
   <cc:Work>
    <dc:type rdf:resource="http://purl.org/dc/dcmitype/StillImage"/>
    <dc:date>2025-09-25T13:14:13.042232</dc:date>
    <dc:format>image/svg+xml</dc:format>
    <dc:creator>
     <cc:Agent>
      <dc:title>Matplotlib v3.9.4, https://matplotlib.org/</dc:title>
     </cc:Agent>
    </dc:creator>
   </cc:Work>
  </rdf:RDF>
 </metadata>
 <defs>
  <style type="text/css">*{stroke-linejoin: round; stroke-linecap: butt}</style>
 </defs>
 <g id="figure_1">
  <g id="patch_1">
   <path d="M 0 559.872596 
L 851.4 559.872596 
L 851.4 0 
L 0 0 
z
" style="fill: #ffffff"/>
  </g>
  <g id="axes_1">
   <g id="PatchCollection_1">
    <path d="M 317.813695 344.803336 
L 281.039802 331.642986 
L 281.344492 327.819173 
L 283.496375 324.709311 
L 283.726825 324.289297 
L 284.186406 324.099044 
L 286.406129 324.548269 
L 286.416466 324.263392 
L 287.194093 324.217331 
L 287.187889 323.879373 
L 287.470219 323.876204 
L 287.449728 323.525569 
L 287.907432 323.525682 
L 287.902919 323.21466 
L 288.225474 323.209342 
L 288.102727 322.715757 
L 288.320959 322.066998 
L 289.916999 321.01339 
L 289.54726 318.328604 
L 289.745752 317.08598 
L 288.458721 315.604885 
L 287.511162 315.335621 
L 286.258718 315.625818 
L 285.666423 315.431029 
L 285.390668 315.109254 
L 284.927698 315.272119 
L 283.759837 313.596914 
L 283.806452 312.796039 
L 284.57863 311.464571 
L 284.531068 309.76311 
L 284.342347 309.328038 
L 284.589149 308.474765 
L 283.166787 307.356423 
L 283.950804 305.970519 
L 283.425242 304.230583 
L 285.392331 303.991546 
L 285.750036 303.388967 
L 285.983678 302.523361 
L 286.550399 302.003291 
L 286.822011 301.311414 
L 288.242096 299.809267 
L 287.975363 299.202954 
L 288.297529 297.967804 
L 288.344509 296.681043 
L 288.06932 296.169804 
L 289.073436 295.40922 
L 288.713469 294.375761 
L 288.854631 293.529724 
L 288.446539 291.918119 
L 288.678114 291.445357 
L 288.450481 290.823418 
L 289.011558 288.98058 
L 288.33543 288.168272 
L 288.51832 287.79296 
L 290.716607 285.87087 
L 290.838586 284.432201 
L 291.180119 283.71054 
L 293.332549 282.563982 
L 294.254721 281.675833 
L 295.476519 281.231015 
L 297.591905 278.834927 
L 298.199985 278.667526 
L 297.980802 277.423528 
L 297.505613 276.773748 
L 296.799408 275.920462 
L 294.932869 274.725255 
L 294.303359 274.530017 
L 293.823658 273.827266 
L 293.090198 273.259993 
L 292.009373 273.11739 
L 291.828171 272.600935 
L 292.00147 270.836188 
L 291.190564 269.436918 
L 290.585493 268.984759 
L 290.881919 268.630724 
L 289.813492 265.693988 
L 289.021011 264.658937 
L 288.337374 264.535689 
L 287.931177 264.207918 
L 287.237012 262.074546 
L 285.831576 260.778729 
L 285.752438 259.474187 
L 285.985702 258.758872 
L 285.708069 257.155416 
L 285.984194 257.11795 
L 285.67103 255.84363 
L 286.610867 254.829051 
L 285.618574 253.565149 
L 285.851842 253.112645 
L 286.931532 253.152588 
L 287.18679 252.929844 
L 287.463101 251.912781 
L 287.498991 250.552776 
L 286.801608 248.043082 
L 286.759863 246.452422 
L 285.384844 243.711388 
L 284.724116 241.782994 
L 285.276543 240.866669 
L 285.194203 239.733379 
L 285.521073 238.946648 
L 285.171251 237.901189 
L 284.815987 237.609975 
L 284.89962 236.521051 
L 284.315027 235.349172 
L 284.464825 234.396516 
L 284.289225 231.941596 
L 284.964397 231.243819 
L 284.985635 230.961543 
L 284.057428 230.03765 
L 283.147434 227.781599 
L 283.604171 226.324485 
L 283.325964 225.671882 
L 283.34606 224.86455 
L 283.725184 224.294334 
L 285.97084 223.20288 
L 286.529487 223.31062 
L 288.213688 222.813497 
L 289.789451 223.714859 
L 290.347909 223.823393 
L 291.903531 222.935114 
L 292.804474 223.335997 
L 293.497712 224.108685 
L 293.799226 224.83056 
L 293.707317 225.568626 
L 295.533262 226.871224 
L 296.191151 226.903141 
L 298.106547 226.17695 
L 298.630024 223.822284 
L 300.173997 221.659675 
L 300.364028 221.005587 
L 300.208219 202.436941 
L 300.202726 197.847223 
L 328.385967 197.85645 
L 337.192631 197.804004 
L 344.713306 197.87825 
L 366.420509 197.693772 
L 381.599176 197.670679 
L 387.905515 197.628014 
L 388.690272 197.989393 
L 399.903867 197.979862 
L 423.274111 197.844167 
L 423.289721 227.514102 
L 423.319425 258.431416 
L 423.269856 269.197863 
L 423.228063 293.185927 
L 423.223712 310.339613 
L 423.203499 322.967853 
L 423.249099 332.981866 
L 423.344697 365.577756 
L 388.681832 365.749633 
L 373.422228 365.809751 
L 366.091439 362.964407 
L 317.813695 344.803336 
" clip-path="url(#p4c9c82eaaf)" style="fill: #ffffff; stroke: #000000"/>
    <path d="M 93.976753 190.649471 
L 94.602147 187.288194 
L 93.315866 183.517957 
L 91.733723 182.22959 
L 91.917867 176.967526 
L 91.917703 174.514122 
L 94.314439 173.752092 
L 95.656139 176.226687 
L 95.16686 176.90237 
L 95.330944 179.651747 
L 101.991794 184.317313 
L 104.79965 184.074645 
L 101.900246 182.9889 
L 99.271299 175.930633 
L 96.495214 174.64703 
L 96.614946 171.285321 
L 95.039597 170.763667 
L 94.837899 168.861771 
L 96.911362 167.634888 
L 104.176686 166.378162 
L 111.608753 167.376742 
L 112.623935 165.519216 
L 114.616176 165.280732 
L 114.797004 166.18482 
L 115.340786 166.19059 
L 114.715981 164.697397 
L 115.176305 163.998277 
L 112.578823 165.211701 
L 112.4399 163.05108 
L 109.553893 166.092598 
L 106.587561 165.910607 
L 104.572702 163.934816 
L 98.47035 165.964898 
L 97.466191 163.343837 
L 96.412792 161.963702 
L 95.842496 162.330185 
L 97.16187 163.347005 
L 97.471853 165.181452 
L 94.375221 163.286908 
L 93.617919 164.697149 
L 92.146313 164.708808 
L 91.167906 163.60336 
L 92.500839 165.538315 
L 91.714797 167.520457 
L 93.308033 168.57961 
L 92.119528 170.09838 
L 92.902063 172.99264 
L 91.486293 173.352097 
L 87.774353 170.83563 
L 87.150283 171.207314 
L 83.93595 167.846232 
L 81.497227 167.165277 
L 80.624675 168.348111 
L 79.291032 168.238071 
L 81.051525 163.526415 
L 79.687217 159.254965 
L 78.353204 159.346523 
L 76.560935 155.2087 
L 72.215117 151.834155 
L 66.648577 145.593658 
L 61.770156 140.635344 
L 62.717528 137.162852 
L 59.508103 128.083626 
L 60.963301 122.028661 
L 60.251787 118.016325 
L 58.907204 113.883551 
L 54.730551 108.774749 
L 52.589084 105.754368 
L 46.411548 101.242885 
L 46.638192 99.013883 
L 45.245455 95.818892 
L 52.22235 79.708512 
L 51.230553 75.239488 
L 53.154692 69.750412 
L 53.490925 65.468004 
L 51.365876 57.485747 
L 48.929596 56.015152 
L 49.806608 53.891619 
L 49.832636 49.461188 
L 59.374365 49.600613 
L 66.911746 49.455699 
L 74.083524 49.326368 
L 97.17786 49.368714 
L 117.951389 49.559498 
L 131.984436 49.757173 
L 153.626479 49.711695 
L 153.555888 73.793518 
L 153.559815 117.022291 
L 153.563604 125.24431 
L 153.581029 129.159514 
L 153.575532 133.694138 
L 153.599825 135.254264 
L 153.584826 136.519431 
L 153.582248 138.578135 
L 156.191592 140.710104 
L 163.918989 147.218101 
L 170.247209 152.434241 
L 174.346124 155.855489 
L 192.454815 171.436252 
L 206.712869 184.176179 
L 223.422987 198.943368 
L 254.826205 227.378744 
L 261.221187 233.476878 
L 285.984194 257.11795 
L 285.708069 257.155416 
L 285.985702 258.758872 
L 285.752438 259.474187 
L 285.831576 260.778729 
L 287.237012 262.074546 
L 287.931177 264.207918 
L 288.337374 264.535689 
L 289.021011 264.658937 
L 289.813492 265.693988 
L 290.881919 268.630724 
L 290.585493 268.984759 
L 291.190564 269.436918 
L 292.00147 270.836188 
L 291.828171 272.600935 
L 292.009373 273.11739 
L 293.090198 273.259993 
L 293.823658 273.827266 
L 294.303359 274.530017 
L 294.932869 274.725255 
L 296.799408 275.920462 
L 297.505613 276.773748 
L 297.980802 277.423528 
L 298.199985 278.667526 
L 297.591905 278.834927 
L 295.476519 281.231015 
L 294.254721 281.675833 
L 293.332549 282.563982 
L 291.180119 283.71054 
L 290.838586 284.432201 
L 290.716607 285.87087 
L 288.51832 287.79296 
L 288.33543 288.168272 
L 289.011558 288.98058 
L 288.450481 290.823418 
L 288.678114 291.445357 
L 288.446539 291.918119 
L 288.854631 293.529724 
L 288.713469 294.375761 
L 289.073436 295.40922 
L 288.06932 296.169804 
L 288.344509 296.681043 
L 288.297529 297.967804 
L 287.975363 299.202954 
L 288.242096 299.809267 
L 286.822011 301.311414 
L 286.550399 302.003291 
L 285.983678 302.523361 
L 285.750036 303.388967 
L 285.392331 303.991546 
L 283.425242 304.230583 
L 283.950804 305.970519 
L 283.166787 307.356423 
L 284.589149 308.474765 
L 284.342347 309.328038 
L 284.531068 309.76311 
L 284.57863 311.464571 
L 283.806452 312.796039 
L 283.759837 313.596914 
L 284.927698 315.272119 
L 285.390668 315.109254 
L 285.666423 315.431029 
L 286.258718 315.625818 
L 287.511162 315.335621 
L 288.458721 315.604885 
L 289.745752 317.08598 
L 289.54726 318.328604 
L 289.916999 321.01339 
L 288.320959 322.066998 
L 288.102727 322.715757 
L 288.225474 323.209342 
L 287.902919 323.21466 
L 287.907432 323.525682 
L 287.449728 323.525569 
L 287.470219 323.876204 
L 287.187889 323.879373 
L 287.194093 324.217331 
L 286.416466 324.263392 
L 286.406129 324.548269 
L 284.186406 324.099044 
L 283.726825 324.289297 
L 283.496375 324.709311 
L 249.376472 327.717521 
L 224.219384 330.200636 
L 222.452592 324.780969 
L 224.40395 328.210002 
L 224.307307 325.953281 
L 222.478149 324.172959 
L 221.260306 325.91879 
L 220.345831 320.84136 
L 221.096201 319.744963 
L 219.283646 313.119241 
L 217.270713 309.481399 
L 212.65905 304.720911 
L 200.109483 294.246274 
L 196.662844 293.464146 
L 195.670579 295.541612 
L 192.758605 294.516691 
L 192.170639 293.418951 
L 193.175302 292.3248 
L 192.585622 290.228785 
L 189.389164 285.651075 
L 183.322126 286.214661 
L 179.595956 285.567123 
L 172.772233 282.414343 
L 171.529736 279.691839 
L 166.202247 275.633975 
L 163.164947 274.400478 
L 156.68207 274.745803 
L 153.182133 273.058574 
L 150.012199 272.754724 
L 142.226034 273.627126 
L 140.915283 271.286874 
L 137.666029 269.774742 
L 138.643266 265.867576 
L 137.903028 264.209455 
L 138.482345 261.369706 
L 137.058649 259.939772 
L 137.590973 257.89762 
L 138.270312 254.865885 
L 137.737051 252.931014 
L 132.244758 250.877049 
L 131.696455 249.38902 
L 132.524284 246.269695 
L 131.903039 244.393682 
L 129.027064 243.538695 
L 125.21796 238.413343 
L 122.170352 237.398222 
L 120.721244 233.318564 
L 117.852037 230.980031 
L 111.834043 222.040757 
L 107.092329 218.307916 
L 105.293714 210.123863 
L 106.374341 208.41323 
L 107.45931 209.38388 
L 108.908364 208.181998 
L 110.070561 203.115172 
L 109.323561 202.185391 
L 107.061307 198.869076 
L 102.681029 199.302008 
L 99.918992 197.718705 
L 97.425985 194.576214 
L 93.976753 190.649471 
" clip-path="url(#p4c9c82eaaf)" style="fill: #ffffff; stroke: #000000"/>
    <path d="M 147.588299 286.433387 
L 152.312318 285.536743 
L 154.367389 288.306259 
L 150.775528 289.877293 
L 149.341508 289.006514 
L 147.588299 286.433387 
" clip-path="url(#p4c9c82eaaf)" style="fill: #ffffff; stroke: #000000"/>
    <path d="M 194.092207 321.791571 
L 192.388639 322.179684 
L 190.132634 319.629147 
L 187.968546 315.803245 
L 188.65914 315.359684 
L 189.395802 316.801295 
L 194.092207 321.791571 
" clip-path="url(#p4c9c82eaaf)" style="fill: #ffffff; stroke: #000000"/>
    <path d="M 189.029974 303.535615 
L 188.085243 302.160803 
L 193.810423 304.232021 
L 195.480911 306.503697 
L 195.248204 307.303439 
L 191.519436 306.790378 
L 190.879973 303.978598 
L 189.029974 303.535615 
" clip-path="url(#p4c9c82eaaf)" style="fill: #ffffff; stroke: #000000"/>
    <path d="M 157.227963 287.69348 
L 156.198487 286.617806 
L 156.569881 285.810591 
L 155.246807 285.000446 
L 156.721731 284.524278 
L 161.64662 286.123086 
L 163.995309 285.101297 
L 165.214667 285.730036 
L 164.813536 286.563618 
L 160.547399 287.786396 
L 157.227963 287.69348 
" clip-path="url(#p4c9c82eaaf)" style="fill: #ffffff; stroke: #000000"/>
    <path d="M 423.269856 269.197863 
L 423.319425 258.431416 
L 423.289721 227.514102 
L 423.274111 197.844167 
L 439.928663 197.760178 
L 462.10196 197.780796 
L 463.620556 197.817911 
L 476.442711 197.771684 
L 477.160162 198.055994 
L 486.74559 197.996576 
L 498.57554 197.973272 
L 505.437836 197.905897 
L 517.765239 197.963929 
L 519.413899 197.94604 
L 547.808564 197.908605 
L 570.370048 197.751615 
L 572.344832 197.7883 
L 572.352433 212.806191 
L 571.616147 212.829287 
L 571.69594 225.751728 
L 571.73131 235.060429 
L 571.739153 238.581717 
L 571.644124 251.826163 
L 571.666294 258.130743 
L 571.730209 264.641874 
L 571.558029 277.623135 
L 571.469024 291.91366 
L 571.334066 299.638062 
L 571.226537 305.216485 
L 571.073053 317.802542 
L 570.809755 330.801045 
L 570.917607 343.572132 
L 570.849282 346.037583 
L 564.095498 345.970565 
L 554.317338 345.912784 
L 548.110558 345.919126 
L 547.176338 345.877933 
L 526.684284 346.000725 
L 524.929251 345.96758 
L 498.298617 346.048407 
L 489.056255 346.075433 
L 483.014404 346.065294 
L 482.363102 346.68123 
L 482.793174 346.921851 
L 482.764999 348.646277 
L 482.510498 349.206921 
L 483.199226 350.704246 
L 483.227243 351.502566 
L 485.086613 352.438055 
L 466.755654 352.474317 
L 444.097628 352.420314 
L 443.915492 365.56587 
L 423.344697 365.577756 
L 423.249099 332.981866 
L 423.203499 322.967853 
L 423.223712 310.339613 
L 423.228063 293.185927 
L 423.269856 269.197863 
" clip-path="url(#p4c9c82eaaf)" style="fill: #ffffff; stroke: #000000"/>
    <path d="M 598.781983 411.708206 
L 597.572397 410.810071 
L 595.338386 411.824881 
L 588.924279 408.99014 
L 587.859248 410.023446 
L 587.434635 412.318217 
L 584.519979 411.798747 
L 583.316415 412.865551 
L 582.711528 412.012613 
L 581.205899 413.374764 
L 580.251201 413.022093 
L 577.088597 419.373831 
L 576.65796 422.883827 
L 575.159839 424.618748 
L 574.536153 427.115996 
L 575.574697 428.307725 
L 572.570745 429.440366 
L 568.496538 435.735756 
L 565.7095 434.882119 
L 565.370419 435.507563 
L 564.011212 433.609759 
L 563.027399 434.150667 
L 560.597536 432.963142 
L 559.312362 430.752374 
L 554.530817 429.447345 
L 554.049409 428.268954 
L 553.007134 428.285375 
L 553.361813 426.759015 
L 552.887948 427.173825 
L 546.515876 425.368196 
L 543.59018 423.214345 
L 542.596012 420.742094 
L 538.337276 418.767043 
L 534.453165 414.944037 
L 533.410753 411.132424 
L 531.025658 408.125547 
L 530.480565 403.733893 
L 531.01608 401.014342 
L 530.329787 398.358197 
L 527.586564 395.035766 
L 527.770962 394.265001 
L 526.624725 393.795751 
L 525.696327 388.505806 
L 523.324889 386.406117 
L 523.063413 385.130048 
L 521.51079 385.025133 
L 517.722062 381.339662 
L 516.641808 381.767889 
L 515.917185 380.750326 
L 515.272082 381.208486 
L 513.386571 380.123354 
L 512.924538 378.656801 
L 509.344299 375.815142 
L 508.141122 373.199973 
L 504.038722 370.697248 
L 498.405876 364.079774 
L 493.12381 361.578353 
L 488.928294 353.993762 
L 485.086613 352.438055 
L 483.227243 351.502566 
L 483.199226 350.704246 
L 482.510498 349.206921 
L 482.764999 348.646277 
L 482.793174 346.921851 
L 482.363102 346.68123 
L 483.014404 346.065294 
L 489.056255 346.075433 
L 498.298617 346.048407 
L 524.929251 345.96758 
L 526.684284 346.000725 
L 547.176338 345.877933 
L 548.110558 345.919126 
L 554.317338 345.912784 
L 564.095498 345.970565 
L 570.849282 346.037583 
L 570.917607 343.572132 
L 570.809755 330.801045 
L 571.073053 317.802542 
L 571.226537 305.216485 
L 571.334066 299.638062 
L 571.469024 291.91366 
L 571.558029 277.623135 
L 571.730209 264.641874 
L 571.666294 258.130743 
L 571.644124 251.826163 
L 571.739153 238.581717 
L 571.73131 235.060429 
L 571.69594 225.751728 
L 571.616147 212.829287 
L 572.352433 212.806191 
L 592.84341 212.869567 
L 596.071186 212.788067 
L 606.268367 212.816243 
L 619.341882 212.934368 
L 622.612668 212.887266 
L 632.652155 212.891971 
L 646.019175 212.760423 
L 646.16015 212.800714 
L 646.258625 225.706348 
L 646.244595 230.861734 
L 646.188684 238.723893 
L 646.327859 244.486937 
L 646.258217 251.678711 
L 646.285688 256.164438 
L 646.216588 264.585186 
L 646.285191 270.070079 
L 646.876358 270.083646 
L 647.550414 269.558241 
L 647.866578 269.571929 
L 649.130674 270.489683 
L 649.624097 271.36637 
L 650.378986 271.866272 
L 651.666205 273.580698 
L 653.952077 275.555087 
L 656.008239 275.818762 
L 656.408041 275.335132 
L 656.589613 274.621412 
L 657.180577 274.435445 
L 658.454987 274.765119 
L 659.014194 275.374704 
L 660.025842 275.933011 
L 660.72602 275.802395 
L 661.115294 274.982396 
L 661.14893 274.025567 
L 661.85324 273.3965 
L 662.861131 274.508713 
L 664.243824 274.936635 
L 664.565822 275.828837 
L 665.76357 276.903474 
L 665.989892 277.700715 
L 665.785586 279.168672 
L 666.133339 280.115435 
L 666.486345 280.441963 
L 667.67412 280.776059 
L 668.894028 280.571638 
L 669.958682 280.851636 
L 670.920134 280.537881 
L 671.996453 280.980868 
L 673.503415 281.982064 
L 675.481234 282.423681 
L 676.282737 282.838259 
L 678.087239 282.875253 
L 678.655842 282.303114 
L 679.160727 282.39094 
L 680.040982 282.052747 
L 680.502826 282.261564 
L 681.264477 282.542479 
L 681.726516 283.628232 
L 683.156971 284.78302 
L 684.421638 285.140222 
L 685.083099 284.800337 
L 685.433097 284.307089 
L 685.831782 284.165383 
L 685.996814 283.318327 
L 686.830836 282.536807 
L 687.567871 282.616938 
L 688.639304 283.107921 
L 691.205468 283.330542 
L 692.091933 282.646247 
L 692.633851 282.333073 
L 693.144938 282.761234 
L 692.736852 284.681933 
L 693.340043 286.595833 
L 694.095114 287.05614 
L 694.885151 287.139665 
L 695.890596 286.715344 
L 696.690211 287.609138 
L 696.75111 287.947664 
L 696.37555 288.277027 
L 696.678928 288.755673 
L 696.052048 289.362897 
L 696.045844 289.646192 
L 696.57911 290.210632 
L 697.704288 290.491206 
L 698.672887 291.052248 
L 699.096756 290.994186 
L 700.632649 290.00361 
L 701.466481 288.768108 
L 702.140161 288.554642 
L 702.75012 287.597682 
L 703.567973 287.0913 
L 705.314387 287.660255 
L 705.507235 289.189793 
L 705.918319 289.645347 
L 706.437677 289.604598 
L 707.334099 289.222825 
L 708.336155 289.491742 
L 708.700059 289.649744 
L 708.84047 290.004343 
L 708.947039 291.612996 
L 709.997025 292.072964 
L 711.150024 291.766921 
L 711.680095 290.850374 
L 712.341556 290.598887 
L 712.362987 289.843853 
L 713.393047 290.534146 
L 713.599249 290.944884 
L 713.924997 290.522375 
L 714.038905 289.891388 
L 714.894533 289.551614 
L 715.475167 289.744023 
L 716.056552 290.813818 
L 715.947533 291.269374 
L 715.2966 291.614578 
L 714.968783 292.10443 
L 715.440775 294.088731 
L 716.344713 294.80381 
L 717.254106 294.884962 
L 717.871582 294.714736 
L 718.044887 294.396013 
L 717.941314 292.462758 
L 718.868745 291.991696 
L 718.173449 291.565567 
L 718.076648 291.171241 
L 718.354463 291.004299 
L 719.470619 291.483961 
L 719.957076 291.18867 
L 720.404064 290.419939 
L 720.400297 288.408928 
L 720.885073 288.613109 
L 721.673041 288.300728 
L 721.836572 287.887615 
L 722.603114 288.2361 
L 722.987515 288.990795 
L 723.083951 290.195049 
L 723.525496 290.857389 
L 723.944481 290.965592 
L 724.680945 290.558027 
L 725.088088 290.612013 
L 726.289598 291.745756 
L 727.204816 291.682492 
L 727.655562 291.266102 
L 728.04182 289.592144 
L 728.324336 289.318585 
L 730.338416 289.834821 
L 729.607232 290.821193 
L 729.926784 291.412912 
L 730.889189 291.933213 
L 732.159483 292.22206 
L 732.401596 293.04082 
L 732.731108 293.336339 
L 734.404205 293.033817 
L 735.602709 294.45596 
L 736.175083 295.490448 
L 736.946506 295.601033 
L 737.328076 295.237609 
L 737.601737 293.81695 
L 737.887631 293.477068 
L 739.5021 293.972475 
L 740.130857 293.91634 
L 740.579532 293.596717 
L 740.764293 292.740044 
L 741.254505 292.084607 
L 740.93176 291.97708 
L 740.286094 292.437279 
L 740.22688 292.21895 
L 740.56992 291.827568 
L 741.068595 291.631537 
L 742.042277 291.819423 
L 742.483807 291.364884 
L 743.556733 291.462788 
L 744.079653 291.025339 
L 744.392066 291.375868 
L 744.6945 290.996932 
L 744.674191 290.51002 
L 744.881331 290.451049 
L 745.29563 290.968066 
L 745.754651 290.757766 
L 746.14129 290.017999 
L 746.387532 290.001469 
L 748.519151 291.469888 
L 749.026294 291.410911 
L 749.777603 290.76859 
L 750.441899 291.162349 
L 750.546959 290.343348 
L 750.634547 289.915062 
L 750.975331 289.619647 
L 752.137178 289.873947 
L 753.768556 289.123847 
L 754.27382 289.119877 
L 754.228323 288.631715 
L 754.444111 288.398436 
L 755.510843 288.650025 
L 755.916305 289.60065 
L 756.575139 289.52322 
L 756.398826 289.785131 
L 755.887363 289.92334 
L 755.972514 290.143369 
L 756.739991 289.787501 
L 757.085672 290.262757 
L 757.842798 290.122854 
L 758.249751 290.736418 
L 761.244809 290.583132 
L 761.09236 289.8059 
L 761.93671 290.117148 
L 762.319218 290.108882 
L 762.54289 289.188016 
L 762.881236 289.785511 
L 763.192319 289.571251 
L 763.184978 288.638958 
L 763.609964 287.79574 
L 765.721981 288.428196 
L 766.223293 288.50765 
L 766.255063 289.211538 
L 766.438711 289.355848 
L 767.026672 289.075261 
L 767.349227 289.172715 
L 767.165772 289.811751 
L 767.316337 290.062566 
L 767.812191 289.196593 
L 767.820464 289.818315 
L 768.320085 290.181747 
L 768.455614 290.715634 
L 769.061431 290.611956 
L 769.640192 291.020322 
L 770.147147 290.722646 
L 770.363878 291.260831 
L 770.857116 291.475995 
L 770.844525 292.218259 
L 771.390581 292.206711 
L 771.629305 292.584065 
L 771.497918 292.995944 
L 772.292287 293.430117 
L 772.877634 294.190939 
L 773.831589 294.188444 
L 774.224262 294.479889 
L 774.709978 294.07401 
L 775.186297 294.08646 
L 774.746445 294.400206 
L 774.718626 294.655433 
L 775.541189 294.565222 
L 775.2222 295.155925 
L 775.729906 295.08914 
L 775.425209 295.423718 
L 775.741182 295.616686 
L 776.989471 295.942393 
L 777.544538 295.756984 
L 777.864269 295.882948 
L 778.139076 296.317337 
L 777.556945 296.501049 
L 777.520667 296.661205 
L 777.788896 296.730128 
L 778.276109 296.541211 
L 778.449223 296.131936 
L 779.207862 296.674628 
L 779.598077 296.277796 
L 779.76067 296.530307 
L 780.198822 296.487511 
L 780.088299 296.75157 
L 779.596766 296.77773 
L 779.517256 296.976028 
L 779.81105 297.073699 
L 780.575885 296.792869 
L 780.661792 297.18969 
L 780.162551 297.350424 
L 780.16368 297.56683 
L 780.458225 297.651145 
L 781.251634 297.345074 
L 781.077581 297.997472 
L 781.434717 297.707033 
L 781.679829 297.937356 
L 782.274181 297.672721 
L 783.273796 297.539824 
L 783.263463 298.121362 
L 782.888472 298.492159 
L 783.091103 298.724859 
L 783.457266 298.70595 
L 783.996741 299.407787 
L 784.320799 299.364092 
L 784.673234 298.819108 
L 784.882257 298.916553 
L 784.840909 299.432219 
L 784.275313 299.798944 
L 784.879074 300.173341 
L 785.914017 299.418158 
L 786.563641 299.898834 
L 786.651414 299.218828 
L 787.140129 298.937557 
L 787.310243 299.077789 
L 787.249536 299.75632 
L 788.168694 298.845862 
L 788.518508 299.04472 
L 788.214755 299.762302 
L 788.817951 299.867555 
L 788.954409 299.063731 
L 790.083539 298.805777 
L 790.19069 299.597603 
L 791.581851 299.422157 
L 791.878653 299.097093 
L 792.500081 299.297081 
L 793.128469 299.929085 
L 793.1143 308.402475 
L 793.059111 315.732022 
L 792.988806 319.913715 
L 793.023364 325.477771 
L 793.145664 334.544419 
L 793.157084 340.175071 
L 793.149678 346.255471 
L 793.769972 346.415058 
L 793.905306 346.747132 
L 794.575027 347.690109 
L 794.753029 348.372369 
L 795.597001 348.779095 
L 796.035717 348.771798 
L 795.89925 349.279415 
L 796.495483 349.22419 
L 796.661456 349.947814 
L 796.938897 349.907639 
L 797.034004 350.539814 
L 797.343957 351.514197 
L 798.095265 351.966814 
L 798.397326 352.779177 
L 798.173266 353.41282 
L 798.694878 354.093099 
L 798.5727 354.627197 
L 798.724955 354.769186 
L 799.131531 354.655556 
L 798.649209 355.748257 
L 798.782668 356.365376 
L 798.57816 356.537462 
L 798.458426 357.423841 
L 798.064444 357.509968 
L 798.137378 358.251871 
L 798.538881 358.639743 
L 798.681927 359.175201 
L 799.43061 359.926669 
L 799.84508 360.016032 
L 800.233422 359.808515 
L 800.624776 360.278505 
L 801.26199 360.317337 
L 800.936808 361.063986 
L 800.16219 361.20777 
L 800.142266 361.35779 
L 800.744899 362.129977 
L 801.443766 362.071131 
L 801.357305 362.522326 
L 801.724975 362.763237 
L 801.500165 363.071651 
L 801.54171 363.422174 
L 801.712951 363.712712 
L 802.291334 363.944173 
L 802.363894 364.713633 
L 803.009756 364.671144 
L 801.970486 366.019339 
L 801.858461 366.48536 
L 802.48572 367.257034 
L 802.745304 367.150474 
L 803.109027 367.635857 
L 803.463161 367.579441 
L 803.575943 367.750684 
L 803.597567 368.576845 
L 804.101514 368.947742 
L 803.796636 369.856239 
L 804.017877 370.416032 
L 804.436674 370.655132 
L 805.085914 370.097672 
L 805.619748 370.250642 
L 805.668809 370.479041 
L 805.420314 370.530534 
L 805.634414 370.928028 
L 805.243628 371.04007 
L 805.408294 371.833018 
L 805.640249 372.026334 
L 805.467882 372.318675 
L 804.935931 372.518317 
L 804.854544 372.779594 
L 805.269955 372.951239 
L 805.245709 373.318509 
L 805.913565 373.547033 
L 805.698156 374.071903 
L 806.154545 374.608104 
L 805.171474 375.342913 
L 804.73238 375.226556 
L 804.659638 375.379006 
L 804.586896 375.843444 
L 804.83069 376.009033 
L 804.547233 376.469277 
L 805.13313 376.646927 
L 805.41245 377.04171 
L 805.53933 376.927568 
L 805.701167 377.6667 
L 805.593648 377.929224 
L 805.109819 377.991126 
L 805.186318 378.571181 
L 804.743841 378.672132 
L 804.644783 379.137874 
L 804.833312 379.563774 
L 805.03143 379.907851 
L 804.695341 380.356895 
L 804.961504 380.440142 
L 805.083682 380.855461 
L 804.315267 381.635894 
L 804.233875 382.521707 
L 803.413964 383.30486 
L 803.680135 383.713686 
L 803.430324 383.697722 
L 803.562851 384.356968 
L 803.43486 385.055035 
L 802.390708 385.468708 
L 801.947687 386.452782 
L 801.580397 386.442422 
L 801.784728 386.935458 
L 801.584923 387.161821 
L 802.105037 387.694816 
L 801.567073 387.665041 
L 800.966149 388.004922 
L 800.964465 388.575371 
L 800.53516 389.246998 
L 801.2705 389.919329 
L 801.044384 390.445799 
L 801.225779 390.709069 
L 801.039133 390.934921 
L 801.45493 391.48624 
L 801.320727 391.709775 
L 801.489536 392.299631 
L 800.874512 392.586026 
L 800.35649 393.30275 
L 800.051436 394.104871 
L 800.226632 394.53146 
L 799.943182 394.92505 
L 799.94714 395.318867 
L 800.671598 396.385681 
L 801.424604 396.609057 
L 801.223887 398.330388 
L 801.039489 398.89607 
L 801.297755 400.066426 
L 801.499635 400.220241 
L 801.413543 400.958072 
L 801.820495 401.034528 
L 801.751136 401.241593 
L 801.438731 401.242385 
L 801.481022 401.933586 
L 801.198692 402.028205 
L 801.014482 402.594056 
L 801.097749 403.636913 
L 799.922 405.255583 
L 797.530287 405.709825 
L 797.553612 406.482801 
L 795.202379 410.821711 
L 798.080224 415.087966 
L 792.40255 415.102653 
L 785.218487 418.490089 
L 784.725452 418.725386 
L 777.198518 422.257979 
L 775.128261 424.302598 
L 774.667546 423.730926 
L 777.213357 421.005742 
L 779.904284 419.286626 
L 781.663655 419.747373 
L 782.439392 418.58264 
L 781.428883 418.927778 
L 780.864982 418.665599 
L 780.107661 417.923421 
L 774.597587 419.123327 
L 776.609582 415.564182 
L 776.760882 412.714346 
L 775.887578 411.574499 
L 773.579328 412.557383 
L 772.156601 415.266761 
L 771.037434 414.861158 
L 767.201942 411.248188 
L 768.381245 413.989732 
L 769.639319 414.935558 
L 769.028618 418.508911 
L 771.56546 420.257419 
L 769.800063 421.438467 
L 770.762277 421.315209 
L 770.54669 422.515267 
L 771.509093 422.637555 
L 771.421678 421.815409 
L 772.058719 423.254329 
L 773.925823 424.096729 
L 772.050452 423.417311 
L 771.870214 425.940906 
L 770.580555 425.432162 
L 767.741489 429.290554 
L 765.421756 429.167283 
L 765.316853 431.614552 
L 764.514598 431.980239 
L 763.25649 435.743292 
L 756.40284 440.939835 
L 752.548264 443.203186 
L 752.836803 442.439851 
L 750.002598 442.849557 
L 746.28353 444.285972 
L 745.819425 446.296998 
L 752.077206 443.439552 
L 739.649403 450.281131 
L 744.944812 447.075773 
L 745.139379 445.393247 
L 738.885531 447.820478 
L 738.850012 447.055158 
L 740.859376 446.636416 
L 738.814873 445.935359 
L 741.017314 442.143237 
L 739.511678 444.39669 
L 737.693467 445.138278 
L 738.077683 443.736214 
L 736.703435 445.958197 
L 735.767169 446.436088 
L 735.086737 444.885232 
L 735.063251 443.230368 
L 734.216831 443.646182 
L 733.660268 442.369728 
L 734.089386 444.084245 
L 734.800472 443.424242 
L 734.421328 445.822415 
L 735.49029 446.670259 
L 732.637129 448.247002 
L 733.968693 447.058846 
L 733.544273 445.310035 
L 732.832622 447.027258 
L 732.127367 446.726817 
L 732.131321 445.499657 
L 730.686035 445.893524 
L 730.682097 444.244652 
L 730.641327 440.793104 
L 730.536044 444.278833 
L 730.16613 443.487527 
L 728.810693 443.582992 
L 728.478172 444.623406 
L 729.791493 446.268323 
L 729.701823 448.187756 
L 730.777001 447.73803 
L 732.751029 449.751908 
L 730.863446 450.837657 
L 731.964561 451.098764 
L 732.999333 449.952692 
L 735.112627 451.89297 
L 728.446137 455.684638 
L 727.434695 454.677836 
L 727.398991 453.025566 
L 726.488477 452.800902 
L 725.347154 450.603892 
L 724.440955 451.430678 
L 725.316508 451.531128 
L 726.036794 452.579747 
L 725.636229 453.15182 
L 723.711256 452.755236 
L 725.319121 454.313679 
L 725.36742 455.488951 
L 725.193353 456.719851 
L 725.572855 457.966644 
L 724.938277 458.497802 
L 721.311281 461.378456 
L 722.25204 457.15228 
L 720.71015 458.518478 
L 721.553561 459.229921 
L 720.71505 461.357975 
L 719.27354 460.694802 
L 719.521082 458.843472 
L 716.853689 460.901627 
L 716.765528 459.9705 
L 715.962921 460.040216 
L 716.23228 461.318349 
L 713.689128 462.850968 
L 714.158477 463.327793 
L 713.44252 464.001894 
L 714.282157 463.569089 
L 717.069482 463.161251 
L 719.451172 461.574428 
L 719.51528 464.170869 
L 717.277769 467.281702 
L 715.28611 470.342569 
L 714.01584 470.042924 
L 714.845705 469.782105 
L 713.117551 468.594304 
L 711.206702 469.519731 
L 711.586762 468.533996 
L 708.291928 469.133825 
L 707.865059 468.466073 
L 707.248721 468.817444 
L 707.79476 469.422212 
L 708.280653 470.103432 
L 710.529278 469.772749 
L 710.331734 471.570317 
L 712.272292 473.30935 
L 711.490918 473.217291 
L 712.217596 473.949952 
L 711.396003 475.428489 
L 710.266326 475.654414 
L 711.540362 475.706226 
L 712.483754 473.438771 
L 713.94763 474.003403 
L 711.935661 477.756926 
L 709.944988 484.916195 
L 707.772657 484.956461 
L 707.597605 481.409523 
L 707.084129 484.231534 
L 705.316887 485.536012 
L 701.622208 481.989547 
L 703.348505 485.706974 
L 700.768097 485.904366 
L 706.596961 487.610733 
L 709.576601 486.574483 
L 707.697167 492.021608 
L 708.300937 494.544519 
L 706.094195 495.097859 
L 706.353238 499.008497 
L 707.892526 500.559368 
L 708.973574 506.279579 
L 709.61024 508.735034 
L 708.406678 509.963961 
L 709.725266 512.686038 
L 711.018493 513.457421 
L 711.396301 518.69745 
L 713.866037 522.08378 
L 713.294417 524.043189 
L 714.852129 523.841665 
L 715.859104 525.458652 
L 712.535029 525.145479 
L 712.60177 525.93057 
L 710.715681 526.572725 
L 710.601049 528.698856 
L 709.401048 528.703728 
L 705.563983 526.091774 
L 705.937279 525.470461 
L 705.001381 525.238155 
L 704.137836 523.41513 
L 698.730889 522.326364 
L 694.477502 522.348486 
L 693.58371 523.083368 
L 693.414539 522.159698 
L 690.520191 522.467712 
L 688.271897 521.199974 
L 688.779217 520.523775 
L 688.263809 520.170313 
L 687.385254 520.798187 
L 686.910811 519.402725 
L 685.991086 519.481331 
L 684.29428 517.556352 
L 683.428881 518.130974 
L 680.683054 516.383136 
L 678.762608 516.929022 
L 675.266242 512.98256 
L 673.071933 513.419974 
L 672.323632 512.382113 
L 668.197983 511.663544 
L 668.327467 509.621979 
L 666.671677 507.919337 
L 666.742155 506.905813 
L 663.792938 498.673461 
L 661.206139 496.024914 
L 661.151998 494.57349 
L 659.615932 493.591493 
L 660.057086 488.531338 
L 659.364421 486.434099 
L 657.434935 484.987141 
L 658.743012 479.880897 
L 657.849977 479.479505 
L 657.296993 476.264996 
L 653.224284 474.813228 
L 650.730133 471.295903 
L 649.276383 470.774373 
L 647.622622 465.160994 
L 646.354957 464.669125 
L 643.802132 460.194323 
L 640.915857 458.780494 
L 640.68446 457.607885 
L 638.850068 456.453848 
L 638.97393 455.266861 
L 637.528254 453.076591 
L 636.907375 450.570425 
L 637.670333 449.912952 
L 635.853807 448.625873 
L 636.256811 447.274658 
L 633.922795 445.16057 
L 631.659062 438.240615 
L 630.244029 437.406097 
L 629.713175 432.726533 
L 627.253398 430.160181 
L 626.554138 427.907323 
L 621.329345 424.028002 
L 619.892873 421.052224 
L 615.111542 419.482183 
L 615.280123 416.447703 
L 613.941248 417.867127 
L 614.016796 415.745108 
L 612.476034 415.604802 
L 611.300854 412.985832 
L 611.666062 412.259775 
L 610.504438 412.536299 
L 609.961394 411.70245 
L 608.289058 412.464185 
L 608.150885 411.066686 
L 607.226097 412.400932 
L 605.792658 412.643953 
L 602.850384 411.74777 
L 601.714301 411.960454 
L 601.372 410.947939 
L 598.781983 411.708206 
" clip-path="url(#p4c9c82eaaf)" style="fill: #ffffff; stroke: #000000"/>
    <path d="M 713.517918 509.901644 
L 713.23953 508.090067 
L 712.68313 506.278438 
L 711.281431 503.144637 
L 710.707159 499.770314 
L 710.362776 496.755508 
L 710.224757 491.140821 
L 710.52341 488.457977 
L 710.776036 488.374958 
L 710.569306 491.555684 
L 710.707127 495.953393 
L 711.281408 500.295812 
L 712.813581 506.288907 
L 714.383701 511.704454 
L 715.29818 516.419032 
L 715.869609 521.804739 
L 715.683896 521.97683 
L 714.955137 516.677143 
L 714.526563 513.769223 
L 713.91209 511.669989 
L 713.517918 509.901644 
" clip-path="url(#p4c9c82eaaf)" style="fill: #ffffff; stroke: #000000"/>
    <path d="M 718.246746 470.37064 
L 717.316882 470.134998 
L 718.782068 469.801011 
L 714.59012 477.410166 
L 711.254381 486.023042 
L 710.755169 488.19681 
L 710.836158 485.9956 
L 711.836071 481.361854 
L 713.975283 477.198745 
L 713.728658 475.103626 
L 715.086155 476.281032 
L 715.909045 473.450694 
L 718.246746 470.37064 
" clip-path="url(#p4c9c82eaaf)" style="fill: #ffffff; stroke: #000000"/>
    <path d="M 721.580831 463.408496 
L 723.24489 460.872599 
L 724.107093 461.749737 
L 723.703533 463.305561 
L 718.879619 469.49005 
L 719.499889 467.311527 
L 721.348703 465.230397 
L 720.766945 464.745988 
L 721.580831 463.408496 
" clip-path="url(#p4c9c82eaaf)" style="fill: #ffffff; stroke: #000000"/>
    <path d="M 724.93452 459.663382 
L 726.534306 459.325929 
L 731.628621 455.329143 
L 733.33067 455.104028 
L 734.328418 453.157484 
L 734.936293 454.510228 
L 724.176079 462.803551 
L 724.93452 459.663382 
" clip-path="url(#p4c9c82eaaf)" style="fill: #ffffff; stroke: #000000"/>
    <path d="M 771.509516 427.460078 
L 775.107778 424.941731 
L 775.575261 425.622968 
L 766.779445 432.225455 
L 771.509516 427.460078 
" clip-path="url(#p4c9c82eaaf)" style="fill: #ffffff; stroke: #000000"/>
   </g>
   <g id="PathCollection_1">
    <defs>
     <path id="m5472ad2b73" d="M 0 3.535534 
C 0.937635 3.535534 1.836992 3.163008 2.5 2.5 
C 3.163008 1.836992 3.535534 0.937635 3.535534 0 
C 3.535534 -0.937635 3.163008 -1.836992 2.5 -2.5 
C 1.836992 -3.163008 0.937635 -3.535534 0 -3.535534 
C -0.937635 -3.535534 -1.836992 -3.163008 -2.5 -2.5 
C -3.163008 -1.836992 -3.535534 -0.937635 -3.535534 0 
C -3.535534 0.937635 -3.163008 1.836992 -2.5 2.5 
C -1.836992 3.163008 -0.937635 3.535534 0 3.535534 
z
" style="stroke: #00b4d8"/>
    </defs>
    <g clip-path="url(#p4c9c82eaaf)">
     <use xlink:href="#m5472ad2b73" x="122.152158" y="169.438728" style="fill: #00b4d8; stroke: #00b4d8"/>
     <use xlink:href="#m5472ad2b73" x="766.326663" y="411.996047" style="fill: #00b4d8; stroke: #00b4d8"/>
    </g>
   </g>
   <g id="text_1">
    <!-- Hydrogen Fueling Stations H2LA_Station_Opt_Geotab_FCEV70kg_0To8000mi_5stations_5stDist -->
    <g transform="translate(47.1475 19.3575) scale(0.16 -0.16)">
     <defs>
      <path id="DejaVuSans-48" d="M 628 4666 
L 1259 4666 
L 1259 2753 
L 3553 2753 
L 3553 4666 
L 4184 4666 
L 4184 0 
L 3553 0 
L 3553 2222 
L 1259 2222 
L 1259 0 
L 628 0 
L 628 4666 
z
" transform="scale(0.015625)"/>
      <path id="DejaVuSans-79" d="M 2059 -325 
Q 1816 -950 1584 -1140 
Q 1353 -1331 966 -1331 
L 506 -1331 
L 506 -850 
L 844 -850 
Q 1081 -850 1212 -737 
Q 1344 -625 1503 -206 
L 1606 56 
L 191 3500 
L 800 3500 
L 1894 763 
L 2988 3500 
L 3597 3500 
L 2059 -325 
z
" transform="scale(0.015625)"/>
      <path id="DejaVuSans-64" d="M 2906 2969 
L 2906 4863 
L 3481 4863 
L 3481 0 
L 2906 0 
L 2906 525 
Q 2725 213 2448 61 
Q 2172 -91 1784 -91 
Q 1150 -91 751 415 
Q 353 922 353 1747 
Q 353 2572 751 3078 
Q 1150 3584 1784 3584 
Q 2172 3584 2448 3432 
Q 2725 3281 2906 2969 
z
M 947 1747 
Q 947 1113 1208 752 
Q 1469 391 1925 391 
Q 2381 391 2643 752 
Q 2906 1113 2906 1747 
Q 2906 2381 2643 2742 
Q 2381 3103 1925 3103 
Q 1469 3103 1208 2742 
Q 947 2381 947 1747 
z
" transform="scale(0.015625)"/>
      <path id="DejaVuSans-72" d="M 2631 2963 
Q 2534 3019 2420 3045 
Q 2306 3072 2169 3072 
Q 1681 3072 1420 2755 
Q 1159 2438 1159 1844 
L 1159 0 
L 581 0 
L 581 3500 
L 1159 3500 
L 1159 2956 
Q 1341 3275 1631 3429 
Q 1922 3584 2338 3584 
Q 2397 3584 2469 3576 
Q 2541 3569 2628 3553 
L 2631 2963 
z
" transform="scale(0.015625)"/>
      <path id="DejaVuSans-6f" d="M 1959 3097 
Q 1497 3097 1228 2736 
Q 959 2375 959 1747 
Q 959 1119 1226 758 
Q 1494 397 1959 397 
Q 2419 397 2687 759 
Q 2956 1122 2956 1747 
Q 2956 2369 2687 2733 
Q 2419 3097 1959 3097 
z
M 1959 3584 
Q 2709 3584 3137 3096 
Q 3566 2609 3566 1747 
Q 3566 888 3137 398 
Q 2709 -91 1959 -91 
Q 1206 -91 779 398 
Q 353 888 353 1747 
Q 353 2609 779 3096 
Q 1206 3584 1959 3584 
z
" transform="scale(0.015625)"/>
      <path id="DejaVuSans-67" d="M 2906 1791 
Q 2906 2416 2648 2759 
Q 2391 3103 1925 3103 
Q 1463 3103 1205 2759 
Q 947 2416 947 1791 
Q 947 1169 1205 825 
Q 1463 481 1925 481 
Q 2391 481 2648 825 
Q 2906 1169 2906 1791 
z
M 3481 434 
Q 3481 -459 3084 -895 
Q 2688 -1331 1869 -1331 
Q 1566 -1331 1297 -1286 
Q 1028 -1241 775 -1147 
L 775 -588 
Q 1028 -725 1275 -790 
Q 1522 -856 1778 -856 
Q 2344 -856 2625 -561 
Q 2906 -266 2906 331 
L 2906 616 
Q 2728 306 2450 153 
Q 2172 0 1784 0 
Q 1141 0 747 490 
Q 353 981 353 1791 
Q 353 2603 747 3093 
Q 1141 3584 1784 3584 
Q 2172 3584 2450 3431 
Q 2728 3278 2906 2969 
L 2906 3500 
L 3481 3500 
L 3481 434 
z
" transform="scale(0.015625)"/>
      <path id="DejaVuSans-65" d="M 3597 1894 
L 3597 1613 
L 953 1613 
Q 991 1019 1311 708 
Q 1631 397 2203 397 
Q 2534 397 2845 478 
Q 3156 559 3463 722 
L 3463 178 
Q 3153 47 2828 -22 
Q 2503 -91 2169 -91 
Q 1331 -91 842 396 
Q 353 884 353 1716 
Q 353 2575 817 3079 
Q 1281 3584 2069 3584 
Q 2775 3584 3186 3129 
Q 3597 2675 3597 1894 
z
M 3022 2063 
Q 3016 2534 2758 2815 
Q 2500 3097 2075 3097 
Q 1594 3097 1305 2825 
Q 1016 2553 972 2059 
L 3022 2063 
z
" transform="scale(0.015625)"/>
      <path id="DejaVuSans-6e" d="M 3513 2113 
L 3513 0 
L 2938 0 
L 2938 2094 
Q 2938 2591 2744 2837 
Q 2550 3084 2163 3084 
Q 1697 3084 1428 2787 
Q 1159 2491 1159 1978 
L 1159 0 
L 581 0 
L 581 3500 
L 1159 3500 
L 1159 2956 
Q 1366 3272 1645 3428 
Q 1925 3584 2291 3584 
Q 2894 3584 3203 3211 
Q 3513 2838 3513 2113 
z
" transform="scale(0.015625)"/>
      <path id="DejaVuSans-20" transform="scale(0.015625)"/>
      <path id="DejaVuSans-46" d="M 628 4666 
L 3309 4666 
L 3309 4134 
L 1259 4134 
L 1259 2759 
L 3109 2759 
L 3109 2228 
L 1259 2228 
L 1259 0 
L 628 0 
L 628 4666 
z
" transform="scale(0.015625)"/>
      <path id="DejaVuSans-75" d="M 544 1381 
L 544 3500 
L 1119 3500 
L 1119 1403 
Q 1119 906 1312 657 
Q 1506 409 1894 409 
Q 2359 409 2629 706 
Q 2900 1003 2900 1516 
L 2900 3500 
L 3475 3500 
L 3475 0 
L 2900 0 
L 2900 538 
Q 2691 219 2414 64 
Q 2138 -91 1772 -91 
Q 1169 -91 856 284 
Q 544 659 544 1381 
z
M 1991 3584 
L 1991 3584 
z
" transform="scale(0.015625)"/>
      <path id="DejaVuSans-6c" d="M 603 4863 
L 1178 4863 
L 1178 0 
L 603 0 
L 603 4863 
z
" transform="scale(0.015625)"/>
      <path id="DejaVuSans-69" d="M 603 3500 
L 1178 3500 
L 1178 0 
L 603 0 
L 603 3500 
z
M 603 4863 
L 1178 4863 
L 1178 4134 
L 603 4134 
L 603 4863 
z
" transform="scale(0.015625)"/>
      <path id="DejaVuSans-53" d="M 3425 4513 
L 3425 3897 
Q 3066 4069 2747 4153 
Q 2428 4238 2131 4238 
Q 1616 4238 1336 4038 
Q 1056 3838 1056 3469 
Q 1056 3159 1242 3001 
Q 1428 2844 1947 2747 
L 2328 2669 
Q 3034 2534 3370 2195 
Q 3706 1856 3706 1288 
Q 3706 609 3251 259 
Q 2797 -91 1919 -91 
Q 1588 -91 1214 -16 
Q 841 59 441 206 
L 441 856 
Q 825 641 1194 531 
Q 1563 422 1919 422 
Q 2459 422 2753 634 
Q 3047 847 3047 1241 
Q 3047 1584 2836 1778 
Q 2625 1972 2144 2069 
L 1759 2144 
Q 1053 2284 737 2584 
Q 422 2884 422 3419 
Q 422 4038 858 4394 
Q 1294 4750 2059 4750 
Q 2388 4750 2728 4690 
Q 3069 4631 3425 4513 
z
" transform="scale(0.015625)"/>
      <path id="DejaVuSans-74" d="M 1172 4494 
L 1172 3500 
L 2356 3500 
L 2356 3053 
L 1172 3053 
L 1172 1153 
Q 1172 725 1289 603 
Q 1406 481 1766 481 
L 2356 481 
L 2356 0 
L 1766 0 
Q 1100 0 847 248 
Q 594 497 594 1153 
L 594 3053 
L 172 3053 
L 172 3500 
L 594 3500 
L 594 4494 
L 1172 4494 
z
" transform="scale(0.015625)"/>
      <path id="DejaVuSans-61" d="M 2194 1759 
Q 1497 1759 1228 1600 
Q 959 1441 959 1056 
Q 959 750 1161 570 
Q 1363 391 1709 391 
Q 2188 391 2477 730 
Q 2766 1069 2766 1631 
L 2766 1759 
L 2194 1759 
z
M 3341 1997 
L 3341 0 
L 2766 0 
L 2766 531 
Q 2569 213 2275 61 
Q 1981 -91 1556 -91 
Q 1019 -91 701 211 
Q 384 513 384 1019 
Q 384 1609 779 1909 
Q 1175 2209 1959 2209 
L 2766 2209 
L 2766 2266 
Q 2766 2663 2505 2880 
Q 2244 3097 1772 3097 
Q 1472 3097 1187 3025 
Q 903 2953 641 2809 
L 641 3341 
Q 956 3463 1253 3523 
Q 1550 3584 1831 3584 
Q 2591 3584 2966 3190 
Q 3341 2797 3341 1997 
z
" transform="scale(0.015625)"/>
      <path id="DejaVuSans-73" d="M 2834 3397 
L 2834 2853 
Q 2591 2978 2328 3040 
Q 2066 3103 1784 3103 
Q 1356 3103 1142 2972 
Q 928 2841 928 2578 
Q 928 2378 1081 2264 
Q 1234 2150 1697 2047 
L 1894 2003 
Q 2506 1872 2764 1633 
Q 3022 1394 3022 966 
Q 3022 478 2636 193 
Q 2250 -91 1575 -91 
Q 1294 -91 989 -36 
Q 684 19 347 128 
L 347 722 
Q 666 556 975 473 
Q 1284 391 1588 391 
Q 1994 391 2212 530 
Q 2431 669 2431 922 
Q 2431 1156 2273 1281 
Q 2116 1406 1581 1522 
L 1381 1569 
Q 847 1681 609 1914 
Q 372 2147 372 2553 
Q 372 3047 722 3315 
Q 1072 3584 1716 3584 
Q 2034 3584 2315 3537 
Q 2597 3491 2834 3397 
z
" transform="scale(0.015625)"/>
      <path id="DejaVuSans-32" d="M 1228 531 
L 3431 531 
L 3431 0 
L 469 0 
L 469 531 
Q 828 903 1448 1529 
Q 2069 2156 2228 2338 
Q 2531 2678 2651 2914 
Q 2772 3150 2772 3378 
Q 2772 3750 2511 3984 
Q 2250 4219 1831 4219 
Q 1534 4219 1204 4116 
Q 875 4013 500 3803 
L 500 4441 
Q 881 4594 1212 4672 
Q 1544 4750 1819 4750 
Q 2544 4750 2975 4387 
Q 3406 4025 3406 3419 
Q 3406 3131 3298 2873 
Q 3191 2616 2906 2266 
Q 2828 2175 2409 1742 
Q 1991 1309 1228 531 
z
" transform="scale(0.015625)"/>
      <path id="DejaVuSans-4c" d="M 628 4666 
L 1259 4666 
L 1259 531 
L 3531 531 
L 3531 0 
L 628 0 
L 628 4666 
z
" transform="scale(0.015625)"/>
      <path id="DejaVuSans-41" d="M 2188 4044 
L 1331 1722 
L 3047 1722 
L 2188 4044 
z
M 1831 4666 
L 2547 4666 
L 4325 0 
L 3669 0 
L 3244 1197 
L 1141 1197 
L 716 0 
L 50 0 
L 1831 4666 
z
" transform="scale(0.015625)"/>
      <path id="DejaVuSans-5f" d="M 3263 -1063 
L 3263 -1509 
L -63 -1509 
L -63 -1063 
L 3263 -1063 
z
" transform="scale(0.015625)"/>
      <path id="DejaVuSans-4f" d="M 2522 4238 
Q 1834 4238 1429 3725 
Q 1025 3213 1025 2328 
Q 1025 1447 1429 934 
Q 1834 422 2522 422 
Q 3209 422 3611 934 
Q 4013 1447 4013 2328 
Q 4013 3213 3611 3725 
Q 3209 4238 2522 4238 
z
M 2522 4750 
Q 3503 4750 4090 4092 
Q 4678 3434 4678 2328 
Q 4678 1225 4090 567 
Q 3503 -91 2522 -91 
Q 1538 -91 948 565 
Q 359 1222 359 2328 
Q 359 3434 948 4092 
Q 1538 4750 2522 4750 
z
" transform="scale(0.015625)"/>
      <path id="DejaVuSans-70" d="M 1159 525 
L 1159 -1331 
L 581 -1331 
L 581 3500 
L 1159 3500 
L 1159 2969 
Q 1341 3281 1617 3432 
Q 1894 3584 2278 3584 
Q 2916 3584 3314 3078 
Q 3713 2572 3713 1747 
Q 3713 922 3314 415 
Q 2916 -91 2278 -91 
Q 1894 -91 1617 61 
Q 1341 213 1159 525 
z
M 3116 1747 
Q 3116 2381 2855 2742 
Q 2594 3103 2138 3103 
Q 1681 3103 1420 2742 
Q 1159 2381 1159 1747 
Q 1159 1113 1420 752 
Q 1681 391 2138 391 
Q 2594 391 2855 752 
Q 3116 1113 3116 1747 
z
" transform="scale(0.015625)"/>
      <path id="DejaVuSans-47" d="M 3809 666 
L 3809 1919 
L 2778 1919 
L 2778 2438 
L 4434 2438 
L 4434 434 
Q 4069 175 3628 42 
Q 3188 -91 2688 -91 
Q 1594 -91 976 548 
Q 359 1188 359 2328 
Q 359 3472 976 4111 
Q 1594 4750 2688 4750 
Q 3144 4750 3555 4637 
Q 3966 4525 4313 4306 
L 4313 3634 
Q 3963 3931 3569 4081 
Q 3175 4231 2741 4231 
Q 1884 4231 1454 3753 
Q 1025 3275 1025 2328 
Q 1025 1384 1454 906 
Q 1884 428 2741 428 
Q 3075 428 3337 486 
Q 3600 544 3809 666 
z
" transform="scale(0.015625)"/>
      <path id="DejaVuSans-62" d="M 3116 1747 
Q 3116 2381 2855 2742 
Q 2594 3103 2138 3103 
Q 1681 3103 1420 2742 
Q 1159 2381 1159 1747 
Q 1159 1113 1420 752 
Q 1681 391 2138 391 
Q 2594 391 2855 752 
Q 3116 1113 3116 1747 
z
M 1159 2969 
Q 1341 3281 1617 3432 
Q 1894 3584 2278 3584 
Q 2916 3584 3314 3078 
Q 3713 2572 3713 1747 
Q 3713 922 3314 415 
Q 2916 -91 2278 -91 
Q 1894 -91 1617 61 
Q 1341 213 1159 525 
L 1159 0 
L 581 0 
L 581 4863 
L 1159 4863 
L 1159 2969 
z
" transform="scale(0.015625)"/>
      <path id="DejaVuSans-43" d="M 4122 4306 
L 4122 3641 
Q 3803 3938 3442 4084 
Q 3081 4231 2675 4231 
Q 1875 4231 1450 3742 
Q 1025 3253 1025 2328 
Q 1025 1406 1450 917 
Q 1875 428 2675 428 
Q 3081 428 3442 575 
Q 3803 722 4122 1019 
L 4122 359 
Q 3791 134 3420 21 
Q 3050 -91 2638 -91 
Q 1578 -91 968 557 
Q 359 1206 359 2328 
Q 359 3453 968 4101 
Q 1578 4750 2638 4750 
Q 3056 4750 3426 4639 
Q 3797 4528 4122 4306 
z
" transform="scale(0.015625)"/>
      <path id="DejaVuSans-45" d="M 628 4666 
L 3578 4666 
L 3578 4134 
L 1259 4134 
L 1259 2753 
L 3481 2753 
L 3481 2222 
L 1259 2222 
L 1259 531 
L 3634 531 
L 3634 0 
L 628 0 
L 628 4666 
z
" transform="scale(0.015625)"/>
      <path id="DejaVuSans-56" d="M 1831 0 
L 50 4666 
L 709 4666 
L 2188 738 
L 3669 4666 
L 4325 4666 
L 2547 0 
L 1831 0 
z
" transform="scale(0.015625)"/>
      <path id="DejaVuSans-37" d="M 525 4666 
L 3525 4666 
L 3525 4397 
L 1831 0 
L 1172 0 
L 2766 4134 
L 525 4134 
L 525 4666 
z
" transform="scale(0.015625)"/>
      <path id="DejaVuSans-30" d="M 2034 4250 
Q 1547 4250 1301 3770 
Q 1056 3291 1056 2328 
Q 1056 1369 1301 889 
Q 1547 409 2034 409 
Q 2525 409 2770 889 
Q 3016 1369 3016 2328 
Q 3016 3291 2770 3770 
Q 2525 4250 2034 4250 
z
M 2034 4750 
Q 2819 4750 3233 4129 
Q 3647 3509 3647 2328 
Q 3647 1150 3233 529 
Q 2819 -91 2034 -91 
Q 1250 -91 836 529 
Q 422 1150 422 2328 
Q 422 3509 836 4129 
Q 1250 4750 2034 4750 
z
" transform="scale(0.015625)"/>
      <path id="DejaVuSans-6b" d="M 581 4863 
L 1159 4863 
L 1159 1991 
L 2875 3500 
L 3609 3500 
L 1753 1863 
L 3688 0 
L 2938 0 
L 1159 1709 
L 1159 0 
L 581 0 
L 581 4863 
z
" transform="scale(0.015625)"/>
      <path id="DejaVuSans-54" d="M -19 4666 
L 3928 4666 
L 3928 4134 
L 2272 4134 
L 2272 0 
L 1638 0 
L 1638 4134 
L -19 4134 
L -19 4666 
z
" transform="scale(0.015625)"/>
      <path id="DejaVuSans-38" d="M 2034 2216 
Q 1584 2216 1326 1975 
Q 1069 1734 1069 1313 
Q 1069 891 1326 650 
Q 1584 409 2034 409 
Q 2484 409 2743 651 
Q 3003 894 3003 1313 
Q 3003 1734 2745 1975 
Q 2488 2216 2034 2216 
z
M 1403 2484 
Q 997 2584 770 2862 
Q 544 3141 544 3541 
Q 544 4100 942 4425 
Q 1341 4750 2034 4750 
Q 2731 4750 3128 4425 
Q 3525 4100 3525 3541 
Q 3525 3141 3298 2862 
Q 3072 2584 2669 2484 
Q 3125 2378 3379 2068 
Q 3634 1759 3634 1313 
Q 3634 634 3220 271 
Q 2806 -91 2034 -91 
Q 1263 -91 848 271 
Q 434 634 434 1313 
Q 434 1759 690 2068 
Q 947 2378 1403 2484 
z
M 1172 3481 
Q 1172 3119 1398 2916 
Q 1625 2713 2034 2713 
Q 2441 2713 2670 2916 
Q 2900 3119 2900 3481 
Q 2900 3844 2670 4047 
Q 2441 4250 2034 4250 
Q 1625 4250 1398 4047 
Q 1172 3844 1172 3481 
z
" transform="scale(0.015625)"/>
      <path id="DejaVuSans-6d" d="M 3328 2828 
Q 3544 3216 3844 3400 
Q 4144 3584 4550 3584 
Q 5097 3584 5394 3201 
Q 5691 2819 5691 2113 
L 5691 0 
L 5113 0 
L 5113 2094 
Q 5113 2597 4934 2840 
Q 4756 3084 4391 3084 
Q 3944 3084 3684 2787 
Q 3425 2491 3425 1978 
L 3425 0 
L 2847 0 
L 2847 2094 
Q 2847 2600 2669 2842 
Q 2491 3084 2119 3084 
Q 1678 3084 1418 2786 
Q 1159 2488 1159 1978 
L 1159 0 
L 581 0 
L 581 3500 
L 1159 3500 
L 1159 2956 
Q 1356 3278 1631 3431 
Q 1906 3584 2284 3584 
Q 2666 3584 2933 3390 
Q 3200 3197 3328 2828 
z
" transform="scale(0.015625)"/>
      <path id="DejaVuSans-35" d="M 691 4666 
L 3169 4666 
L 3169 4134 
L 1269 4134 
L 1269 2991 
Q 1406 3038 1543 3061 
Q 1681 3084 1819 3084 
Q 2600 3084 3056 2656 
Q 3513 2228 3513 1497 
Q 3513 744 3044 326 
Q 2575 -91 1722 -91 
Q 1428 -91 1123 -41 
Q 819 9 494 109 
L 494 744 
Q 775 591 1075 516 
Q 1375 441 1709 441 
Q 2250 441 2565 725 
Q 2881 1009 2881 1497 
Q 2881 1984 2565 2268 
Q 2250 2553 1709 2553 
Q 1456 2553 1204 2497 
Q 953 2441 691 2322 
L 691 4666 
z
" transform="scale(0.015625)"/>
      <path id="DejaVuSans-44" d="M 1259 4147 
L 1259 519 
L 2022 519 
Q 2988 519 3436 956 
Q 3884 1394 3884 2338 
Q 3884 3275 3436 3711 
Q 2988 4147 2022 4147 
L 1259 4147 
z
M 628 4666 
L 1925 4666 
Q 3281 4666 3915 4102 
Q 4550 3538 4550 2338 
Q 4550 1131 3912 565 
Q 3275 0 1925 0 
L 628 0 
L 628 4666 
z
" transform="scale(0.015625)"/>
     </defs>
     <use xlink:href="#DejaVuSans-48"/>
     <use xlink:href="#DejaVuSans-79" x="75.195312"/>
     <use xlink:href="#DejaVuSans-64" x="134.375"/>
     <use xlink:href="#DejaVuSans-72" x="197.851562"/>
     <use xlink:href="#DejaVuSans-6f" x="236.714844"/>
     <use xlink:href="#DejaVuSans-67" x="297.896484"/>
     <use xlink:href="#DejaVuSans-65" x="361.373047"/>
     <use xlink:href="#DejaVuSans-6e" x="422.896484"/>
     <use xlink:href="#DejaVuSans-20" x="486.275391"/>
     <use xlink:href="#DejaVuSans-46" x="518.0625"/>
     <use xlink:href="#DejaVuSans-75" x="570.082031"/>
     <use xlink:href="#DejaVuSans-65" x="633.460938"/>
     <use xlink:href="#DejaVuSans-6c" x="694.984375"/>
     <use xlink:href="#DejaVuSans-69" x="722.767578"/>
     <use xlink:href="#DejaVuSans-6e" x="750.550781"/>
     <use xlink:href="#DejaVuSans-67" x="813.929688"/>
     <use xlink:href="#DejaVuSans-20" x="877.40625"/>
     <use xlink:href="#DejaVuSans-53" x="909.193359"/>
     <use xlink:href="#DejaVuSans-74" x="972.669922"/>
     <use xlink:href="#DejaVuSans-61" x="1011.878906"/>
     <use xlink:href="#DejaVuSans-74" x="1073.158203"/>
     <use xlink:href="#DejaVuSans-69" x="1112.367188"/>
     <use xlink:href="#DejaVuSans-6f" x="1140.150391"/>
     <use xlink:href="#DejaVuSans-6e" x="1201.332031"/>
     <use xlink:href="#DejaVuSans-73" x="1264.710938"/>
     <use xlink:href="#DejaVuSans-20" x="1316.810547"/>
     <use xlink:href="#DejaVuSans-48" x="1348.597656"/>
     <use xlink:href="#DejaVuSans-32" x="1423.792969"/>
     <use xlink:href="#DejaVuSans-4c" x="1487.416016"/>
     <use xlink:href="#DejaVuSans-41" x="1545.378906"/>
     <use xlink:href="#DejaVuSans-5f" x="1613.787109"/>
     <use xlink:href="#DejaVuSans-53" x="1663.787109"/>
     <use xlink:href="#DejaVuSans-74" x="1727.263672"/>
     <use xlink:href="#DejaVuSans-61" x="1766.472656"/>
     <use xlink:href="#DejaVuSans-74" x="1827.751953"/>
     <use xlink:href="#DejaVuSans-69" x="1866.960938"/>
     <use xlink:href="#DejaVuSans-6f" x="1894.744141"/>
     <use xlink:href="#DejaVuSans-6e" x="1955.925781"/>
     <use xlink:href="#DejaVuSans-5f" x="2019.304688"/>
     <use xlink:href="#DejaVuSans-4f" x="2069.304688"/>
     <use xlink:href="#DejaVuSans-70" x="2148.015625"/>
     <use xlink:href="#DejaVuSans-74" x="2211.492188"/>
     <use xlink:href="#DejaVuSans-5f" x="2250.701172"/>
     <use xlink:href="#DejaVuSans-47" x="2300.701172"/>
     <use xlink:href="#DejaVuSans-65" x="2378.191406"/>
     <use xlink:href="#DejaVuSans-6f" x="2439.714844"/>
     <use xlink:href="#DejaVuSans-74" x="2500.896484"/>
     <use xlink:href="#DejaVuSans-61" x="2540.105469"/>
     <use xlink:href="#DejaVuSans-62" x="2601.384766"/>
     <use xlink:href="#DejaVuSans-5f" x="2664.861328"/>
     <use xlink:href="#DejaVuSans-46" x="2714.861328"/>
     <use xlink:href="#DejaVuSans-43" x="2772.380859"/>
     <use xlink:href="#DejaVuSans-45" x="2842.205078"/>
     <use xlink:href="#DejaVuSans-56" x="2905.388672"/>
     <use xlink:href="#DejaVuSans-37" x="2973.796875"/>
     <use xlink:href="#DejaVuSans-30" x="3037.419922"/>
     <use xlink:href="#DejaVuSans-6b" x="3101.042969"/>
     <use xlink:href="#DejaVuSans-67" x="3158.953125"/>
     <use xlink:href="#DejaVuSans-5f" x="3222.429688"/>
     <use xlink:href="#DejaVuSans-30" x="3272.429688"/>
     <use xlink:href="#DejaVuSans-54" x="3336.052734"/>
     <use xlink:href="#DejaVuSans-6f" x="3380.136719"/>
     <use xlink:href="#DejaVuSans-38" x="3441.318359"/>
     <use xlink:href="#DejaVuSans-30" x="3504.941406"/>
     <use xlink:href="#DejaVuSans-30" x="3568.564453"/>
     <use xlink:href="#DejaVuSans-30" x="3632.1875"/>
     <use xlink:href="#DejaVuSans-6d" x="3695.810547"/>
     <use xlink:href="#DejaVuSans-69" x="3793.222656"/>
     <use xlink:href="#DejaVuSans-5f" x="3821.005859"/>
     <use xlink:href="#DejaVuSans-35" x="3871.005859"/>
     <use xlink:href="#DejaVuSans-73" x="3934.628906"/>
     <use xlink:href="#DejaVuSans-74" x="3986.728516"/>
     <use xlink:href="#DejaVuSans-61" x="4025.9375"/>
     <use xlink:href="#DejaVuSans-74" x="4087.216797"/>
     <use xlink:href="#DejaVuSans-69" x="4126.425781"/>
     <use xlink:href="#DejaVuSans-6f" x="4154.208984"/>
     <use xlink:href="#DejaVuSans-6e" x="4215.390625"/>
     <use xlink:href="#DejaVuSans-73" x="4278.769531"/>
     <use xlink:href="#DejaVuSans-5f" x="4330.869141"/>
     <use xlink:href="#DejaVuSans-35" x="4380.869141"/>
     <use xlink:href="#DejaVuSans-73" x="4444.492188"/>
     <use xlink:href="#DejaVuSans-74" x="4496.591797"/>
     <use xlink:href="#DejaVuSans-44" x="4535.800781"/>
     <use xlink:href="#DejaVuSans-69" x="4612.802734"/>
     <use xlink:href="#DejaVuSans-73" x="4640.585938"/>
     <use xlink:href="#DejaVuSans-74" x="4692.685547"/>
    </g>
   </g>
  </g>
 </g>
 <defs>
  <clipPath id="p4c9c82eaaf">
   <rect x="7.2" y="25.3575" width="837" height="527.315096"/>
  </clipPath>
 </defs>
</svg>
